<mxfile host="Electron" agent="Mozilla/5.0 (Macintosh; Intel Mac OS X 10_15_7) AppleWebKit/537.36 (KHTML, like Gecko) draw.io/26.0.4 Chrome/128.0.6613.186 Electron/32.2.5 Safari/537.36" version="26.0.4">
  <diagram name="Page-1" id="CbFWwzCIN6uxqHI2S3gj">
    <mxGraphModel dx="1114" dy="786" grid="1" gridSize="10" guides="1" tooltips="1" connect="1" arrows="1" fold="1" page="1" pageScale="1" pageWidth="850" pageHeight="1100" math="0" shadow="0">
      <root>
        <mxCell id="0" />
        <mxCell id="1" parent="0" />
        <mxCell id="3PmMXT0CuhSYNfn3DO8X-41" style="edgeStyle=orthogonalEdgeStyle;rounded=0;orthogonalLoop=1;jettySize=auto;html=1;exitX=0.5;exitY=1;exitDx=0;exitDy=0;" edge="1" parent="1" source="3PmMXT0CuhSYNfn3DO8X-1" target="3PmMXT0CuhSYNfn3DO8X-17">
          <mxGeometry relative="1" as="geometry" />
        </mxCell>
        <mxCell id="3PmMXT0CuhSYNfn3DO8X-42" style="edgeStyle=orthogonalEdgeStyle;rounded=0;orthogonalLoop=1;jettySize=auto;html=1;exitX=0.5;exitY=1;exitDx=0;exitDy=0;" edge="1" parent="1" source="3PmMXT0CuhSYNfn3DO8X-1" target="3PmMXT0CuhSYNfn3DO8X-18">
          <mxGeometry relative="1" as="geometry" />
        </mxCell>
        <mxCell id="3PmMXT0CuhSYNfn3DO8X-46" style="edgeStyle=orthogonalEdgeStyle;rounded=0;orthogonalLoop=1;jettySize=auto;html=1;exitX=0;exitY=0.5;exitDx=0;exitDy=0;entryX=0.5;entryY=1;entryDx=0;entryDy=0;" edge="1" parent="1" source="3PmMXT0CuhSYNfn3DO8X-1" target="3PmMXT0CuhSYNfn3DO8X-15">
          <mxGeometry relative="1" as="geometry" />
        </mxCell>
        <mxCell id="3PmMXT0CuhSYNfn3DO8X-50" style="edgeStyle=orthogonalEdgeStyle;rounded=0;orthogonalLoop=1;jettySize=auto;html=1;exitX=0.5;exitY=0;exitDx=0;exitDy=0;" edge="1" parent="1" source="3PmMXT0CuhSYNfn3DO8X-1">
          <mxGeometry relative="1" as="geometry">
            <mxPoint x="365" y="330" as="targetPoint" />
          </mxGeometry>
        </mxCell>
        <mxCell id="3PmMXT0CuhSYNfn3DO8X-1" value="Automation SorcererX" style="whiteSpace=wrap;html=1;aspect=fixed;" vertex="1" parent="1">
          <mxGeometry x="325" y="340" width="80" height="80" as="geometry" />
        </mxCell>
        <mxCell id="3PmMXT0CuhSYNfn3DO8X-3" value="settings.conf" style="shape=document;whiteSpace=wrap;html=1;boundedLbl=1;" vertex="1" parent="1">
          <mxGeometry x="445" y="230" width="120" height="80" as="geometry" />
        </mxCell>
        <mxCell id="3PmMXT0CuhSYNfn3DO8X-8" value="" style="group" vertex="1" connectable="0" parent="1">
          <mxGeometry x="165" y="90" width="150" height="110" as="geometry" />
        </mxCell>
        <mxCell id="3PmMXT0CuhSYNfn3DO8X-4" value="puppet/chef&lt;span style=&quot;color: rgba(0, 0, 0, 0); font-family: monospace; font-size: 0px; text-align: start; text-wrap: nowrap;&quot;&gt;%3CmxGraphModel%3E%3Croot%3E%3CmxCell%20id%3D%220%22%2F%3E%3CmxCell%20id%3D%221%22%20parent%3D%220%22%2F%3E%3CmxCell%20id%3D%222%22%20value%3D%22settings.conf%22%20style%3D%22shape%3Ddocument%3BwhiteSpace%3Dwrap%3Bhtml%3D1%3BboundedLbl%3D1%3B%22%20vertex%3D%221%22%20parent%3D%221%22%3E%3CmxGeometry%20x%3D%22160%22%20y%3D%22280%22%20width%3D%22120%22%20height%3D%2280%22%20as%3D%22geometry%22%2F%3E%3C%2FmxCell%3E%3C%2Froot%3E%3C%2FmxGraphModel%3E&lt;/span&gt;" style="shape=document;whiteSpace=wrap;html=1;boundedLbl=1;" vertex="1" parent="3PmMXT0CuhSYNfn3DO8X-8">
          <mxGeometry width="120" height="80" as="geometry" />
        </mxCell>
        <mxCell id="3PmMXT0CuhSYNfn3DO8X-5" value="puppet/chef&lt;span style=&quot;color: rgba(0, 0, 0, 0); font-family: monospace; font-size: 0px; text-align: start; text-wrap: nowrap;&quot;&gt;%3CmxGraphModel%3E%3Croot%3E%3CmxCell%20id%3D%220%22%2F%3E%3CmxCell%20id%3D%221%22%20parent%3D%220%22%2F%3E%3CmxCell%20id%3D%222%22%20value%3D%22settings.conf%22%20style%3D%22shape%3Ddocument%3BwhiteSpace%3Dwrap%3Bhtml%3D1%3BboundedLbl%3D1%3B%22%20vertex%3D%221%22%20parent%3D%221%22%3E%3CmxGeometry%20x%3D%22160%22%20y%3D%22280%22%20width%3D%22120%22%20height%3D%2280%22%20as%3D%22geometry%22%2F%3E%3C%2FmxCell%3E%3C%2Froot%3E%3C%2FmxGraphModel%3E&lt;/span&gt;" style="shape=document;whiteSpace=wrap;html=1;boundedLbl=1;" vertex="1" parent="3PmMXT0CuhSYNfn3DO8X-8">
          <mxGeometry x="10" y="10" width="120" height="80" as="geometry" />
        </mxCell>
        <mxCell id="3PmMXT0CuhSYNfn3DO8X-6" value="puppet/chef&lt;span style=&quot;color: rgba(0, 0, 0, 0); font-family: monospace; font-size: 0px; text-align: start; text-wrap: nowrap;&quot;&gt;%3CmxGraphModel%3E%3Croot%3E%3CmxCell%20id%3D%220%22%2F%3E%3CmxCell%20id%3D%221%22%20parent%3D%220%22%2F%3E%3CmxCell%20id%3D%222%22%20value%3D%22settings.conf%22%20style%3D%22shape%3Ddocument%3BwhiteSpace%3Dwrap%3Bhtml%3D1%3BboundedLbl%3D1%3B%22%20vertex%3D%221%22%20parent%3D%221%22%3E%3CmxGeometry%20x%3D%22160%22%20y%3D%22280%22%20width%3D%22120%22%20height%3D%2280%22%20as%3D%22geometry%22%2F%3E%3C%2FmxCell%3E%3C%2Froot%3E%3C%2FmxGraphModel%3E&lt;/span&gt;" style="shape=document;whiteSpace=wrap;html=1;boundedLbl=1;" vertex="1" parent="3PmMXT0CuhSYNfn3DO8X-8">
          <mxGeometry x="20" y="20" width="120" height="80" as="geometry" />
        </mxCell>
        <mxCell id="3PmMXT0CuhSYNfn3DO8X-7" value="Puppet/Chef" style="shape=document;whiteSpace=wrap;html=1;boundedLbl=1;" vertex="1" parent="3PmMXT0CuhSYNfn3DO8X-8">
          <mxGeometry x="30" y="30" width="120" height="80" as="geometry" />
        </mxCell>
        <mxCell id="3PmMXT0CuhSYNfn3DO8X-9" value="" style="group" vertex="1" connectable="0" parent="1">
          <mxGeometry x="415" y="85" width="150" height="110" as="geometry" />
        </mxCell>
        <mxCell id="3PmMXT0CuhSYNfn3DO8X-10" value="puppet/chef&lt;span style=&quot;color: rgba(0, 0, 0, 0); font-family: monospace; font-size: 0px; text-align: start; text-wrap: nowrap;&quot;&gt;%3CmxGraphModel%3E%3Croot%3E%3CmxCell%20id%3D%220%22%2F%3E%3CmxCell%20id%3D%221%22%20parent%3D%220%22%2F%3E%3CmxCell%20id%3D%222%22%20value%3D%22settings.conf%22%20style%3D%22shape%3Ddocument%3BwhiteSpace%3Dwrap%3Bhtml%3D1%3BboundedLbl%3D1%3B%22%20vertex%3D%221%22%20parent%3D%221%22%3E%3CmxGeometry%20x%3D%22160%22%20y%3D%22280%22%20width%3D%22120%22%20height%3D%2280%22%20as%3D%22geometry%22%2F%3E%3C%2FmxCell%3E%3C%2Froot%3E%3C%2FmxGraphModel%3E&lt;/span&gt;" style="shape=document;whiteSpace=wrap;html=1;boundedLbl=1;" vertex="1" parent="3PmMXT0CuhSYNfn3DO8X-9">
          <mxGeometry width="120" height="80" as="geometry" />
        </mxCell>
        <mxCell id="3PmMXT0CuhSYNfn3DO8X-11" value="puppet/chef&lt;span style=&quot;color: rgba(0, 0, 0, 0); font-family: monospace; font-size: 0px; text-align: start; text-wrap: nowrap;&quot;&gt;%3CmxGraphModel%3E%3Croot%3E%3CmxCell%20id%3D%220%22%2F%3E%3CmxCell%20id%3D%221%22%20parent%3D%220%22%2F%3E%3CmxCell%20id%3D%222%22%20value%3D%22settings.conf%22%20style%3D%22shape%3Ddocument%3BwhiteSpace%3Dwrap%3Bhtml%3D1%3BboundedLbl%3D1%3B%22%20vertex%3D%221%22%20parent%3D%221%22%3E%3CmxGeometry%20x%3D%22160%22%20y%3D%22280%22%20width%3D%22120%22%20height%3D%2280%22%20as%3D%22geometry%22%2F%3E%3C%2FmxCell%3E%3C%2Froot%3E%3C%2FmxGraphModel%3E&lt;/span&gt;" style="shape=document;whiteSpace=wrap;html=1;boundedLbl=1;" vertex="1" parent="3PmMXT0CuhSYNfn3DO8X-9">
          <mxGeometry x="10" y="10" width="120" height="80" as="geometry" />
        </mxCell>
        <mxCell id="3PmMXT0CuhSYNfn3DO8X-12" value="puppet/chef&lt;span style=&quot;color: rgba(0, 0, 0, 0); font-family: monospace; font-size: 0px; text-align: start; text-wrap: nowrap;&quot;&gt;%3CmxGraphModel%3E%3Croot%3E%3CmxCell%20id%3D%220%22%2F%3E%3CmxCell%20id%3D%221%22%20parent%3D%220%22%2F%3E%3CmxCell%20id%3D%222%22%20value%3D%22settings.conf%22%20style%3D%22shape%3Ddocument%3BwhiteSpace%3Dwrap%3Bhtml%3D1%3BboundedLbl%3D1%3B%22%20vertex%3D%221%22%20parent%3D%221%22%3E%3CmxGeometry%20x%3D%22160%22%20y%3D%22280%22%20width%3D%22120%22%20height%3D%2280%22%20as%3D%22geometry%22%2F%3E%3C%2FmxCell%3E%3C%2Froot%3E%3C%2FmxGraphModel%3E&lt;/span&gt;" style="shape=document;whiteSpace=wrap;html=1;boundedLbl=1;" vertex="1" parent="3PmMXT0CuhSYNfn3DO8X-9">
          <mxGeometry x="20" y="20" width="120" height="80" as="geometry" />
        </mxCell>
        <mxCell id="3PmMXT0CuhSYNfn3DO8X-13" value="Ansible" style="shape=document;whiteSpace=wrap;html=1;boundedLbl=1;" vertex="1" parent="3PmMXT0CuhSYNfn3DO8X-9">
          <mxGeometry x="30" y="30" width="120" height="80" as="geometry" />
        </mxCell>
        <mxCell id="3PmMXT0CuhSYNfn3DO8X-23" value="" style="edgeStyle=orthogonalEdgeStyle;rounded=0;orthogonalLoop=1;jettySize=auto;html=1;" edge="1" parent="1" source="3PmMXT0CuhSYNfn3DO8X-15" target="3PmMXT0CuhSYNfn3DO8X-16">
          <mxGeometry relative="1" as="geometry" />
        </mxCell>
        <mxCell id="3PmMXT0CuhSYNfn3DO8X-15" value="Settings" style="shape=process;whiteSpace=wrap;html=1;backgroundOutline=1;" vertex="1" parent="1">
          <mxGeometry x="165" y="240" width="120" height="60" as="geometry" />
        </mxCell>
        <mxCell id="3PmMXT0CuhSYNfn3DO8X-24" value="" style="edgeStyle=orthogonalEdgeStyle;rounded=0;orthogonalLoop=1;jettySize=auto;html=1;" edge="1" parent="1" source="3PmMXT0CuhSYNfn3DO8X-16" target="3PmMXT0CuhSYNfn3DO8X-3">
          <mxGeometry relative="1" as="geometry" />
        </mxCell>
        <mxCell id="3PmMXT0CuhSYNfn3DO8X-49" style="edgeStyle=orthogonalEdgeStyle;rounded=0;orthogonalLoop=1;jettySize=auto;html=1;exitX=0.75;exitY=0;exitDx=0;exitDy=0;" edge="1" parent="1" source="3PmMXT0CuhSYNfn3DO8X-16">
          <mxGeometry relative="1" as="geometry">
            <mxPoint x="500" y="190" as="targetPoint" />
          </mxGeometry>
        </mxCell>
        <mxCell id="3PmMXT0CuhSYNfn3DO8X-16" value="File IO" style="shape=process;whiteSpace=wrap;html=1;backgroundOutline=1;" vertex="1" parent="1">
          <mxGeometry x="305" y="240" width="120" height="60" as="geometry" />
        </mxCell>
        <mxCell id="3PmMXT0CuhSYNfn3DO8X-36" value="" style="group" vertex="1" connectable="0" parent="1">
          <mxGeometry x="365" y="467" width="120" height="161" as="geometry" />
        </mxCell>
        <mxCell id="3PmMXT0CuhSYNfn3DO8X-35" value="" style="edgeStyle=orthogonalEdgeStyle;rounded=0;orthogonalLoop=1;jettySize=auto;html=1;" edge="1" parent="3PmMXT0CuhSYNfn3DO8X-36" source="3PmMXT0CuhSYNfn3DO8X-18" target="3PmMXT0CuhSYNfn3DO8X-33">
          <mxGeometry relative="1" as="geometry" />
        </mxCell>
        <mxCell id="3PmMXT0CuhSYNfn3DO8X-18" value="Ollama" style="shape=process;whiteSpace=wrap;html=1;backgroundOutline=1;" vertex="1" parent="3PmMXT0CuhSYNfn3DO8X-36">
          <mxGeometry width="120" height="60" as="geometry" />
        </mxCell>
        <mxCell id="3PmMXT0CuhSYNfn3DO8X-33" value="" style="shape=image;verticalLabelPosition=bottom;labelBackgroundColor=default;verticalAlign=top;aspect=fixed;imageAspect=0;image=data:image/png,iVBORw0KGgoAAAANSUhEUgAABLAAAASwCAYAAADrIbPPAAAAAXNSR0IArs4c6QAAIABJREFUeF7s3Qm81dP+//H3ap5FkwxF0kBXKGPJPEumCBky+2e4buZwjSHp4ma8hpJcZJ5upDKFqEQkqUiDKKJ5Xv/z2Xfn16U6Z5+zh+/3u17r8TiPE32Hz+e5vp199tprfZYTDQEEEEAAAQQQiKmA9768pKqSqkmqkv6zfV/z50rpP9t3O66GpJrp/2ffq6/jPLuW/f9ya51bQZJdw77bPe36a5r92Y7dUFstaelaByxK/3mVpGXpL/uzHbMi/d3+vDj9Z/tux9l59rVwre92nP3dEknL1zrX/tv+bs11ljjn7B40BBBAAAEEEEAgdgIudhETMAIIIIAAAggkSsB7b4M/a3/ZANGa/24gaWtJW6S/GqW/bybJvjZJFEbuk/lF0ixJM9Nf36f/+ztJ0yT9JGmlJBtw+58v55z9Nw0BBBBAAAEEECiIAANYBWHnpggggAACCIQl4L232UuNJTVJf7c/26CUDUitmRFlM6TWzJ5a8724mU1hQeY+2zUzxdbM3Fozi8u+26wvG/Cyr+np71Mlfeecs5lfNAQQQAABBBBAIGcCDGDljJYLI4AAAgggkGwB770tp6snaVNJ9SXZbCn7sv9u+If/XzfZGsFnZzO7fpT0Q/rL/jw7/f9sVteaP//ITK7gnxUAEEAAAQQQKJUAA1ilYuMkBBBAAAEEki2QHpyyOlBWD8q+bJbUtpJaSdou/WX/XTHZEmSXZQGrwfW1pImSvkh/2X/b7C6b5WW1vhY552wZIw0BBBBAAAEEEPhdgAEsHgYEEEAAAQQCF0jXoLLBqDaSdpW0S3ppny3jq5wuXm5LAPm9IfBnJUfp+3TxeVuGaMXobfmiLVP8WNLo9Nc3zNzKkT6XRQABBBBAICYC/CIak44iTAQQQAABBMoi4L23JX02c6qZpG0kbZUugm7/35b9Wf0pGgJRFbBBLVuGaAXobZmiDXDZLK5vbEaXc87+Pw0BBBBAAAEEEizAAFaCO5fUEEAAAQTCEUjPorId+awmldWjsp37dpT0F0k7S6odjgaZBihgNbjGSxor6bP0jopz0rsq/uKcs6WLNAQQQAABBBCIsQADWDHuPEJHAAEEEAhTwHtvr9/2ZTv4HZL+OjBdqypMFLJGYP0CVldrhKQ3ipbJvpKeveWdc7Z0kYYAAggggAACMRFgACsmHUWYCCCAAAJhCnjvrQZVa0ntJO2WHrSyJX82y8qKrPNaHuajQdalE7BBqwWS5qZ3SPyuaAD4o/TXZ845q8FFQwABBBBAAIEICvBLbwQ7hZAQQAABBMIT8N5bwXRb9tckXafKBq3sq2W6kHp4KGSMQH4FbPDqy/TOiOMkTZI0VdK3zjmrwUVDAAEEEEAAgQIKMIBVQHxujQACCCAQnkB6+V+19Owpm0V1kKTDJXWQVCE8ETJGIPICNrD1YXr5oS1DtNpaiyQtZhli5PuOABFAAAEEEiTAAFaCOpNUEEAAAQSiKZAetGqfHqiyWlU2cFVLUk2WAEazz4gKgfUIrE4PXv2WLhA/rGizhBdtgIvBLJ4ZBBBAAAEEcivAAFZufbk6AggggEBgAt572+3Pdv/bKf19e0nbSaoaGAXpIhCSwBJJE9JLED+XNMZ2RHTOzQ8JgVwRQAABBBDIpQADWLnU5doIIIAAAokW8N7bUsCGkraUtG/RLIyDJbWVVD7RiZMcAgiURGCFpNGShhT9fHhH0kxJs5xztisiDQEEEEAAAQQyFGAAK0MwDkcAAQQQCFvAe19JUhdJ3STtIsn+22pX8Zoa9qNB9ghsSMB2P1wpaXl6x8PHJT3LYBYPDQIIIIAAAiUX4JftkltxJAIIIIBAYALpwardJFndql0lNZXUmGLrgT0IpItAbgRsQGuapMmSPpY0VNIo55wNctEQQAABBBBA4A8CDGDxSCCAAAIIIJAW8N5vKqlFun6VLQncO11sHSMEEEAgHwJWM+vdol1Jh0v6tGi250Tn3Ox83Jh7IIAAAgggEHUBBrCi3kPEhwACCCCQEwHvfTlJVSRtIuk4SeemB69ycj8uigACCJRSYKKkByQ9J+kXSUudc7YbIg0BBBBAAIGgBBjACqq7SRYBBBBAwHvfvGi3sOOLdgnrKGkzSfUlVUQGAQQQiLiAFYX/yQrBS3qlaMD9KefcNxGPmfAQQAABBBDImgADWFmj5EIIIIAAAlEU8N7/pWgXsN0ltS+qMdNOUhMKrkexp4gJAQQyFLDC8FY/68OiOn0jJX3gnPsiw2twOAIIIIAAArERYAArNl1FoAgggAACxQmklwXWSxdaP0bS6ZIaFHcef48AAggkROBHSQMkDZY0Q9Ic59yqhORGGggggAACgQswgBX4A0D6CCCAQBIEvPd1ipbVnFO0o1e3oloxVoi9uiSrcUVDAAEEQhSwGlmLJFkB+IeKZp4+7pyz5Yc0BBBAAAEEYivAAFZsu47AEUAAgXAFvPc1JR1RtGzmQEm7SLK6VtSxCveRIHMEENiwgNXP+krSWEn/sS/n3ALQEEAAAQQQiJMAA1hx6i1iRQABBAIV8N5XltSsqHBxG0nHSjpUUvlAOUgbAQQQKKuALSu0gSzb2XCMpK+dc8vLelHORwABBBBAIJcCDGDlUpdrI4AAAgiUWsB7bwNUVr+qR9HW8RdJqlDqi3EiAggggMCGBJZJujv99SN1s3hYEEAAAQSiKMAAVhR7hZgQQACBQAXSg1ZWfP1ESTuki7EzcBXo80DaCCCQd4GVkr6X9KmkpyS95Jyz5Yc0BBBAAAEECi7AAFbBu4AAEEAAgbAFvPdNJHUo2gr+4PTSwI3CFiF7BBBAIDICv6WXGr4h6R3n3LeRiYxAEEAAAQSCE2AAK7guJ2EEEECgsALeeyu2brsG7i3pqvRMK16PCtst3B0BBBAoTsCnZ2b1tsEsST8zO6s4Mv4eAQQQQCCbArxhyKYm10IAAQQQWK+A976upHMknS5pU0m2kyANAQQQQCB+AraD4WxJj0p62Dk3N34pEDECCCCAQNwEGMCKW48RLwIIIBAjAe/9X4q2bT8yvTywraSqMQqfUBFAAAEEihdYWrT8e5SkYZJecM59UfwpHIEAAggggEDmAgxgZW7GGQgggAAC6xHw3leStFV6eeD5RQWAdwILAQQQQCAogXGS7ksvM/yWZYZB9T3JIoAAAjkVYAArp7xcHAEEEAhDwHtvOwXa0sBrJG0uiZ0Dw+h6skQAAQTWJ2A7Gs6UdKukR5xz9t80BBBAAAEESi3AAFap6TgRAQQQCFvAe19D0mmSjpHURhK7B4b9SJA9AgggsD6BX9MF4J+TNMA5txAqBBBAAAEEMhVgACtTMY5HAAEEAhbw3teXtKekzpK6SCoXMAepI4AAAghkLrBC0lOSXpT0vnPup8wvwRkIIIAAAiEKMIAVYq+TMwIIIJCBgPe+iqTGkq6TdIKk8hmczqEIIIAAAgisT2CVpEGSekma5pyzgvA0BBBAAAEE1inAABYPBgIIIIDAOgW89zZodamkw4q2Sd+i6A2GFWinIYAAAgggkG2B5ZJmSBoiqbdzblq2b8D1EEAAAQTiL8AAVvz7kAwQQACBrAl4722gqlO6rtVekipm7eJcCAEEEEAAgeIFbInh+5JekPS8c84KwdMQQAABBBAQA1g8BAgggEDgAt77WpJaSrokXduKulaBPxOkjwACCERI4GlJfSRNcs7Nj1BchIIAAgggkGcBBrDyDM7tEEAAgagIeO9rFxVhv1HSKZJqUtsqKj1DHAgggAACfxCwWlkLJA20eozOOdvVkIYAAgggEJgAA1iBdTjpIoBA2ALeexuoOlnSsZLaSaoatgjZI4AAAgjETGCxpA8kPWsF4J1zC2MWP+EigAACCJRSgAGsUsJxGgIIIBAXAe99ZUl/kXR8UZHcsyRtHJfYiRMBBBBAAIENCMwr2iX3saJl8LbM8DPn3DK0EEAAAQSSK8AAVnL7lswQQCBgAe+9/Xy3AuxHSOpb9Au+7ShIQwABBBBAIKkC0yX9VdKrklY453xSEyUvBBBAIFQBBrBC7XnyRgCBxAp472221WWS9pO0mcSGHYntbBJDAAEEEFhbwAatbNfC9yT1ds6NgwcBBBBAIDkCDGAlpy/JBAEEAhbw3teTdLikrpL2oSB7wA8DqSOAAAIImMBKSe9IGiBpiHNuDiwIIIAAAvEWYAAr3v1H9AggELCA976CpIaSzpN0YXonwYBFSB0BBBBAAIF1Cljh9zskPSpplnPOBrdoCCCAAAIxE2AAK2YdRrgIIICACXjvbZZV76LCtS0l1UAFAQQQQAABBIoVsIGsz4peRv/unBta7NEcgAACCCAQKQEGsCLVHQSDAAIIrF/Ae2+zrU6X1FlSa0nl8EIAAQQQQACBjAVWpweynrElhs65HzK+AicggAACCORdgAGsvJNzQwQQQKDkAt5720lwe0mnFi17OKdoCUT1kp/NkQgggAACCCBQjMCiog1PHpLUX9JXzrkViCGAAAIIRFOAAaxo9gtRIYAAArZM0GZZDUwPYDHbimcCAQQQQACB3AnYrKwvJZ3pnPskd7fhyggggAACpRVgAKu0cpyHAAII5EDAe1+raAvwsyWdIqkVuwnmAJlLIoAAAgggsH4BK/D+laQnJPVzzlndLBoCCCCAQAQEGMCKQCcQAgIIhC3gvbefxc0knZjeUbBB2CJkjwACCCCAQCQEfpR0X9FM6MHOORvUoiGAAAIIFFCAAawC4nNrBBAIW8B7X16SFWbvmy7MHjYI2SOAAAIIIBBdgeckXSzpR+eczdKiIYAAAgjkWYABrDyDczsEEEDABLz3B0jqLWk7SZVRQQABBBBAAIHICyyVNFFSD+fc8MhHS4AIIIBAwgQYwEpYh5IOAghEV8B7XyM908pqXO0uiZ/B0e0uIkMAAQQQQGBDAh9KeqyoBMCTzjnbyZCGAAIIIJBjAd485RiYyyOAQNgC6fpW9SUdlp5xVTdsEbJHAAEEEEAgUQIzJd0o6QXn3JxEZUYyCCCAQMQEGMCKWIcQDgIIJEfAe29LA/8u6QJJNvuKn7nJ6V4yQQABBBBAYI2AL1pWuEDSvyRdx86FPBgIIIBAbgR4M5UbV66KAAIBC3jvN0sPXHWSxI6CAT8LpI4AAgggEJzAbElW8P1O59y3wWVPwggggEAOBRjAyiEul0YAgbAEvPc7STqjaIei8yXZDoM0BBBAAAEEEAhX4J82K8s5Nz5cAjJHAAEEsifAAFb2LLkSAggEKOC9LyfJ6lo9LungAAlIGQEEEEAAAQQ2LPCmpNOLPuD60Tm3GiwEEEAAgdIJMIBVOjfOQgABBOS9byPpFkl7Fi0VqAkJAggggAACCCCwHoElkt6VdKVzbhxKCCCAAAKZCzCAlbkZZyCAQMAC6V0F90sXZj9CUoWAOUgdAQQQQAABBDITWJGukdVP0kfOuVWZnc7RCCCAQLgCDGCF2/dkjgACGQh47ysWLRNsIukBSftkcCqHIoAAAggggAAC6xIYLulCSd8452xgi4YAAgggsAEBBrB4PBBAAIFiBLz3O6a3xm5dtGTQBrJoCCCAAAIIIIBANgSWS7Ilhec758Zm44JcAwEEEEiqAANYSe1Z8kIAgTIJpJcK7ivpEkkHSqpcpgtyMgIIIIAAAgggsH6BpZJeK6qpeadz7kOgEEAAAQT+LMAAFk8FAggg8AcB7/1OknpKOhYcBBBAAAEEEEAgzwLPSLrNOfdpnu/L7RBAAIFICzCAFenuITgEEMingPe+rqTBkvaWxM/HfOJzLwQQQAABBBBYW8CnlxYe4pz7CRoEEEAAAd6g8QwggAAC8t43sin7kg4u+l4TEgQQQAABBBBAICICCyS9Iukq59z3EYmJMBBAAIGCCDDDoCDs3BQBBKIg4L1vLulMSRdLqhSFmIgBAQQQQAABBBBYh4DtUthP0n3OuckIIYAAAiEKMIAVYq+TMwIBC6SLs9eW9DdJV0qqEDAHqSOAAAIIIIBAvARWSuotqY9zbl68QidaBBBAoGwCDGCVzY+zEUAgRgLe+3KSrpP0/4o+xbR6V/wMjFH/ESoCCCCAAAII/C5gdbHuL/og7mbnnA1q0RBAAIHEC/DmLfFdTIIIIOC9r7LWUsFtEUEAAQQQQAABBBIi8I2kuyT1d84tTkhOpIEAAgisU4ABLB4MBBBIrID3vrKkDpLulcTAVWJ7msQQQAABBBAIXmCCpEskve2cWx68BgAIIJBIAQawEtmtJIUAAt77LSWNKPpEcitJ5RFBAAEEEEAAAQQSLrBa0hRJhzvnbGYWDQEEEEiUAANYiepOkkEAAe/99kUK10vqJKkiIggggAACCCCAQGACtmPhy5Kudc59FVjupIsAAgkWYAArwZ1LagiEJOC931zS+enp89VCyp1cEUAAAQQQQACBdQgskXS7pEecczMQQgABBOIuwABW3HuQ+BEIXMB7X0nSaemdeFgqGPjzQPoIIIAAAggg8CcBm5F1kaRHqY/F04EAAnEWYAArzr1H7AgELuC9PzL9yWIzSeUC5yB9BBBAAAEEEEBgfQJWH2uSpKuccy/ChAACCMRRgAGsOPYaMSMQuID3fk/7BUzSEYFTkD4CCCCAAAIIIJCpwCuSbpX0kXPOZ3oyxyOAAAKFEmAAq1Dy3BcBBDIW8N43kHRNutYVywUzFuQEBBBAAAEEEEAgJbBKUj+bye6c+wETBBBAIA4CDGDFoZeIEQEE5L2/XNLVkjaCAwEEEEAAAQQQQCArAvMl3eCc65uVq3ERBBBAIIcCDGDlEJdLI4BA2QS89/YzqlN61tXORb9g8TOrbKScjQACCCCAAAII/FHAlhGOk3STc+4FeBBAAIGoCvBmMKo9Q1wIBCyQHrhqUURwvaTjA6YgdQQQQAABBBBAIJ8Cz6R//5pIfax8snMvBBAoiQADWCVR4hgEEMibgPfealvZwJUVaafOVd7kuRECCCCAAAIIIJASsB0Lb5J0s3NuJSYIIIBAVAQYwIpKTxAHAghYnasukm6UtC0cCCCAAAIIIIAAAgUVmGQfKjrn/l3QKLg5AgggkBZgAItHAQEECi7gvd/BfkGSdCSzrgreHQSAAAIIIIAAAgisEbD6WM/bB4zOuc9hQQABBAopwABWIfW5NwKBC3jva0q6OD1NPXAN0kcAAQQQQAABBCItcF3RbtD/cM4tjHSUBIcAAokVYAArsV1LYghEW8B7f4CkhyU1YnfBaPcV0SGAAAIIIIAAApJsNtY0SWc450YgggACCORbgAGsfItzPwQCF/DeN0/XuTqu6Hu5wDlIHwEEEEAAAQQQiKOA7VZ4nXPu6zgGT8wIIBBPAQaw4tlvRI1A7AS89zUkdZb0T0nVY5cAASOAAAIIIIAAAgisLWBLCXtIepJlhTwYCCCQDwEGsPKhzD0QCFzAe7+9pFclbRU4BekjgAACCCCAAAJJE/he0iHOua+Slhj5IIBAtAQYwIpWfxANAokS8N7XknRXeuaVzcCiIYAAAggggAACCCRPYJGkp2xGlnPut+SlR0YIIBAFAQawotALxIBAwgS891bb6ijbqSZdpD1hGZIOAggggAACCCCAwDoEvpN0maTnnXOrEUIAAQSyKcAAVjY1uRYCCMh7v7Gk5yTtCwcCCCCAAAIIIIBAkALDJB3vnPslyOxJGgEEciLAAFZOWLkoAmEKeO+7F2V+vaS6YQqQNQIIIIAAAggggEBaYK6km5xz9yCCAAIIZEOAAaxsKHINBAIX8N7vIOlOSQcETkH6CCCAAAIIIIAAAv8rMETSFc65z4FBAAEEyiLAAFZZ9DgXgcAFvPc1JZ1SNOOqnyR+ngT+PJA+AggggAACCCCwHgEv6eKi2qiPOues4DsNAQQQyFiAN5wZk3ECAgiYgPe+saT/FO0404LBK54JBBBAAAEEEEAAgWIEbBDrC0kdnXPT0EIAAQQyFWAAK1MxjkcgcAHvfXVJPdOfolULnIP0EUAAAQQQQAABBDITWCzpPkk3OucWZHYqRyOAQMgCDGCF3PvkjkAGAt57+3nRVtI/i2Ze7ZbBqRyKAAIIIIAAAggggMAfBcZIukDSKOeczc6iIYAAAhsUYACLBwQBBIoV8N6Xl3SzFeBkuWCxXByAAAIIIIAAAgggUDKB1ZJ6S7rOObeiZKdwFAIIhCrAAFaoPU/eCJRQwHu/i6R/SWpdwlM4DAEEEEAAAQQQQACBTARsh8Luzrn3MzmJYxFAICwBBrDC6m+yRaDEAt77Guk6V1dKsj/TEEAAAQQQQAABBBDIlYDVxrpN0j+ccwtzdROuiwAC8RVgACu+fUfkCORMwHu/XdGMqxckNcvZTbgwAggggAACCCCAAAJ/FrCdCo91zk0CBwEEEFhbgAEsngcEEPhdwHtfzmoQSOrBrCseDAQQQAABBBBAAIECCdgMLNs46BrnnNXJoiGAAAJiAIuHAAEEUgLe+1aS7pG0d9G2xjaQRUMAAQQQQAABBBBAoFACNnA1wkpaOOe+LFQQ3BcBBKIjwABWdPqCSBAoiEB6h8FT0oNXNQsSBDdFAAEEEEAAAQQQQGDdAoskXSSpP7OxeEQQCFuAAayw+5/sAxfw3teS9LakHSVmZAb+OJA+AggggAACCCAQVQEvyWpjtXfOzY9qkMSFAAK5FWAAK7e+XB2ByAp470+QdIekLSMbJIEhgAACCCCAAAIIIPB/AtMkXeacGwwKAgiEJ8AAVnh9TsaBC3jvaxfNtrpB0gXUugr8YSB9BBBAAAEEEEAgfgJWG+s+23jIOTcvfuETMQIIlFaAAazSynEeAjET8N7bv/e/SBpa9KJfP2bhEy4CCCCAAAIIIIAAAmsL/CRpf0lfOudsiSENAQQSLsAAVsI7mPQQMIH04NWN6QKYVveKhgACCCCAAAIIIIBA3AUWSLqr6NfdvzOIFfeuJH4EihdgAKt4I45AINYC3vttJPWTdDCF2mPdlQSPAAIIIIAAAggg8GcBm331H0kXO+cmA4QAAskVYAAruX1LZoELpGddHSFpoKSNAucgfQQQQAABBBBAAIFkC/wmqauk151zVieLhgACCRNgACthHUo6CJiA976SpAFF2w0fJ6kCKggggAACCCCAAAIIBCCwUtKzkk5zzi0PIF9SRCAoAQawgupukg1BwHvfRtKDknZmyWAIPU6OCCCAAAIIIIAAAn8QGC3pPOfcGGQQQCA5AgxgJacvySRwAe99eUmnSLpbEoXaA38eSB8BBBBAAAEEEAhcYKGkC62chnNuVeAWpI9AIgQYwEpEN5JE6ALe+2qSnpF0eOgW5I8AAggggAACCCCAwFoCr0k63jm3GBUEEIi3AANY8e4/okfA6l3tIelRSS3gQAABBBBAAAEEEEAAgT8JTJR0unNuFDYIIBBfAQaw4tt3RB64QLpQ+1mSbmXJYOAPA+kjgAACCCCAAAIIFCcwX9LVkh52zi0r7mD+HgEEoifAAFb0+oSIEChWwHtfW9K9kk4q9mAOQAABBBBAAAEEEEAAgTUCgyRd4Jz7FRIEEIiXAANY8eovokXAlgxuK2mIpCZwIIAAAggggAACCCCAQMYCU612rHPOlhbSEEAgJgIMYMWkowgTgfQug+dJ6sWSQZ4HBBBAAAEEEEAAAQTKJLBmSeH9zrnVZboSJyOAQF4EGMDKCzM3QaBsAt77TdK1rs4p25U4GwFp/vz5mjlzpqZPn65Ro0ZpzJgxmjJliubMmaMFCxZo8eL/btJTvnx5Va1aNfVVo0YN1a5dW3Xr1tUmm2yizTffXA0aNFCjRo206aabqmbNmqpVq5Y22mij1HGVKlWCGgEEEEAgYIFVq1Zp7ty5qdcW+z5t2jRNnjxZU6dO1axZs/TTTz9p3rx5WrhwYep1x463VqVKFVWvXl116tRR/fr11bBhQ2299dZq3ry5mjRpknodqlevXuq7vU7REMiCwINWG8s590sWrsUlEEAghwIMYOUQl0sjkA0B731VSV9K2job1+MaYQqsXLlSr7zyiv7xj3/oww8/1OrVq1Nf2WrOOa35qlixolq3bq2jjz5aXbp0UePGjbN1G66DAAIIIBBxgffff1+PPvqonn/++dTglPc+a683a7/W2AcnxxxzjLp166Y999xT5cqVi7gM4UVcwJYUtnLOLYl4nISHQNACDGAF3f0kH3UB7/3xkuxTISvaTkMgIwH7hPuhhx7Sm2++qS+//DI18yrfzd5s2KfnLVu21PHHH6+TTz459ck6DQEEEEAgGQIjR47Uk08+mZrRa7N5f/01/3WxN954YzVt2lTt27fXKaecoh133DH1oQoNgQwF5kk6zzn3TIbncTgCCORJgJ/seYLmNghkIuC9t/VXN0i6XBIfKWaCF/ixs2fP1tChQzVo0CC98cYbkdOwT8xtVlbnzp1TbzRseSINAQQQQCA+Ajaj15aeDxkyRAMHDkwNWkWt2Sxg+8DkkEMO0fbbb8/srKh1ULTjsenpvSX93Tm3PNqhEh0C4QkwgBVen5NxxAW893UlvSWpdcRDJbyICFjdEBu4uv3223XvvfdmbalGrtOzGia2pPHII49M1dCiIYAAAghEV8CWA9psq4svvlhff/11dAP9Q2Tt2rXTPffckxrIqly5cmziJtCCC3wmaX/n3M8Fj4QAEEDgdwEGsHgYEIiQgPe+vaSnJW0WobAIJcICn376qS666CKNGzcuVWskjs2KwJ9wwgnq3bs3xd/j2IHEjAACiRZYvny5rrvuutRsK1uaHsdWoUIFNWvWTH/72990+umnU/w9jp1YmJjtge/snPugMLfnrggg8EcBBrB4JhCIgID33pYJnl+08dtNkjaOQEiEEHEBK8hunyi/9ZZN1ktGsxlZ5557rs4777zULoc0BBBAAIHCCdhutXfddVeqIPsvvyRnczZbXnjppZeqa9euhcPYpR3lAAAgAElEQVTlznESsLpY10q63zmXvd1v4iRArAhESIABrAh1BqGEKeC9t7VTNnB1UVHdK/5NhvkYlChrWyo4fvx49ejRQ8OHDy/ROXE8qHbt2rrjjjt04oknUvA9jh1IzAggEGuB3377LTXbqmfPngXZ/CNfeDYj6/HHH1ebNm1kM7RoCGxAwEvqJ6mnc24BUgggUDgB3iwXzp47I2BbS9tsKxuJ2BEOBDYksGzZslTx89dee00rVqxIPJbtHlWrVq1Uvla/hIYAAgggkHuB119/PfXhwYIFC+x3lNzfsMB3qFixYqrQ++DBg6mPVeC+iMntx0g6mLpYMektwkykAANYiexWkoqDgPe+g6THJDWJQ7zEWBiBpUuXppZw3HnnnZo7d25hgijgXStVqqSjjz5ad999txo0aFDASLg1AgggkFyBqVOnpuop/uc//4nNRiDZ7I2GDRvqyiuv1AUXXMCOhdmETea1pkrq5px7N5npkRUC0RZgACva/UN0CRTw3ts89VOKCrU/JIk56wns42ylZIXZbbend9/ldyTbpbBfv36pYu/sIpWtJ4zrIIBA6AKLFi3SgAEDUsXNbaZv6M12xe3Tp4+23Xbb0CnIf8MCKyWdLWmQcy750+J5GhCIkAADWBHqDEJJvoD3vrykvul6V8lPmAxLJWC1ru67777UG4qVK+13JNoagSOOOELPPvssg1g8EggggEAZBebPn59aPvfhhx+W8UrJOr169eoaOnSodtttN2ZjJatrc5HNPZL+5pxblYuLc00EEPizAANYPBUI5EnAe19L0stFNa9s6SD/9vLkHrfb/Pjjj6n6IyNGjIhb6HmLd8stt9SgQYO011575e2e3AgBBBBIksDTTz+dWi4X4tL0kvRjuXLldMYZZ+j++++nwHtJwMI9xgrF2TT5w51zi8JlIHME8ifAm+j8WXOngAW8920kPSWpacAMpL4BASuWa0sF7Rdmq0VCK17ghhtu0GWXXaaqVasWfzBHIIAAAgikirNfc801uucemzhCK07ANhF54okntNVWWxV3KH8ftsBkSV2cc1bknYYAAjkUYAArh7hcGgET8N4fJulpSTUQQWBdArZM0HZAOvXUU1kymOEjcuihh+rJJ59U7dq1MzyTwxFAAIGwBH766SfZMuxPPvkkrMTLmG2VKlVSs6JtSaHtkEtDYD0CiyV1ds69jhACCOROgJ/CubPlyoELeO/t39eVRQzXS6oUOAfpb0DAal3Zp+FW+4qWuYDtHjVy5EhtvfXWmZ/MGQgggEAAAp999pn2339//fzzzwFkm/0UbfOQf/zjHzr//POzf3GumCSB5enf+29zztnyQhoCCGRZgAGsLINyOQRMwHtfXdI/bZtdRBBYn4Dt+HT66afLapHYEkJa6QUaNGigRx55RIcffnjpL8KZCCCAQAIFbAlc9+7dZUXbaaUXsEGsv/71r7r55pupi1V6xlDOfEzShdTFCqW7yTOfAgxg5VObewUh4L3fVNLjkg4MImGSLJXAnDlz1K1bN7322mulOp+T/ixgO0c99thjOvbYY9k5igcEAQSCF7BZvQ8++KAuvvhilqdn6WmwJYQ2iGU1GGvWrJmlq3KZhAoMl9TVOfdDQvMjLQQKIsAAVkHYuWlSBbz3mxWtf/9SEgV5ktrJWchrxYoVatOmjcaPH5+Fq3GJtQVs56j+/fvrlFNOAQYBBBAIWuCqq67SbbfdFrRBrpLv1KmTXnzxxVxdnusmR2Be0SZOLZxzPyUnJTJBoLACDGAV1p+7J0jAe99Rkk0ZrpOgtEglywLLly/XXnvtpY8//jjLV+ZyawTsE/KePXvqpptuAgUBBBAIUsBmCd19991B5p6vpG0Tkddfp153vrxjfB8rPHemc+6lGOdA6AhERoABrMh0BYHEVSBdrP1sSf+QVC2ueRB37gVmz56tgw46iJlXuadO3cGK49955515uhu3QQABBKIhYIXGH3jggWgEk/AoOnTooBdeeEGbbLJJwjMlvTIK2A6FPSQ9SHH3MkpyevACDGAF/wgAUBYB773tLmi7DNpug/x7Kgtmws9duHCh9t13X40ePTrhmUYrvUsuuUS9e/em4G60uoVoEEAgBwK2PN0Gr2xDC1r+BA455BA9//zzqlq1av5uyp3iKGC79dwh6VrnnO1WSEMAgVII8Ia7FGicgoAJeO8rSHpO0pGIIFCcQMeOHfXqq68Wdxh/nwOBq6++WrfccksOrswlEUAAgegI2ID9XXfdFZ2AAorEXuNffvnlgDIm1TII2C+DRzvnVpbhGpyKQLACDGAF2/UkXhYB731dSc9L2qss1+Hc5AtYzauuXbtq8ODByU82whnefvvtuvzyyyMcIaEhgAACpRewn2933GGTO2iFEjj++OP1+OOPq3LlyoUKgfvGR+A9SUc5536JT8hEikA0BBjAikY/EEWMBLz320l6l2LtMeq0AoVqW5jfeOONqWLi3tvMcVqhBMqXL6+HHnpIp59+umynQhoCCCCQBAF7nbGfbd27d+d1psAdahuIXHPNNbr22mtVsWLFAkfD7WMgYMXdOzjnJsQgVkJEIDICDGBFpisIJA4C3vt2RbOuhkni47U4dFiBY3zwwQdT9UgYvCpwR6Rvb28ohg4dqr333jsaAREFAgggUEaBN998U4cddphsIItWeAEbxLLdHy+88MLCB0MEcRBYKukg55zNyKIhgEAJBBjAKgEShyCQ3mnwjHTxxY0RQaA4gTfeeEO2nGD+/PnFHcrf51GgZs2aeu2117TXXqz+zSM7t0IAgRwIDBkyRMccc4yWLFmSg6tzydIKVKtWTQMGDNBxxx1X2ktwXlgCtozQahw8yg6FYXU82ZZOgAGs0rlxVkAC3nubB36epD6SbNdBGgIbFJg1a5Z23XVXzZw5E6kICjRp0kTDhg3TVlttFcHoCAkBBBAoXmDKlCnq0KGD7PWGFj2B+vXra9SoUbzORK9rohqR7Up4maT7nXMrohokcSEQBQEGsKLQC8QQWQHvffmi5YK3pl9UIhsngUVHYNGiRWrZsqWmT58enaCI5E8C22+/vcaMGUOxXZ4NBBCInYDNuGrdurW++eab2MUeUsDVq1dP/S6w8cZM3A+p38uYq+3EcJVzjjXBZYTk9OQKMICV3L4lsywIeO+fltRZEv9WsuAZwiUuuOAC3XvvvSGkGuscrU7JoYcemtr23Aq80xBAAIE4CCxdulRHHHFEahYpLfoCnTt31jPPPBP9QIkwKgK248+zRYXdj49KQMSBQNQEeFMetR4hnkgIeO/rSXrCCitGIiCCiIVA//791a1bt1jESpD/FejTp4969OgBBwIIIBALgV69eqlnz56xiJUg/ytw22236YorroADgUwE3pTU1Tk3J5OTOBaBEAQYwAqhl8kxIwHv/aaS3pK0fUYncnDQAj/++KNatWqluXPnBu0Qt+TLlSsn28Vr//33j1voxIsAAoEJ2AYUNvuKFi8BK+o+duxYNW/ePF6BE22hBb6UdKBz7odCB8L9EYiSAANYUeoNYim4QHrw6iNJjQseDAHERmDx4sXaaaedNGnSpNjETKD/J9CoUSNNnTqVpYQ8FAggEFmBZcuWaeutt9YPP/BeNrKdtIHANt10U02YMIF6WHHsvMLG/L2k3ZxzswsbBndHIDoCDGBFpy+IpMAC3vtdJL0oabMCh8LtYyZw44036vrrr5f3VrqAFkeBPffcU0OHDpV9Uk5DAAEEoiSwcOFC7bvvvho9enSUwiKWDAWsxMAjjzwiq8FIQyADARu1Pso593EG53AoAokV4CdoYruWxDIR8N5bratXJVXM5DyORWD48OEsP0vAY2BvKO6++25deOGFCciGFBBAICkC9sHIHXfcoSuvvJIPSRLQqQMHDlTXrl0TkAkp5FlghaTDnXND83xfbodA5AQYwIpclxBQvgW897bTh+02SEMgIwF7Y7HDDjvoiy++yOg8Do6uwLvvvqu99torugESGQIIBCXAhyTJ6u66detqxowZqly5crISI5t8CXRxzvGeJV/a3CeSAgxgRbJbCCpfAt778yTdKYl1Q/lCT8h9Vq9erfPOO0//+te/EpIRaZjAjjvuqDFjxsiKu9MQQACBQgqsWLFCbdq00fjx4wsZBvfOssChhx6qV155hbqLWXYN5HKLJfVwzj0QSL6kicCfBBjA4qEIUsB7b+9ObU/jXkECkHSZBewNxR577KFFixaV+VpcIFoCZ511lh544AHeXESrW4gGgaAEVq1apbPPPluPPfZYUHmHkGzFihX16quv6qCDrHoFDYFSCVwj6Vbn3OpSnc1JCMRYgAGsGHceoZdOwHtfXtLNkq4s3RU4K3SBJUuWqGnTppo1a1boFInMv1KlSvr444/VunXrROZHUgggEH2BcePGadddd5XNwqIlT8BeZ77//ns1aNAgecmRUb4E7EP465xzq/J1Q+6DQBQEGMCKQi8QQ94EvPeVJA2UdEzRIFaFvN2YGyVK4K677tIll1ySqJxI5n8FrE7JxIkTVadOHWgQQACBvAr88ssvatasmX7++ee83peb5Vfg4osvlv0+QUOglAIrJb0k6STn3PJSXoPTEIidAANYsesyAi6tgPe+uqR7JHWTxLNfWsjAz5s8ebJ22WUX/frrr4FLJD/9nj176uabbbImDQEEEMifwBVXXKHevXvn74bcqSACtpRw2LBhbBxSEP3E3NRLsnXGFznnqGmRmG4lkQ0J8Cae5yMIAe99TUkPS7IdB2kIlFrgqKOO0ksv2QdetKQLVKhQQR999FGqiDINAQQQyIeALV9u166dVq60yRW0pAvsvvvu+uCDD+Qcb8mS3tc5zu8ZSWc55xbk+D5cHoGCC/DTsuBdQAC5FkgvGxwpqW2u78X1ky3wxRdfpHaps+K6tDAEbLadvaGkIYAAAvkQsLpXn3zyST5uxT0iIGADVwMHDtTJJ58cgWgIIeYCoyW1YzlhzHuR8IsVYACrWCIOiLOA976epGcl7cWywTj3ZOFj/+2339SqVSvNmDGj8MEQQd4Eypcvr/vuu0/nnHNO3u7JjRBAIEwB+1lz4YUXavVqNhYL6QmoUaOGJk2apIYNG4aUNrlmX8CWE74n6Vjn3NzsX54rIhANAQawotEPRJEDAe/95umC7fvm4PJcMjCBAQMGqFu3bvLefj+ghSRgSwmnTJmiRo0ahZQ2uSKAQB4FbEe6rbbaiteYPJpH6VbXXXedbrjhhiiFRCzxFRgh6RTn3Mz4pkDkCKxfgAEsno5ECnjvq0oaI6llIhMkqbwK2I5QNnixaBH1MfMKH6GbXXTRRandoqhTEqFOIRQEEiRgO9Ldc4/tM0MLVWDChAlq2ZJfW0Pt/yznPVHSzs65JVm+LpdDoOACDGAVvAsIINsC3vvNJL0vaetsX5vrhSnAjlBh9vvaWdssrOHDh7NbFI8CAghkXeDtt9/WgQceSOH2rMvG64JWB+uJJ56IV9BEG2WBbyW1d87NinKQxIZApgIMYGUqxvGRFvDeN5U0WNKOkQ6U4GIjMHfuXLVo0UI///xzbGIm0NwI2BvMN998MzcX56oIIBCswAEHHKBhw4YFmz+J/1egSpUqGjt2LLOweCCyKTBOUmfn3ORsXpRrIVBIAQawCqnPvbMq4L1vIOltSS2yemEuFqyAFdI97bTT+EQ02Cfgz4m/9tprOuywwxBBAAEEsiLwxhtv6JBDDsnKtbhI/AVsF8qRI0fKZv3SEMiSgC0n3Mc592OWrsdlECioAANYBeXn5tkS8N5vIsk+ZdgyW9fkOgjMmjVLzZo1o/YVj8LvAltssYWsTknNmjVRQQABBMoksHDhwtQM35kzqbVcJsgEnWwDV59++mlq12MaAlkUmG6rU5xzv2TxmlwKgYIIMIBVEHZumk0B731rSS9Q8yqbqlzLBDp37qxnn30WDAR+FyhXrpxsR8quXbuiggACCJRJ4LHHHtNZZ50lm+1LQ2CNQNu2bfXhhx8yC4tHItsC0yR1cs59lu0Lcz0E8inAAFY+tblX1gW897Zdy2sMXmWdNvgLjh49WrvsskvwDgD8WaBWrVqaPHmy6tWrBw8CCCBQKgGrq9ikSRPNnz+/VOdzUrIFXn/9dR166KHJTpLsCiFghd0Pd859VYibc08EsiHAAFY2FLlGQQS899UlTZFkta9oCGRV4Mwzz9Sjjz6a1WtyseQI3HrrrbryyiuTkxCZIIBAXgV69+4t2+GWhsC6BA4++GANGTIEHARyIWC1sLZxzi3KxcW5JgK5FmAAK9fCXD8nAumZVyMYvMoJb/AXnTp1qrbbbjstW7YseAsA1i3QsGFDTZkyRVWrVoUIAQQQyEhgwYIFatq0qX766aeMzuPgcATKly+vt99+W+3btw8naTLNp4ANYu3LTKx8knOvbAkwgJUtSa6TNwFqXuWNOtgbnXLKKew8GGzvlzzxq666Sr169Sr5CRyJAALBC3jvdckll+juu+8O3gKADQvYEkLb+dY53q7xrOREwJYTHk1NrJzYctEcCvATMYe4XDr7AundBsdKapz9q3NFBKTFixerUaNGsvokNAQ2JGA7Ek6aNIlZWDwmCCBQYoFFixalZl/Nnj27xOdwYJgCVapU0YwZM1SnTp0wAcg6HwLfS9qJ3QnzQc09siXAAFa2JLlOzgW891br6hNJW+b8ZtwgWIHLL79cd9xxR7D5rytxG9CzJS/z5s3DZS0B+1T89ttv12WXXYYLAgggUCKB66+/XjfccEOJjg3poNq1a6t69eqaOXNmSGkXm2unTp304osvFnscByBQBoHpRRti7eKcs2WFNAQiL8AAVuS7iABNwHvfJL3bYAtEEMiVgP3ivNVWW2nlypW5ukWsrrvbbrvJCg23a9dOy5cv1/PPP6+//e1v1G1ZqxcrV64sq5m22WabxapvCRYBBPIvMGvWrNTOg9RX/D/7unXr6p577tHRRx+tihUr6v3339ell14q2wmY9l+Br7/+Ws2aNYMDgVwKTJTU0Tk3OZc34doIZEOAAaxsKHKNnAp47+2d4WuSdszpjbh48AIPP/ywzj777OAdbGbRWWedpX79+qlSpUr/4zFnzpzUG42RI0cG77QGwGrZXHTRRXgggAACGxR44IEHdP7556OUFrAPR1566aU/LZGzD5HOOecc9e/f3z7ADN7rlltu0dVXXx28AwA5FxhXtNLlcOfcrJzfiRsgUAYBBrDKgMepuRfw3tsWX19K2jr3d+MOoQs0btxY339v5QDCbeXKldPAgQN14oknrrdw7KpVq3Taaadp0KBB4UKtlbnNvpo+fbrMjoYAAgisS2DFihWy3Uupr/hfnZNPPlkDBgyQ7ba3rmYDV4MHD069Fq1evTroh6pmzZr68ccfqbcY9FOQt+StsPv2zrklebsjN0IgQwEGsDIE4/D8CXjvN5f0liSWDeaPPdg7Pfnkk6lfqENuFSpU0L/+9a/U4FRxux4tXbpUN998s2699dbg31zYM9O3b9/UzmI0BBBAYF0C9913n7p37x48jg302w6uPXv2LHZAxgaxbJDLZkaHvrSfmb7B/9PJJ8BXkg50zlGQLp/q3KvEAgxglZiKA/Mp4L2vK+kZSfvm877cK1yBAw44QMOGDQsWwAas/vnPf2b0BsveXPz1r39NnRf6Mo+2bdvqk09sjwkaAggg8GeBNm3aaOxY20Q53GavMxdccIFsMKa4D0nWVrLl7LZMO+TXmT322EMffPBBuA8PmedbYISkE5xzc/J9Y+6HQHECDGAVJ8Tf513Ae29Fd4ZK6pD3m3PDIAV++eUXNWjQINhPeO2NxLXXXlvqnbGsXtYjjzwS5LOzdtIff/yxdtlll+AdAEAAgf8VsJ8NtilG6M1mOT/xxBOlYrAZWzbjN9RBLHudnjRpkpo2bVoqP05CoBQC76ZnYi0vxbmcgkDOBBjAyhktFy6NgPe+ZtHA1XBJbSTxfJYGkXMyFujSpYuefvrpjM9LygmHHHJIqpDuHwu2lzS/hQsX6tBDD03tHhVya968ub744gvZUkwaAgggYAK29G2HHXbQV1/Zqpxwm81SHTFihGrUqFEqBNsJt1OnThoyZEipzk/CSe3bt9e7776b0ey1JORNDgUTsB0Uxkjazzm3oGBRcGME/iDAAAGPRGQEvPfVJT0q6fjIBEUgiRf46aefUttT//bbb4nPdV0Jtm7dOjXwVNo3FWuuOXfuXNkblGnTpgXpaEnbFvDjxo3TdtttF6wBiSOAwP8KfPnll9p5551lAzChti233FJjxoxRvXr1ykRgH5bYzoWff/55ma4T15PtdXrixInafHMrEUtDIG8C9gnvmc65RXm7IzdCYAMCDGDxeERCIL1s8H5JZ0QiIIIIRuCFF17QscceG+SyhCpVqujNN9/UXnvtlZX+tjcVdq358+dn5XpxvIjVd7GaYDQEEEDABC688EJZDadQW/Xq1VMfkuy4445ZIXjnnXdks4ZtI5EQW//+/VMbrdAQyLOATTA43zkX7kh8nsG53foFGMDi6Si4gPfe9lC20f1jWDZY8O4ILgBb2jF+/Pjg8raE77//fp133nlZzd2K81ph91CbLR+0WWibbbZZqATkjQACaYFZs2apcePGwdZXNIbbbrtNV1xxRVafCfuQwIq6h9hsNtt3330n282RhkAeBWw54WBJJznnVuXxvtwKgT8JMIDFQ1FQAe+9vQLfJOlySRSOKWhvhHfzkSNHympKhNhatmyZ2jXPPh3PZrNlMvbp8FNPPZXNy8bqWn369FGPHj1iFTPBIoBA9gXuuOMOXX65/XoTZjvyyCP1zDPPqHLlylkFWLBgQWpZ5uTJk7N63bhcbOjQobKdk2kI5FlgpaQ+kno651bn+d7cDoHfBRjA4mEoqID3vmfRwNXNBQ2CmwcrYIMMffv2DS7/WrVqacKECTmrozF9+nS1atUq2KWEVgvMBgdpCCAQtkCbNm00duzYIBGsXpNtamEz0HLRZs6cmao3GOKS9e7duwe9LDUXzxPXzEjgKufcbRmdwcEIZFGAAawsYnKpzAS897Z2yepe0RDIu4Btxb3VVlvp+++/z/u9C33Dc889Vw888EBOw3jjjTdSOxOGuuX5qFGjtOuuu+bUmIsjgEB0Bd577z116NAhugHmMDLnnJ599lkdc4xVhshdsyXwDz74YO5uENEr2xL1GTNmsBthRPsnkLCsHlZuf5EMBJI0MxdgACtzM87IgoD33nYafExStSxcjksgkLHAiy++qKOPPjrj8+J+wjbbbJOaEWCzsHLdOnbsqFdffTXXt4nk9Q888EDZIJ69kaMhgEBYAqtXr9ZBBx2kYcOGhZV4OlvL3X7+5brZroRWHH7KlCm5vlXkrj9o0CCddNJJkYuLgIIRWGwbbznnrIYxDYG8CvCbdV65uZkJeO8PlPQmGggUSsDeXOy///56++23CxVCwe47cOBAde3aNS/3nzp1qnbZZRf98ssveblflG6yySabpN5U1a5dO0phEQsCCORBYN68ebIPC+x7aK1mzZqpJdTNmzfPS+o2kJOv17S8JFTCm9iOvyNGjFD58rYPEg2Bggkc7JzjPV3B+MO8MQNYYfZ7wbL23u8u6V1JFQsWBDcOXsBqZjRp0kQ///xzUBbNmjXTl19+KdspL1/tnnvu0cUXX5yv20XqPo8//rhOOeWUSMVEMAggkHuB/v37q1u3brm/UQTvYIXrL7300rxFZhuHbL/99sEVdLcPSWw3QhswpCFQQIEVkto55yj8WcBOCO3WDGCF1uMFzNd7v6kkq2basIBhcGsE9Morr6hTp05B1WeqWLGiRo8erR122CGvT4DtFrX11lsHN1hoyA0bNtS0adNk9jQEEAhDYMWKFdp0002DnHlap06d1EBSvmeefvXVV6mlhDaYFUrLV52xUDzJs0wCsyS1cc7NLtNVOBmBEgowgFVCKA4rm4D33gatPpLUqGxX4mwEyiawatUqtW7dOjUTKaRmyw2sHkshBlNGjhyZWrK5bNmykMhTub7//vtq165dcHmTMAKhCoRavL1SpUp67bXXdMABB+S9623Q0F5jzD6k1rRpU02cOJFlhCF1enRznSZpdwaxottBSYqMAawk9WZEc/He15M0QtL2EQ2RsAISmDBhQmq5QUjN3ljYrnj2CXUh2sqVK7XvvvumBnNCa1deeaVuvfXW0NImXwSCFbB/87fffntw+e++++569913C/IhiWGPGzdOe+yxh5YuXRqUvf1O07Jly6ByJtnICtgnw/s65+ZENkICS4QAA1iJ6MZoJ+G9t61oDop2lEQXisDDDz+ss88+O5R0U3naVubPPfdcQXO2pXRWd8wK6IfUGjRooNmzmVUfUp+Ta9gC9erV09y5c4NDsGV8LVq0KGjeXbp00dNPh7Up2oMPPqhzzjmnoO7cHIG1BN50zh2MCAK5FGAAK5e6gV/be29bo/xbUufAKUg/QgL77LOP3nnnnQhFlPtQbLfFvffeO/c3KuYOVtTYihuH1l588cVUzTUaAggkW2Dw4ME6/vjjk53kOrI76aSTZLsBFrrZa53N9g2p2ZLNoUOHhpQyuUZf4BlJJznnVkU/VCKMowADWHHstRjE7L23bc56SbKtaHjOYtBnIYQ4ffr0VEFxq4MVSmvfvr3sl/oobLU9fvx4tWnTRlavJKR25JFH6qWXXgopZXJFIEiBjh076tVXXw0qd3ttsQ1CCrVEfW1s732qFtaIEVa1Ioxm/jNmzEhtHEBDICICXlIfST2dc2H9wheRDkh6GAwsJL2HC5Cf996eqwsl3V2A23NLBNYr0KdPH1122WXBCJUrVy5Vd8rqgkSl/fWvf9Xdd4f1o2HzzTeXDZ7arlE0BBBIpoANnmyxxRaaNcs25AqnnXnmmbKl+VFpNrLtlGsAACAASURBVJhm9bhC+qCqb9++uuSSS6LSBcSBwBqBiyT1c87ZgBYNgawJ8Nt01ii50BoB7/2Zku4rmoFVCRUEoiRw4IEH6q233opSSDmNxbY0//7771WtWrWc3ieTi3/77bepIvpLlizJ5LRYH2sDV8OHD5ctX6UhgEAyBV5//XUdccQRsoGsUFqVKlX0+eefa9ttt41MylbE3eot/vDDD5GJKdeBsIww18Jcv5QCyyX9P+fcI6U8n9MQWKcAA1g8GFkV8N7vJcnWymyc1QtzMQTKKGDFw+vXr6+ff/65jFeKz+lPPPGETj755EgFbP1w4okn6plnrERCOG2nnXZKLbOxWXE0BBBIloD9XLMldLZMOqRmSyatxl/Ufq7Zku2jjz46mMFENgsJ6V9d7HKdJ+lI51x421DHrqviEzADWPHpq8hH6r3fTtIYSVUiHywBBicwZMgQHXroocHkbbW+pk6dGsl8582bpy233FKLFi2KZHy5CMrqlNjsM8ubhgACyRKwXVa32WaboJat2cxeq7208cbR/LzSdkT8+uuvk/WgbSAbm+UbWgH7YDo3/okuk7Szc25C/FMhgygIMIAVhV5IQAze+02KdpyYJKlOAtIhhQQKWB2ojz76KIGZrTul7t27q1+/fpHN99hjj9Xzzz8f2fhyEdjLL78sm7FAQwCBZAm88sorss0aQmqHH354pAvWW02ou+66K5guseL1IZVICKZjk5OoLX9o4Zybm5yUyKRQAgxgFUo+QfdN7zg4XJItH6QhEDmBOXPmqFGjRrLaGCE0m+0zYcIENWvWLLLpfvDBB2rXrl1k48tFYCeccIKeeuqpXFyaayKAQAEFjjrqqOB2Gn3nnXfUoUOHAqpv+NZW/9FeA5cts8kfyW9RnxGX/B4gwxIIvCdpP+fcyhIcyyEIrFeAASwejjIJeO+tUPtzko4o04U4GYEcCnz88cepnfisTkkIzd5MvfDCC5FP9eCDD9abb74Z+TizFaAVPLbCwrVr187WJbkOAggUWGDu3Llq2LChVq4M5z2ZLVWzJWtRb1ZvMZQPDeyDq08++URWb5GGQIQFXpbU2TlnBd5pCJRKgAGsUrFxkgl47+35uU3S5YggEGWBXr16qWfPnlEOMauxxWWpmg1e2SBWSG3gwIHq2rVrSCmTKwKJFrDNMk455ZRE5/jH5KymZBx+dof2GtO3b1/Z0kkaAhEXuFVST+dcOFu2RrxD4hYeA1hx67EIxeu9P0/SfZJ4jiLUL4TyZ4HmzZtr0iQr0Zb8VqlSJc2ePTuyhXXX7oGFCxemZi7Y91CavdF9/PHHQ0mXPBFIvIDt9Prkk08mPs81CVatWlU//vijatasGfmcFyxYINuhb8mSJZGPNRsBtm3bNjULi4ZAxAVs4Oo859xDEY+T8CIqwMBDRDsm6mF57ztJst/YqkU9VuILW2DixIlq2bJlMAg9evRQnz59YpPvY489pjPPPDOY7c6bNGmiKVOmxKZ/CBQBBDYssNVWW8l2IQylPfDAAzr33HNjk+5NN92k6667LjbxliXQcuXKpZ7FLbbYoiyX4VwE8iGwWFIX59wr+bgZ90iWAANYyerPvGTjva8vybZCZcfBvIhzk7II3HvvvbrgggvKconYnFu5cmXNnDlTderE55/m8uXL1bhx49SssVDap59+qh133DGUdMkTgcQKjBo1Srvvvnti8/tjYjabyYqj20zfuLTffvtNm2++uRYtWhSXkMsU54ABA3TqqaeW6RqcjECeBGxnwh2cc7PydD9ukxABBrAS0pH5SsN737Co+N6XkjbO1z25DwJlEQhpeUerVq1kgyMVKlQoC1nez+3SpYuefvrpvN+3UDc8/fTTZTPPaAggEG8BWxJsNbBCaUcffbSee+45OReftw+rVq2SLa0bN25cEN1ks+NslhwNgZgI/CqppXMunE8xY9IxUQ4zPq9AUVYMJDbvfXVJtnvEfoGkTJoJEAip/tX111+vv//977HrtfHjx6t169bBLCPccsst9fXXX8tqydAQQCCeAosXL1azZs1Ss15DaLbL3ZgxY1I/q+PW7rjjDl1+eRj7DdkuhGPHjo1bFxFv2ALDJHVyzoUxTTLsvs5K9gxgZYUx+RdJ7zj4iKRuyc+WDJMiMGPGDDVq1CiIgZEqVapo+vTpqlu3biy7b7/99tOIESNiGXumQVerVk1Wm80GsmgIIBBPge+++07bbbddMAXC99prL7377rux7KyQlhFWrFhRc+bM0UYbbRTLviLoYAVsWvqZ7EwYbP9nlDgDWBlxhXuw9/4qSb3CFSDzOAr06tVLPXv2jGPoGcdsW5rb1uZxbQ899FCsCgOX1fnZZ5/VscceW9bLcD4CCBRIoH///urWLZzP9O6//36dd55tPh3PZssfX3zxxXgGn2HU9myedtppGZ7F4QgUXOBq59ytBY+CACIvwABW5Luo8AF67w+T9ELRAFZ8qnYWno0ICiywevVq7bbbbho9enSBI8nP7fv166fu3bvn52Y5uIstw7HZctZvIbS9995bb7/9dgipkiMCiRTYY4899NFHHyUyt3UlZTN847y73SOPPKKzzjoriP7af//99dZbbwWRK0kmSmB5eilhfD+NTVR3RDcZBrCi2zeRiMx736ao5pXNGa8WiYAIAoESCsyfP18tWrTQDz/8UMIz4n3YV199lco3zq1r164aNGhQnFMocey23bk9m/Xr26auNAQQiJPArFmzUjvbhdJOOOEEPfXUU7FO99tvv9U222wTREkBW55uy9RtuToNgZgJLJS0j3NuTMziJtw8CjCAlUfsuN0qXbTdtm1pGrfYiRcB+7R422231bJlyxKPscsuu+jjjz+OfZ6fffZZareolStXxj6XkiTw2muv6bDDbIIrDQEE4iTw8ssvq1OnTnEKudSxWvF22932L3/5S6mvEZUTbVZ2El4ri/OsUaOGvvnmG2266abFHcrfIxBFgcmS2jjn5kcxOGIqvAADWIXvg0hG4L0vL8l2hdg7kgESFALFCNhMHpvRE0L797//rS5dusQ+1QULFqR29Zo9O4zdlK+55hrddNNNse83EkAgNIErr7xSt99+exBp2yDIpEmTVLNmzdjna7UHO3fuHPs8ikvAOafhw4drn332Ke5Q/h6BqAq8I2l/59yqqAZIXIUTYACrcPaRvbP3vqKkPpIulMQzEtmeIrANCXTs2FGvvvpq4pFsicCECRPUuHHjROR6zjnn6F//+lcicikuifbt2+u9994r7jD+HgEEIiaw++67a9SoURGLKjfhnH322bJNNpLQvv/+e7Vs2VKLFy9OQjobzOH888/Xfffdl/g8STCxAl7SPyX1cM6FMS0/sV2Z/cQYnMi+aeyv6L0/XZJtZ0pDIJYCS5cuVa1atbRixYpYxp9J0Fbrwj4dr1KlSianRfbYqVOnqnnz5kEsI7Ttzn/++edEzGyI7ANFYAhkWeDXX39V3bp1tWpV8icG2PJBq69oy/GT0KykgM3ytYGspLd69eqlZjNbvUUaAjEWOMM5x3vSGHdgLkJnACsXqjG+pve+Q3rpYIUYp0HogQtYvY6dd945CIWLLrpId999d6Jy3XXXXfXJJ58kKqf1JZOU5Z9BdBZJIiDp8ccf12mnnRaERZs2bRK3k2+PHj3Ut2/fIPpvypQpatKkSRC5kmRiBWz2lS0ltA3FaAikBBjA4kH4XcB7X0eSVYLm1Y7nItYCTz75pE4++eRY51CS4O2TVdtZqVGjRiU5PDbH9OzZU7169YpNvGUJ9Pjjj9fTTz9dlktwLgII5FHgmGOO0QsvvJDHOxbuVldffbVuueWWwgWQgzt/9913qUEd722FUrKblVE4/PDDk50k2YUgMFVSW+fcvBCSJcfiBRjAKt4oiCO891adc4Tt+hBEwiSZaIFLL71Ud955Z6JztORsKcTXX3+duDxHjx4t21kxhNaqVSuNGzdOtlSHhgAC0RawZYO2G58tqwuh2Y59SfxZ3KJFi0S+dv7xmbSNBi6//PIQHlVyTL7AOEkdnHMLkp8qGRYnwABWcUIB/L333hbI35Uu2h5AxqSYdIEOHToEURz7xBNPlM02S2KzOlhW2yvpbaONNtKPP/6oypUrJz1V8kMg9gJWX7F+/fqyHVOT3mxm77Rp0xKZ5gknnKBnnnkmkbmtndRxxx2nwYMHJz5PEgxGwOpl/M05tzqYjEl0nQIMYPFg2DTq7umdHngeeB5iL7By5UrVrl1bixYtin0uxSVgu/WdddZZxR0Wy7+3T45tq/qkN9vufOTIkdpjjz2Snir5IRB7gREjRmi//faLfR4lScCWcV911VUlOTR2x9iuiueee27s4s404C222ELTp0/P9DSORyCqArbu90Ln3L1RDZC48iPAgEV+nCN7F+/9nkXril+VtHFkgyQwBDIQsK3NbYvzpDcb+LBPx20XwiS2sWPHqm3btkHUKTnjjDP0yCOPJLEbyQmBRAl06dIliJp19vpiS7mTuhmK1Y4Mpbi5/Z6QtDqZifqhQjKZClgdrI7OuZGZnsjxyRFgACs5fZlxJumi7Z9L2izjkzkBgYgK3HbbbYn91HhtcntjMWbMmIj2QtnDsiU6tlTHluwkvVWqVCk1Y7BCBTZ/TXpfk198BZYvX66aNWvKvie92ZJmW9psS5yT2rbffntNmDAhqen9nteAAQN06qmnJj5PEgxKYJak1s65uUFlTbK/CzCAFejD4L2vlN5xsHWgBKSdUIGOHTvKdt5Jerv++uv197//PdFpdu3aVYMGDUp0jmuSY7vzILqZJGMs8M0336Q2zgihnXTSSYn/2Ws7LN56662J704rM2DlBmgIJEzgM0m7OueS/4lCwjouG+kwgJUNxRhew3tvr9rJLzATw74h5NIL2LbYNjPJdnVLehs+fLj23XffRKdpO33Zp+QhbHc+dOhQHXDAAYnuT5JDIM4Cb7zxhg455JA4p1Ci2G354Oeffy7bITXJLZT+bNeund5///0kdyW5hStwm3MumYX6wu3TEmXOAFaJmJJ1kPf+eEn/lmS7D9IQSIyADXQ0bNgwtfQh6S2UuhZWhHbmzJlJ706x3Xniu5gEYy5w880369prr415FsWHv9lmmwXxM3fy5MnadtttiweJ+RFW68tytYFJGgIJE7DdCE90ziV/S9GEdVxZ0+GnWVkFY3a+976qJHs3SNH2mPUd4RYvYLVJqlatqtWrk73Dbo0aNTR//vwgfiG1WUnDhg0rvvNjfsRBBx0kmxFAQwCBaArYjNe33347msFlMSrL02b4Jr2tWLFC1apVk+1cnORmOVpNyXLl+Mw6yf0ccG5W1H1z59ySgA2CS50BrIC63Hu/iaRPJDUJKG1SDUjg+eef17HHHpv4jC+55BL17ds38XlaglajxGqVJL3Zm4xff/1VFStWTHqq5IdA7ASWLVum2rVrB7GpxC233BLEz1x7CE8++WQ9+eSTsXseMw3Yyiq0bk3J20zdOD42At9Kauuc+yU2ERNomQQYwCoTX3xO9t7bRy/3STo3PlETKQKZCZxxxhl67LHHMjspZkeHUp9kTbfY0gcrnBxCHawPP/xQu+++e8yeSMJFIPkCI0eOVPv27ZOfqKSJEyeqefPmQeRqM+qSXkvSOtI2fLGNX2gIJFjgIUn/zzm3KsE5klpagAGsQB4F7313Sf0CSZc0AxSwAY46depo3jybTZzctskmm2jOnDlBLQdo0aKFvv766+R2ajqzu+66SxdffHHi8yRBBOIm0Lt3b11xxRVxCzvjeK0m1KRJkzI+L64nWLmBWrVqadGiRXFNoURx77rrrho1alSJjuUgBGIscIFz7t4Yx0/oJRRgAKuEUHE+zHvfQpK9ctWKcx7EjsCGBGzgygZ3kt522GGH1C6LIRVkveiii/TPf/4z6V2rE088MYjlLInvSBJMnECXLl309NNPJy6vPybUvXt39esXzmed9sFXy5YtE/8BSfny5bVw4UJVqVIl8c8wCQYtMD+9lPCboBUCSJ4BrIR3sve+tqQx1L1KeEeTXmrZg/0imvR23HHHafDgwUlP83/ys3yPP942T01222233fTRRx8lO0myQyCGAjaD5ZNPrIRostu///1v2WBdSO3AAw/UW2+9lfiUv/vuOzVu3DjxeZJg8AJTJbVxzv0avESCARjASnDneu8rS3rE6lQmOE1SQyAl8M4772ifffZJvIZ9Om6fkofUQhmcrFevnn766aeQupZcEYi8gM3SqVu3rn75Jfn1gcePH69WrVpFvk+yGeC1116rm2++OZuXjOS1bAC2bdu2kYyNoBDIsoDtzNDNObc8y9flchERYAArIh2RizCoe5ULVa4ZVYEBAwbo9NNPj2p4WYvryy+/1HbbbZe168XhQlanZOONN9b8+TY7PNmNT8mT3b9kFz8Bq79ndfiS3mwn1N9++00VKlRIeqr/k9+wYcN0wAEHJD7nV155RUcccUTi8yRBBNIC3Z1ztnkZLYECDGAlsFMtJe/9bpLepO5VQjuYtP4k0KNHD/Xt2zfRMjZDZ/bs2UEVcF/ToTbr7L77kv+7yD333KMLL7ww0c8xySEQJ4E+ffrosssui1PIpYr1zDPP1MMPP1yqc+N80pIlS1S7dm0tX57syRq33HKLrr766jh3FbEjkImAfeJ5iHPuw0xO4th4CDCAFY9+yihK7321dN2r5H9kmJEMBydZYL/99tOIESOSnKIOPfRQvf7664nOcX3JWW2oPffc0wbnE53//vvvH0Q9lkR3IsklSqBDhw567733EpXTH5OxTUFsJtK+++6b6DzXl1ybNm00duzYROfeuXNnPfPMM4nOkeQQ+IPAxHQ9rMXIJEuAAaxk9ae9uSsv6SVJhycsNdJBYL0CNqjRoEEDzZkzJ9FK11xzjW666aZE57i+5Kz+TJMmTVJLXJLc6tSpo5kzZ6pyZSthSEMAgUIKLF26VFtssYV+/vnnQoaR83vXrFlT3377reznT4jtrLPO0iOPWMnY5DZbBvvVV18lN0EyQ2DdAq9J6uScWwVQcgQYwEpOX6Yy8d5bEaDHEpYW6SCwQQErfG0DWElvgwYN0kknnZT0NNeZ37Jly1LFhSdPnpzo/GvUqKFJkyapYcOGic6T5BCIg8CsWbPUrFkzLVq0KA7hljrGrbfeWlZfsWrVqqW+RpxPtKXbF198cZxTKDb2cuXKpepIVq9evdhjOQCBhAlYQff+Ccsp6HQYwEpQ93vv20h6W1KNBKVFKggUKzBy5Ei1b9++2OPifoAto9ttNytvF2Y76qij9NJLNsE0ua1ixYoaN25ccIX6k9ujZBZngQkTJmjHHXfUihUr4pxGsbEfeOCBeuONN2RLCUNsQ4YMSS3RT3qz15bWrVsnPU3yQ+CPAlYPaz/n3BhokiEQ5itVMvruf7Lw3leSNFISe+QmsH9JacMC/fv3V7du3RLPZEskbTv3UNvAgQN16qmnJj59dotKfBeTYEwEXn31VXXs2DEm0ZY+zNA3jwhlp0mrgWW1sGgIBChgg1d7OueSvVtDIB3LAFYCOtp7X07SIEldEpAOKSCQsUDPnj3Vq1evjM+L0wm2pMxqI4X6Cbn1lS3jqVWrllavXh2nrss41ssvv1y33357xudxAgIIZFfAdm279dZbs3vRCF5txowZ2nzzzSMYWX5Csh0Iq1WrplWrkl0mx35Puuqqq/KDyl0QiJaA7QD0tKSTnHPJ3g0oWu45iYYBrJyw5vei3vsjJL0gqUJ+78zdEIiGgM3Ksdk5SW42w+zRRx9Ncoolys3qYFmtliS33XffXR9+yM7PSe5jcouHgP1bHDVqVDyCLWWUjRo10rRp00p5dnJOC6GvzzzzTD388MPJ6TQyQSAzgZWSjnHOvZLZaRwdNQEGsKLWIxnG471vKmm0pI0yPJXDEUiMwEEHHaShQ4cmJp91JTJgwIAgls8V14knn3yynnzyyeIOi/XfV6hQQQsXLmQnwgL1os3CMH+b8bfm+5IlS7Tmy/6fFUO2HTEXL14s26luzfc1MzjWFP1eUzC5fPnyqlKlSmqWhxXKtq+NNtooNaPQCvev/Xd2jn3Z/7cvO5eWfwGblWP9YxtIJLl16tRJL774YpJTLFFuIczktjpfr7/+eok8OAiBhArYVtZtnHNTEppfEGkxgBXjbvbeW/+9KumwGKdB6AiUWWCHHXbQ+PHjy3ydqF7Alg1+88032mabbaIaYt7i6t27t6644oq83a9QN7JZZtttt12hbp/Y+3rvbbfe379mz56tTz/9VGPGjEkVz//888/1/fffR2YpkQ1eNWnSRNtvv73+8pe/aOedd1bbtm216aabppYTr/2V2E4rUGJWwN3ck95sSVnSl+CXpA/ffPNNHXzwwSU5NLbH2M8P+1lHQyBwgSH23pmlhPF9ChjAimnfpQevbpB0jST6Mab9SNjZEbD6UPZGNKnNZmFMnjxZDRo0SGqKJc7rP//5jw47LPlj9i+88IJs10Va2QRs44OxY8dq9OjRqQEqqyM3b948/frrr6kZVDarKo7NZnDVrl37968ttthCO+20U2qHMRvgql+/fhzTilTMNivp6KOPjlRMuQhm8ODBOu6443Jx6Vhdc/r06WratKls5l1Sm9U5s3pnNAQCF7AaWLdIuo5BrHg+CQx8xLPf7NPjVpI+kFTz/7N3HuBSFM0a/ho45IxkJOecJSsKiiKCCVCCSJYogkgWFAQTIIhKUCSKIoIkEwKSBMkSDzkniZJjX2rU+xuAs3t2Znem56vnOQ//vXZXV709uztTU13lURdoNgnYQkBuNiXAY3KbcwnQbd261TrO4neRTLS8efMaj0GKuEsxd0rMBKSovwSmdu7caQV6JXtN/jZu3IjDhw/HrMDAEfKdIRl8krUlWUTymZFMrkyZMiFOHOn7QomJwLvvvosuXbrENMzz/33btm3IkyeP5/0I1YHjx49bnxMJcJsq8ePHt44781iyqTtMv4Ig8DuAykqpX4OYw6EuIcAAlks2IhgztNapbnYc3AqAr1iDAcexRhKQB1Up7G2yyFthOc4SFRVlspsB+Xbt2jUrYGl6XZoWLVpg1KhRATHx0yAJVv1Vf0qO+3399deQrLxDhw75CUOsfZWjh4899hgeffRRFC9e3AqKJ0uWjEGtWxBt3bo1Ro4cGWvWXpgo+y8BGwY1/+hymz9/fuMzlHg83QufTNoYJgLHAORTSp0O03pcxiYCDGDZBDKcarTWwwG0C+eaXIsE3EpgypQpeOaZZ9xqni12Va1aFfPnz7dFlwlKKleujCVLlpjgym19eOCBBzBv3jyjfQzGOTkG+Nlnn2HOnDk4ceKEdfzP9CBmMHxiM1YKx0sAQ44iSlBLvkelRg7lDwLVqlXDjz/+aDQO2XcJAlMACY5LtqJkO5sscs9Ur149k12kbyQQDIFhSqmOwUzg2MgTYAAr8nsQlAVa66cBTAHAMwBBkeNgUwn4oXOQHCWTI2WUPwj06NEDAwcONBpH9uzZsXv3bqN9vJ1zcsRl8eLF+Omnn6zaVVJkXY73UJwncNddd1m1tMqUKYMqVapAgsXSOdGPIkcuTf8MDh8+HO3a8X3oX9e31AKbNm2a0Ze7/H4OGCDlfygkQAI362DdAPCsUupz0vAOAQawvLNXUvdKCuDIWd1sHjKbppKAowSk0LXpb5C/+OILPP20xK4pQmDWrFlWxojJIjVK5KicH4IHUkhdAgVSZP3zzz+3sqyuX79u8vZ6xje5DuW44ZNPPolSpUpBAqt+uCYlu0+OKsuRZVNFjg0uX77cClZS/iAgL0YkwGOy1KxZE7NnSwNzCgmQwJ8E9gMorJSSulgUDxBgAMsDmyQmaq0l42odgCIeMZlmkkBYCPjhLbkUpxY/KX8QkBoeUr/H5IdL8XPp0qWoUKGCsdseHR1tZRZKgPbSpUsMWrl8pyWYJXX4GjVqhM6dOyNfvnwutzj25i1btgwVK1aMvQIPzJQjpFJbMUeOHB6wNjwmypFROTpqssh+yz2FUnwENHmf6VvQBNYCKKOU4tuzoNGFfwK/vcLPPFYraq2bAhgDgHsWK4KcZCIBeUsuGQFHjhwx0T3Lp0SJEuHcuXMssvu3HZaOc9ItSo6amSyDBw9Gp06djHFROoV++eWXmDp1KqQAu2RdSd0ZivcISPZO1qxZreOGkh0qR69MajLxwQcfoG3btt7bmCAslvpne/futWqgUf4gIAXtU6dObTQOaeQg370SwKSQAAn8PwENoKlS6lMycT8BBkPcv0eSfVUIwAoASTxgLk0kgbAROH36NKRDnxR1NlVy5cqFHTt2mOperPySI2eZMmWC7L/J0qBBA0ycONHTLkqwUTLJZs6cia+++gqydxTzCEigXY5zP/7441bWYObMmT3tZOPGjTFhwgRP+xCT8RKAlEAGOxD+k5TUgTP5nkICdHJPkSqVNDSnkAAJ/I3AWQAVlVIbSMXdBBjAcvf+/HV0UFpRVXW5qTSPBMJOQDKv5BiL1AoyVSpVqmQVtKb8k0D58uWt+i0mi2S3SBFzrz1gSjv6LVu2oG/fvvjmm2+YZWXyRXoL3+R6lbpZvXr1srq6ea1mltYapUuXhnS+NFmaN2+O0aNHm+xirHwrUqQINm7cGKu5XpiULFkyyPHtjBkzesFc2kgC4SawQJrQKqWYHh5u8kGsxwBWELAiMVRr/QaAV9h1MBL0uabbCezZswcFCxY0Oqujbt26VmFryj8JSBcleUA2WSS7UB6kEiRI4Ak3pQj7a6+9hl9++QWHDx9m4MoTu+ackRLIkkzJkiVLWtdFsWLFnFvMRs1XrlxB4cKFsX37dhu1uk8Vm4Pcek8efPBB/PDDD+7bMJssYu0zm0BSjakEJHD1+s0acX1NddAEvxjAcvEuaq3zAlgNIKmL8UMVygAAIABJREFUzaRpJBAxAvIWUR40TC7m3bFjRwwdOjRijN26sARLJEPJZEmfPr111EO6oblV5CFfalpNnz7dyhajkMDtCEhWk3QzlL88efK4FpTUHBT7TK6tKAW8xb906dK5dh8iZViTJk0wbty4SC3v+LrSjGHDhg0oUKCA42txARLwKIFzAO5RSm32qP3Gm80Alku3WGstTyy/AOAvjEv3iGZFnsDKlStRtmzZyBvioAWDBg3CK69IEibl3wTkaJLJNZXEv/3797uuqLAc2ZVOkP3798fcuXN5YZJA0AQee+wxdOvWzXoBIUea3CRSyFvqQ0kgy1RJkyYNjh8/bqp7IfnVo0cPDBw4MCQdbp8sZQmkPAGFBEjgtgS2ASillDL3h8DDm88Alks3T2vdE0B/l5pHs0jAFQTkaF39+vVdYYtTRkyePBnPPPOMU+o9rVeO2Ek7cJNFMrCkkL8bRLo+vv3221ZGoASx2EHQDbviXRvkiGGKFCnQpk0b9O7d2zVHZeVoeo4cObwLNgDLixYtivXr1wcw0n9Dhg8fjg4dOhjt+NixYyGZZhQSIIE7EuillBpARu4jwACW+/ZECrfLa5HvACR2oXk0iQRcQ0Cyk7p37+4ae5wwZOHChbj33nudUO15nffddx9++uknz/txJwemTJmCevXqRcxHKWi9aNEifPDBB1ZdGMlOoZCA3QSkM5p8ntu3b2/9G0n58ssv8fTTT0fSBMfXrlGjhtVggfJfAnIc+oknnjAaTb9+/dCnTx+jfaRzJGADAcm+ul8ptdIGXVRhIwEGsGyEaYcqrXUUACkkUtQOfdRBAiYTaNWqFUaNGmWyi1a3oLx5pRwe5d8EGjRoAMlQM1leeuklvPvuu2F38fTp01iwYIGVcfXzzz+HfX0u6F8C0mG0S5cueOCBB6wMrXBL165dreveZHn++efxySefmOxirH1bsWIFypUrF+v5XpjYuHFjo+t8eWEPaKNnCKwDUFopdd0zFvvAUAawXLTJWmvZD+k62M1FZtEUEnAtgYcffhjffvuta+2zwzAJJETiIc4O253W8frrrxv/Frly5cpWBlS45OrVqxgzZoyVCXP9Ou/XwsWd6/yXgHTfHDJkCJo1a4b48eOHDdH9999vBW9NlnfeeQedO3c22cVY+7Zv3z5ky5Yt1vO9MLFKlSrGZy97YR9oo2cIDALQQymlPWOx4YYygOWiDdZayyufpQDiuMgsmkICriWQP39+K0PJVJHixmfOnIF0jKL8l4AfjvokSZIEZ8+edfwaOHbsGHr27GkVZT906BAvNxJwDYFMmTKhVq1akIB12rRpHbdLXhhIjTeTZc6cOXjkkUdMdjHWvl25cgWJEiUyusafBOik1huFBEggIAISuCqnlJLmahQXEOBTkQs2QUzQWksbHnnlV8olJtEMEnA9gaRJk+L8+fOutzO2BkqHLml3Tbk1gS1btqBgwYLG4zl58iRSpUplu59S30q6CUpBX8m6Mv2h3XaAVBhWAhLQl8LTLVu2RKFChRwJ6soLg5QpU4bVr0gstm3bNuTJkycSS3tizbvvvhsHDhzwhK2xMTIqKgqXLl2CNFKgkAAJBERgBYAHlFLmPnQEhMEdgxjAcsc+SABLCi50cYk5NIMEXE9AslKSJ0/uejtDMVBazX/99dehqDB67rVr15AwYULjj7pt374d0nHRLpHugXv37sWrr76KSZMmGZ1pYBcz6nEPgbhx41pBrB49eiBz5sy2BrKk66fpgR0GL2K+litWrIhly5bFPNDDI1iewMObR9MjRWCgUqpHpBbnuv8jwACWC64GrbUctt/MroMu2Aya4BkCBw8eRJYsWTxjb2wMlfbyI0aMiM1U38yRAvcS4DFZpIi6XUWFJZtLit8vXrzY6OxFk68H+vYHAcnIqlatGiZMmAA5amuHLF++HFJE3mTJly8ftm7darKLIfv2zDPPQDrAmiy7d+9G9uzZTXaRvpGA3QQuACiolNprt2LqC44AA1jB8bJ99M3MK7nrkhZPRWxXToUkYDCBjRs3okgRsz82b7zxBrp3727wLobuWs2aNa26TSbL7NmzIX6GIjt37sRbb71ldZ66fPlyKKo4lwRcRSBx4sRWULZTp04oUKBASLbJd0mon7WQDAjD5Dp16mD69OlhWMm7S0g9QPn9NVnWrVuHYsWKmewifSMBJwhsAXCPUuqsE8qpMzACDGAFxsmxUVrr9gDeA8C9cIwyFZtIYOnSpahUqZKJrv2/T5JZ0LBhQ6N9DNU56aQ1ePDgUNW4ev748ePRqFGjWNkomYoffPABhg4digsX5OUhhQTMJCBZWC+//DKaNm0KqWEUG5EjtaZ/58p3pnQhpNyegHxntm3b1mhE0t1WutxSSIAEgiIgBd3bKaU+CGoWB9tKgEETW3EGp0xrXRTAOgavguPG0SQgBKSL0qOPPmo0jB9//BHS0p3i7weNQYMG4ZVXXgn6MhgwYIBV5+r69etBz+UEEvAqAamR9eabb0ICNcGKzOvWrVuw0zw1Xo6ly/F0yu0JzJw5E7Vr1zYakfgo3T0pJEACQROQIFZxpdSvQc/kBFsIMIBlC8bYKdFafwOgRuxmcxYJ+JvA5MmTrWMjpopSClL76J577jHVRVv8kiL3ciTGZHnxxRcxZMiQgFyUwvaffPKJlWFhem2wgIBwkG8JSDH2jh07olWrVogXL15AHOQYomQrmizynSkNQii3JyAZ3pKdJJ1aTZWJEycafQ9l6r7RL9cQmKeUqu4aa3xmCANYEdpwrXWHP48ORsgCLksC3ibw0Ucf4YUXXvC2E3ewXrIIVq9ezRoVMeywFCOvUqWKsdeBOPbss89a3QJjknnz5qFfv35YsmRJTEP530nANwTkqHmfPn1QvXrMzxpyfDCQz5qX4fHoWMy7t2bNGpQpU8boDq1yDyXBXQoJkECsCchRQnZaijW+2E9kACv27GI9U2udGkA0gLtirYQTScDnBKQgdWyOVXkFm7Q637BhA6RjFOX2BIRR0aJyGttceeihh/Dtt9/e0kHJEDh8+LBV9+e7774zFwI9I4EQCTzyyCMYPXo0MmXKdFtNNWrUMP5zJN+ZhQsXDpGm2dM3b95svTySjFZTRY7Ldu3a1VT36BcJhIPAcQB5lVKnwrEY1/gfAQawwnw1aK3jAJCnjGphXprLkYBRBEzvEhQ/fnxER0ezzXUMV+2BAwdiXbDZKx8IOcoiWRO3EnkAGTNmDE6d4v2TV/aTdkaOQKpUqdCiRQurRtatRD5rpmcw7t+/H1myZIncJnhg5V27dlkdLa9cueIBa2NnYu/evfHaa6/FbjJnkQAJ/EVggTzTK6VuEEn4CDCAFT7W1kpa66cATA3zslyOBIwj0L59e7z//vvG+fWXQwkSJMDu3buRMWNGY320w7GzZ88iefLkdqhyrY7SpUtj5cqV/2/f5cuX8cUXX0CKtEuQk0ICJBAcgbx580JegtSvXx/ysuAvkWNjq1atCk6Zx0bLd2bSpEk9ZnV4zZXurbly5YJ815oqUh/O9Hpvpu4d/XIdgSeVUl+5ziqDDWIAK4ybq7VO8WfXwexhXJZLkYCRBJo0aYJx48YZ6Zs4lShRIkh2UerUcuKYcjsCcoQuceLEuHTpkrGQMmTIgEOHDlndBKUumhSalgL/FBIggdAIlCpVynqIL1euHOLEiWO9MDh27FhoSl08W35XLly44GIL3WHa8ePHrcxek39XmjVrZmXvUkiABEImsA9AEaXU7yFrooKACDCAFRAmewZpreWXopk92qiFBPxN4IknnsD06dONhSBBGXmQSpIkibE+2uVYiRIlsG7dOrvUuVKPZItIcWk5/iOBLAoJkIA9BKRhhgQrJBtr0KBB9ih1qRYJ2JmeYWYHeslSS58+PS5evGiHOlfqqFevHqZMmeJK22gUCXiQwFilVFMP2u1JkxnACtO2aa0LAJAzIHwaDRNzLmM2AekoJV3XTBUJXEldIynmTrkzAenS99lnnxETCZAACZDAHQgwaBHY5SFHB9OkSYPz588HNsGDo2rWrInZs2d70HKaTAKuJHAOQDml1CZXWmeYUQxghWFDtdZSbEAu6KxhWI5LkIAvCMiRjxUrVhjra8qUKVmYO8Dd7dWrl1UPikICJEACJHB7An369EG/fv2IKAYCcjRdfoN//93cE0FVq1bF/PnzeS2QAAnYR2DPn0cJJZhFcZAAA1gOwv1Ltda6JYCRYViKS5CAbwgUKlQI0uraVJECsjt27DDVPVv9Gj9+PJ577jlbdVIZCZAACZhGQOpGNm7c2DS3HPEnR44c2LNHnkfNlH83BzHTS3pFAmEn0FQpNTbsq/psQQawHN5wrXU+ANLShi1fHGZN9f4ikD17duzdu9dYp8uWLWt0hpmdG7d06VJUqlTJTpXURQIkQALGEZDmD5K9TImZgOlZ3vIScOPGjTGD4AgSIIFgCMi541JKKbaIDoZakGMZwAoSWLDDb9a++hxA3WDncTwJkMCdCaRNmxbSKchUefTRRzFr1ixT3bPVL+nWKEWYKSRAAiRAArcncPDgQWTKlImIAiAgNaLmzp0bwEhvDsmZMyd27tzpTeNpNQm4m8AXSql67jbR29YxgOXg/mmtqwLgAXMHGVO1fwlIkXOT24E3aNAAEydO9O8GB+G5FNqVeiXXrl0LYhaHkgAJkIB/CMSPHx8nT55kZ9sAt7xhw4ZW51dTJWPGjDh06JCp7tEvEogkgRsAHlJKmdtpKpJ0ATCA5dAG/Fm4fQOA7A4tQbUk4GsCceLEgRRaNVXatm2L999/31T3bPVLApnS8vzcOdbNtBUslZEACRhDIFmyZDh69CgSJUpkjE9OOvLSSy9hyJAhTi4RUd2pUqWyApoUEiABRwjsA1BYKXXWEe0+V8oAlkMXgNa6980AobR6IWOHGFOtfwmcPn0acvNlsvTu3RuvvfaayS7a5tulS5eQJUsWnDhxwjadVEQCJEACJhGQY/f79u1DwoQJTXLLMV+kW2Pfvn0d0x9pxXIdXLx4MdJmcH0SMJWAvGHvo5Tqb6qDkfSLwRUH6GutiwJY74BqqiQBEgAgdTwkYGGyvPnmm+jatavJLtrm2+XLlyFdG+W6oJAACZAACfyXQObMma2aRwkSJCCeAAi89957ePHFFwMY6d0hJmexe3dXaLlhBIoqpeREFsVGAgxg2QjzL1Va6y8BPOmAaqokARIAsH37duTNm9doFiNGjECbNm2M9tEu565cuYL8+fNj9+7ddqmkHhIgARIwioAU7d66dSuioqKM8sspZz755BM0a9bMKfWu0Hv27FkkTcom6a7YDBphKoGvbgawGBOweXcZwLIZqNb6GQBS9ZFsbWZLdSTwF4F169ahRIkSRgORAu5SyJ0SMwEp3l6kSBHr4YxCAiRAAiTwXwIS5N+wYQPixYtHPAEQmDZtGp566qkARnp3iNTAMr0cg3d3h5YbQuA6gIZKqSmG+OMKNxhksXEbtNZyV7AJgNmpITYyoyoSiA2BxYsXo0qVKrGZ6pk506dPR506dTxjbyQNvX79OkqWLIlff/01kmZwbRIgARJwLYFixYph9erViBs3rmttdJNhc+fORc2aNd1kku22SBdC6UZIIQEScJTAdgAFlFISzKLYQIABLBsgigqttbB89c8/m7RSDQmQwK0IfPPNN3jkkUeMhjNnzhzjfbRrA2/cuIGyZctaD2cUEiABEiCB/xIoU6YMli9fDungS4mZwJIlS1C5cuWYB3p4hJRjyJ07t4c9oOkk4BkCUsxdirqb2z49jFvBAJZNsLXWBW/WvZIibbwzsIkp1ZDA7QjMnDkTtWvXNhrQokWLjL95tmsDpRBtpUqVsGzZMrtUUg8JkAAJGEWgQoUKkKCMUrz1D2RjV6xYgXLlygUy1LNjGMDy7NbRcO8RkOyrIkqpLd4z3X0W81fMpj25GcD64ubxwadtUkc1JEACdyAwdepU1K1b12hGS5cuhTxwUAIjcN999+Gnn34KbDBHkQAJkIDPCNx///348ccffeZ17N2VI+ly7NJkWbt2LYoXL26yi/SNBNxEQGIF9ZmFFfqWMIAVOkM5Pvg4gK9sUEUVJEACARAYN24cmjRpEsBI7w6Rm2cpTE4JjMBjjz2GWbNmBTaYo0iABEjAZwSkpqLUVqQERmDTpk0oXLhwYIM9OooBLI9uHM32MoHHlVIzvOyAG2xnAMuGXdBarwFgdks0GzhRBQnYRWDs2LFo2rSpXepcqYcBrOC2pVGjRpDOjRQSIAESIIH/Enjuuefw6aefEk2ABPbu3Yvs2bMHONqbw+TYffny5b1pPK0mAW8SWKOUKuVN091jNQNYIe6F1vplAG8CIMsQWXI6CQRKYOTIkWjdunWgwz05jgGs4LatTZs2+PDDD4ObxNEkQAIk4BMC7dq1w/Dhw33ibehu+iGAxVqboV8n1EACQRKQIu7dlFJvBTmPw/9GgEGXEC4HrbX0nt0KIHkIajiVBEggSALDhg1Dx44dg5zlreHR0dHImzevt4yOoLVdunTBu+++G0ELuDQJkAAJuJfAK6+8gkGDBrnXQJdZxgCWyzaE5pCAOQTOAMinlDpqjkvh9YQBrFjy1loLuyEAzH6KjiUfTiMBJwn4IYC1Z88eZMuWzUmMRunu3bs3+veXLsUUEiABEiCBfxMYOHAgunXrRjABEti3b5/xv8HMwArwYuAwErCfwPtKqfb2q/WHRgawYrnPWms5NL4EQJxYquA0EiCBWBJgACuW4Aye9tZbb0EyDCgkQAIkQAL/JTB48GB06tSJaAIkcPLkSaRJkybA0d4cxgCWN/eNVhtB4DqAKkqpZUZ4E2YnGMCKJXCt9UwAtWI5ndNIgARCIMAAVgjwDJ36/vvvo317vswydHvpFgmQQIgEpEag6bUjQ0T0j+lHjhxBxoxSKcRcYQDL3L2lZ54gMFspxVhCLLaKAaxYQNNa1wHAXsSxYMcpJGAHAT8EsLZu3Yp8+fLZgcsXOqS71vPPP+8LX+kkCZAACQRLQL4jpRMhJTACrIEVGCeOIgESCIlAbaWUJMVQgiDAAFYQsGSo1jo+gPUA8gc5lcNJgARsIuCHABa7EAZ3sUyePBkNGjQIbhJHkwAJkIBPCHzxxRd4+umnfeJt6G4ygBU6Q2ogARKIkYA0gyumlLoS40gO+H8CDGAFeTForVsDGMHaV0GC43ASsJEAA1g2wjRE1ZdffsmHM0P2MtJuxI0bF+nTp7eOD911111WHZwUKVIgYcKESJw4MRIlSoSoqCjrT0T+72Dk4sWL1vDLly/j+vXruHTpEs6fP48LFy7g7NmzOHXqFI4fP46DBw/i6NGj1hgKCYRKYPr06ahTRw4QUAIhwABWIJQ4hgRIIEQCNwC0VkqNDlGPr6YzgBXEdmutswDYBeCPu1YKCZBARAiMHTsWTZs2jcja4Vp0/fr1KFq0aLiW8/w6s2fPRq1aLCXg+Y0MkwNKKaROnRqZM2dGhgwZrM9ayZIlUaRIEeTJkwcJEiQIkyV3XkaCXNHR0di4cSPWrFlj/Xv48GEruCVFprXWrrCTRrifwDfffIMaNWq431CXWCidgHPkyOESa5wxgzWwnOFKrSQQJAF5S5VNKXUwyHm+Hc4AVhBbr7V+9ebwvkFM4VASIAEHCPghgLV48WJUqlTJAXpmqvz222/x8MMPm+kcvQqZgASs5E8CVQ0bNrSOm0rgysty6NAhTJ06FR9//DE2bdpkBbMY0PLyjjprOwNYwfGVY/zFihULbpLHRvM+w2MbRnNNJjBAKdXLZAft9I0BrABpaq0L3Ow6uFpOCwQ4hcNIgAQcIvDZZ5/h2WefdUi7O9TyxjK4fZA3yffee29wkzjaaAJyBLBmzZpWYFOyqu6++26kTJnSSJ/PnDmDffv2YceOHZg7dy5mzZplHT+kkMBfBPibEty14IcAlmR1lihRIjgwHE0CJOAEgQsAyiqlNjmh3DSdDGAFuKNa6y8BPBngcA4jARJwkIBkHdStW9fBFSKvWh5CmVEU+D4sWbIElStXDnwCRxpHQAJUcgywQoUKqF69upVtJfWs/CjXrl3Dhg0b8MMPP2DZsmVYtWoVJGOLGVp+vBr+8JkBrOD2Xj43FStWDG6Sx0avXbsWxYsX95jVNJcEjCXw5c0AFjttBLC9DGAFAElrnQeARERZ+yoAXhxCAk4TkKMQjzzyiNPLRFT/zJkzWdMpiB1gACsIWIYMjR8/PlKlSmVl3nXs2BHly5e3jglS/ktAAlfyGRk6dKj1rxSKv3r1KlH5iIDsu+kBGTu30w9ZvZs3b0aBAnLAhEICJOACAvKjnEsptd8FtrjaBN7pxbA9Wuv4ADYCkCAWhQRIwAUEFixYgPvvv98FljhnwsSJE606PZTACMhRiFKlSgU2mKM8TUAKr3fo0AFPPvmk1S0wadKknvYn3MZLp0M5Xjhp0iS8//77VsdDivkEeFwsuD2eM2cOHn300eAmeWz09u3bkTt3bo9ZTXNJwGgCOwEUUkpdNtrLEJ1jACvmANaDAL4BECdE1pxOAiRgE4Gff/7ZOiZksnz44Ydo3bq1yS7a6tu6detYy8NWou5SVrBgQTzxxBNWTSs5JijZV5TQCUiXwxUrVkCyWqVulhSDp5hJgMfFgttXP9TaPHDggNWJlUICJOAaAtKRsKZS6jvXWORCQxjAusOmaK0T37yIVgIo6MK9o0kk4FsCfiiu+s4776Bz586+3eNgHWcAK1hi7h4vRwHlweqee+5Bly5dUK5cOXcbbIh1CxcuxJAhQ/6/ZpYhbtENAAxgBXcZjBkzBi1atAhuksdGSyZmunTpPGY1zSUB4wlsB1BUKXXJeE9j6SADWHcOYLUBMCKWbDmNBEjAIQKS9p43b16HtLtDbc+ePdG/f393GOMBKxjA8sAmBWiiHGkZOXKkVa8nQYIEAc7iMLsISL2sK1euQGoANW3aFJKlQfE+AQawgtvDt99+G127dg1uksdGy3FiHsH22KbRXL8QaKeUYgziNrvNANZtwGit4wHYzNpXfvmeoJ9eIiA1W9KmTeslk4O2tX379hg2bFjQ8/w6gQEsb++8fJ6lrlXt2rVRpEgRbztjkPUSzJLAx1dffYXhw4fj999/N8g7f7nCAFZw+927d2/jXyJdv34dceKwQkpwVwZHk0BYCEgWVn6l1I2wrOaxRRjAun0Aqy+AVz22nzSXBHxB4OLFi0icWE74miuNGjXC+PHjzXXQZs8YwLIZaBjURUVFWZ0Dn332WTRp0oTZVmFgHsoSFy5cwKhRo/D555/jl19+wY0bvK8OhWe45zKAFRxxeYkkTQ5MFakjKDXwKCRAAq4l0A9AP6WUdq2FETKMAaxbgNdapwKwFQAPhkfowuSyJBATgXjx4kHeHpoqNWrUsAorUwIjwABWYJzcMEqOBZYuXRrjxo1Drly53GASbQiSwObNm60uqfKvHDekuJ8AA1jB7VH9+vWtYK2pkiJFCpw+fdpU9+gXCZhA4DcA+ZRSp0xwxk4fGMC6dQBrAIAedoKmLhIgAXsJJE+eHFK/wVSR+j9Lliwx1T3b/WIAy3akjiiUmjKtWrVCjhw5IIXaKd4lIBlYO3fuxHvvvYcRI1iqw+07yQBWcDskL5G++87cRmBSvF2KuFNIgARcS0AyrwYopXq71sIIGca7x3+B11rn+bP2ldTAopAACbiUQKZMmXD48GGXWhe6WZKZsmPHjtAV+UQDA1ju3Wj5rDZr1gxyJMf02nXu3QVnLdu3b5913OrTTz/Fb7/JS2OK2wgwgBXcjpQqVQpr1qwJbpKHRmfLlg179uzxkMU0lQR8SeAagMJKqWhfen8bpxnA+m8AayiAjrxISIAE3E1AOpXJ239TJXXq1Dhx4oSp7tnuV3R0NPLnz2+7XiqMHQHJrsqYMaMVuOrWrZvxNetiR8m8WWfOnMFrr72GiRMnWoEsKQJPcQcB+Y40vXuvnaSzZs2K/fv326nSVbry5cuHrVulWgqFBEjA5QTeVkqZ3RI1yA1gAOtvwLTWWQFIykNUkBw5nARIIMwESpQoAcm6MVWSJEli1aeQWl+UmAlItlqePJJAS4k0gbhx4+Ldd99F06ZNkSxZskibw/XDTECCVtKtUDKyevXqFebVudztCMh3JGvOBXZ9yDUsNaJMLlNQsmRJrF69OjAgHEUCJBBJAlJoMo9Sal8kjXDT2gxg/TOANQnAs27aINpCAiRwawJVqlTB4sWLjcUjXRaPHTsGCWRRYibAAFbMjJwekSpVKkiNq4YNGyJLlixOL0f9HiCwe/du61ih1MmS7CxK5AgwgBU4e+nOlyZNGpw/fz7wSR4bWblyZSxatMhjVtNcEvAtgS+VUk/71vt/Oc4A1p9AtNbScVCyr/i6mJ8OEvAAgZo1a2Lu3LkesDR2JiZKlAgHDx6EBAUoMRNgACtmRk6NSJo0KerWrYv+/ftbxwYpJPBvAnLcu3fv3vj6669x4cIFAooAAQawAocuGYQZMmTAxYsXA5/ksZEPPvig0UXqPbYdNJcEYiIgXatyKqWOxzTQD/+dAaz/BbCkUmMJP2w6fSQBEwiY3uI6YcKEVoHV9OnTm7BdjvvAAJbjiP+zgNS5Klu2LL7//ntIV1AKCcREQOr6Va9e3Tr+zfpYMdGy978zgBU4T6nfJjWwLl26FPgkj4186qmnMHXqVI9ZTXNJwNcEFiqlqvqawJ/OM4AFyE2UBK7kIDh58FNBAh4h0LJlS4wePdoj1gZvZvz48bF9+3brJpoSMwEGsGJmZOcI6dD1zjvvQI6hSM0rCgkESuDq1auYP38+Xn75ZWzYsCHQaRwXIgEGsAIHKNnPUi9MjhKaKs8995x1vJdCAiTgGQLSFaWUUmqtZyx2yFAGbP4IYH0OoK5DjKmWBEjAAQJriUvSAAAgAElEQVSdO3fG4MGDHdDsDpVRUVHYtGkTC5MHuB0MYAUIKsRhUttKPnutWrWCHHOlkEBsCUh9oREjRmDIkCE4cuRIbNVwXoAEGMAKEBSAXbt2WV1tJdhqqrRt29ZqtEAhARLwFIFpAJ5WSvm6xa/vA1ha6/IAlnnq0qWxJEACVqv2V1991VgSktWydu1aFClSxFgf7XSMASw7af5Xl2QEPvnkk/j4448ZuHIWte+0S6e3Jk2aYPbs2bhyRZotUZwgwABW4FQ3b96MYsWK4dq1a4FP8tjIV155BYMGDfKY1TSXBEgAwANKqfl+JsEAltZfAnjSzxcBfScBLxIYOnQoOnXq5EXTA7I5Tpw4WLFiBUqXLh3QeL8PYgDLuSsgR44cVnAhX758PC7oHGZfa75+/TokaFCrVi3s3bvX1yyccp4BrMDJysujMmXKQK5LU2XAgAHo0aOHqe7RLxIwmcBspVQtkx2MyTdfB7C01iUBLAWQMCZQ/O8kQALuIjB27Fg0bdrUXUbZaI0UyJYW15UqVbJRq7mqGMCyf2/liGCfPn3Qvn17JEmSxP4FqJEE/kVAjhXKy4mBAwdC/jfFPgIMYAXOctmyZdZvr8mNBoYNG2Z9t1NIgAQ8R0CK85VTSq3znOU2GezbAJbWOgrAEgBlbWJJNSRAAmEkMG3aNEgXHZNFfHziiSdMdtE23yRrI3v27Lbp87MiOb4q3QUnTZoEyb6ikEC4CUgDi0aNGmHVqlVGZ8GEk6sUJs+UKVM4l/TsWnPnzkXNmjU9a38ghstLQDm6SyEBEvAkgVUAKiilzC3Ud4dt8XMAqyAAqeIf35OXLY0mAZ8TmDdvntWO3WSRAqtSaJUSMwEpAp0xY8aYB3JEjASksHbr1q0hx1gpJBApAnJ8a+TIkfwOtGkDDh8+jAwZMtikzWw10uFYOh2bLF999RUef/xxk12kbyRgMgEJXBVRSkWb7OTtfPNlAEtrLT2/vwdwvx83nT6TgAkE5M281KgwWbp374433njDZBdt861Xr16Qmh6U2BMoVaoU5K08GwfEniFn2k9AurG2a9cOCxcutF+5jzRKvSN+Rwa24X379kW/fv0CG+zRUfIS8IEHHvCo9TSbBEgAgPwo3u/HjoR+DWBV/PP4IK9+EiABjxLwQ80jOUIzfvx4j+5Q+Mzes2cPSpQogdOnT4dvUYNWSpYsGTp27IjXX3/dIK/oimkE5PqU+lgnT540zbWw+JMiRQqsXLkSefLkCct6Xl5E6mtKMN9k+eWXX4x/CWjy/tE3EviTQDWl1I9+o+HXANZnAOr7bbPpLwmYROD48eNImzatSS79x5cqVargp59+MtrHUJ27cOGC1R3vwIEDoary3XxpFCCfoR9++AFFixb1nf902HsEtm7divvuuw/Hjh0zusC2UzsjRwh37tyJxIkTO7WEEXqlPIFkKJks0dHRyJs3r8ku0jcS8AOBGUop350F9l0AS2tdHMAvAKSIO4UESMCjBKQ+Srx48TxqfWBm58yZ03rYoNyegByx7NmzJxHFgkCrVq3w5ptvQjIzKCTgFQJnz56FHIeTGoGU4AlIh8du3boFP9FHM3Lnzm38b68EgU1/CeijS5au+pfAtT87Eq72EwJfBbC01lKRdi6Ah/y0yfSVBEwlkDlzZhw6dMhU9xAVFYVLly6xmPZtdnjJkiVWIX9hRAmcQPr06TF48GA8++yzgU/iSBJwGYEvvvjCOvoqDRwogRNIlCgRfvzxR5QvXz7wST4aeePGDSRNmhQXL1402uvLly8jfnz2sTJ6k+mcXwh8dzM55xGl1A2/OOy3AJb0D94BIJFfNph+koDJBOQGfPny5Sa7iKNHjyJdunRG+xgb565evYpy5cphzZo1sZnuyznSVbBw4cKYM2cOsmTJ4ksGdNosAgcPHkTNmjWxYcMGSOCBEhgBadjw888/Wy9JKP8k4IfyBHJPIfcWFBIgASMInAWQWyl1zAhvAnDCbwEsiVA+GAAXDiEBEvAAgfr16+Pzzz/3gKWxN1EezCToQPkngU6dOuG9995jHZwgLoy2bdtamVd86x4ENA51PYErV67g5ZdfxrBhw1xvq1sMlPp3zZs3x6hRo9xikmvskN9c02sCSgBTOjlTSIAEjCHwnVKqhjHexOCIbwJYWusiAH71y8bSTxLwAwGp4yE1fEyW7777Dg8+yLj73/dYOmlVrFgRkoVFiZlAggQJrI5aEvCVB1cKCZhGQLKv5Ehh48aN+b0Q4OZK9pUcwy5btmyAM/wxTIq3y9F0k6VOnTqYPn26yS7SNxLwI4GSSqm1fnDcN3eyWmt5NdfeD5tKH0nALwRGjx6Nli1bGu3uuHHjrIcyyh8ETp8+bdVukW5klJgJFCxYEF9//TWkKDGFBEwnsGPHDjz22GPYsmWL6a7a4l/+/Pmto4QpU6a0RZ8JSiZMmGD8b27nzp3xzjvvmLBd9IEESOB/BN5XSvki1uGLAJbWOgeAXbzCSYAEzCLghzel0mWve/fuZm1cCN7IUSHeeAcGsFq1avj2228RN27cwCZwFAkYQEA61D788MP44YcfDPDGeRe6dOmCt99+2/mFPLKCZHWb3qVRjt936NDBIztCM0mABAIkcB1AVqWUud2t/gThlwCW9FpuG+DmcxgJkIBHCGzcuBHFihUzunivdNkaOnSoR3bEWTMlU0CCMhcuXHB2IY9rl2LtvXv3tuoCJUmSxOPe0HwSCJ7A+fPnrePlAwYMMPr3IXgy/52ROHFiqyuhNMWgAC+++KJVX9FkmT17ttX8gEICJGAcgVFKqVbGefUvh4wPYGmtEwPYCSCD6ZtJ/0jAbwTkuEihQoUgRXxNlbp16xpfqD6QvZOglRSz3717dyDDfTsmWbJk6N+/P6RgOzOvfHsZ0HEAkoklx8y7du2Ks2elSRPldgTy5s2LtWvXQoJZfhfTm8NIHcR169YZX6je79cx/fctAWkvmk0pddlkAn4IYMkh784mbyJ9IwG/Ejhw4ACkhoe8bTdV7r33XixcuNBU9wLySwo0y5EOHnO5M67kyZNj4sSJqFWrVkBcOYgE/EBAsoueeuopq34e5fYEevXqhX79+kEyOP0sVatWNfo3V7rQSvZ6njx5/LzN9J0ETCYwEEBPpZQ21UmjA1ha67QAdgBIbuoG0i8S8DOB48ePWzdhJj+YiH/btm3z8zZbx1ukK5TWxv4Wh7y/0mlw+fLlKF68eMi6qIAETCMgTR9KlSrF48d32FgJXC1YsABVqlQxbfuD8kdeikVHRwc1x0uD5Vi5NDm4++67vWQ2bSUBEgicgKQc51FKSTaWkWJ6AEvak30EwGg/jbwy6RQJBEBAMq9y5syJY8eOBTDam0PkSNjvv//uGePlqI78Xbx40cqMk6N/ly9fto7zxPaopxQZ3rRpk2cYhNtQOf4jxdpz5JB+JRQSIIFbETh69KiVnbhy5UoCug0BCYAPHCgv74OXePHiISoqCgkTJoQE1JMmTWrV4JN/5XfMKyKZrCYfOZWOk9u3b8ddd93llS2hnSRAAsERkLe9zZRSY4Ob5p3RxgZ2tNZSuVZeoWT2znbQUhIggWAISFBEHtr3798fzDTPjZUAXdq0klAafpEglATQzpw5Y/0rN/Z79+61mMvfwYMHcejQISuIKH9y3I8SPgLywPn9999H7PoIn6dciQRCJyDfZ08//TS++eab0JVRQ8AEJLsrffr0SJcuHTJkyIAsWbJYGUDyly1bNivAJYGjFClSQAIsiRIlCli3nQOPHDmCjBkz2qnSdbpkD3bt2sUGH67bGRpEArYSOA4gh1LqnK1aXaLM5ABWCwCjXMKZZpAACThEoEKFCpDudCaLBCjkCF04RArjL126FN999x2WLFmCw4cPW0f3/v4XDju4RswEMmfObNUykQc+CgmQQGAErl69ijp16mDu3LmBTeAoxwlIYfG//0kQSeo/VqpUCQ8//DCyZs3quA2ygGSyynomi/xuyEsoNvkweZfpGwlYBJqamoVlcgBrGYDyvIBJgATMJtCiRQuMGTPGaCflSIcUMbdLJHNNjuRJgGrFihXYuXMn5HiNBKtMLohvFz836JGOjFIbTN6mU0iABIIjIMeZW7dujbFjjT1hERwQl4+WDC3J4JLsLcm6vueeeyAvr4oWLWprIGbQoEHo3r27y2mEZl758uWxbJk8IlFIgAQMJ/CzUqqCiT4aGcDSWlcD8IOJG0afSIAE/klg2LBh6Nixo9FYpIPW1KlTY+WjHOmTrCopYiyts+XG9ZdffsGpU6dipY+TIk9AHt4kU4CZV5HfC1rgbQKNGzfGhAkTvO2Ej61PlSoVypQpg4oVK1rBrIIFC1p1MaUeV2xEfmunTZsWm6memdOqVSt89JGUB6aQAAkYTkBqYT2olJpnmp/GBbC01vKrJRU62YrJtKuV/pDALQgsXLgQ0vbaZMmXL5+VMRVIyr9kFkgWldS4kMy0zz77zKpfRTGDgFwL0m2QwSsz9pNeRJaABPgfeughzJtn3P19ZMFGcHWpo9WoUSPrT7r4SiH5+PHjx2iRZCYXKlTI6A6EAmHEiBFo06ZNjDw4gARIwAgCawCUVUpdN8KbP50wMYAlRdt3AEho0kbRFxIggVsTOHHihPHddDJlymTdVEs3p1uJ3HhLRs6UKVOs7KrffvsNp0+ftupWUcwhIHVh1q5dax2loZAACdhDQBpTSBaPfMdSzCEgNbUk0C/HrMuWLYt69erhwQcftDol3krOnTuH/PnzW41JTJZFixahcuXKJrtI30iABP5H4DKA3EqpAyZBMTGA9SWAJ03aJPpCAiRwZwKmt72WtuSbN2+2an9IUErqVclRQMnEkYDVqlWrWLvK8A9Jrly5IA8eEsykkAAJ2EtAslTloX7Dhg32KqY2VxGQbKzSpUtbAa1y5cpZf399p+7evds6gnjp0iVX2WynMRLUk5dbcs9EIQES8A0BqUFSTyllzFttowJYWusCADb75nKkoyRAAhYBebiXI3MmS4kSJVCzZk3MmTPHysKh+IdA2rRpreCVZAdQSIAEnCEgtQKl892hQ4ecWYBaXUmgePHiqFWrFmbPnm38b2vq1KkhWesUEiAB3xEooJTaaorXpgWw+gDoZ8rm0A8SIIHACEgBV3bVCYwVR3mPgFzb0jmKQgIk4CwB+azJ7wmFBEwkIC9BtmzZYqJr9IkESODOBPrdzMDsawokYwJYWuvEACQFg8VBTLk66QcJBEjg8ccfx4wZMwIczWEk4A0CiRIlsorw165d2xsG00oSMICA/JY888wzRh8lM2Cb6EIsCEjDm/nz58diJqeQAAl4nMBRAHmVUr973A/LfJMCWF0BvGnCptAHEiCB4Ai88MILbAsdHDKOdjkB6Tj56quvolevXpC6JRQSIIHwEJA6g71798bAgQMhXQopJGAKAQnMTp482RR36AcJkEBwBLoopd4Nboo7RxtzV6y13gigkDsx0yoSIAEnCbz99tvo2lVi2BQSMINAy5YtMXLkSDOcoRck4EECzz//PD799FMPWk6TSeDWBF5++WW89dZbxEMCJOBPAuuVUsVNcN2IAJbWugyAZQDimbAp9IEESCA4AtOnT8cTTzwR3CSOJgGXEqhevTqmTZuGZMmSudRCmkUC5hOQzoTyWVy5cqX5ztJDXxAYPXo0mjdv7gtf6SQJkMB/CFwHUEoptd7rbDwfwNJaxwewCkARr28G7ScBEogdgV9//RXFihWL3WTOIgEXEZCW7qtXr0aGDBlcZBVNIQF/Eti/fz9Kly6NY8eO+RMAvTaKwMKFC61OmxQSIAHfEtjwZxDrqpcJmBDAKgpAesrH8fJG0HYSIIHYE7h06RKSJEnCeiWxR8iZLiAgGVfr169Hjhw5XGANTSABEhACa9euReXKlXH+/HkCIQFPEzh06BAyZszoaR9oPAmQQEgEpLCjZGGtC0lLhCebEMAaDKBThDlyeRIggQgTyJMnD3bs2BFhK7g8CcSewJgxY9CsWbPYK+BMEiABRwi89957ePHFFx3RTaUkEA4CqVKlwokTJ9gUJBywuQYJuJvAkJvdCF9yt4l3ts7TASyttbxG2A4giZc3gbaTAAmETkBqYEktLAoJeJFA586dIc0I2HHQi7tHm00nIN0I27Vrhw8//NB0V+mfoQTk6KAcIaSQAAn4noCkE+dRSh32KgmvB7C6ARjoVfi0mwRIwD4Cffr0weuvv26fQmoigTARKFq0KBYvXozkyZOHaUUuQwIkECyB06dPo1y5coiOjg52KseTQMQJSAbhkCFDIm4HDSABEnAFgR5KKc/GULwewFoDoIQrLgMaQQIkEFEC7EQYUfxcPJYE0qdPj7179yJBggSx1MBpJEAC4SJw+fJlZM6c2TqKRSEBLxGYOHEiGjRo4CWTaSsJkIBzBNYqpUo6p95ZzZ4NYGmtqwP4lsXbnb1AqJ0EvEJg6dKlqFSpklfMpZ0kgLhx42L27NmoUaMGaZAACXiEwIwZM/DUU0/h+nXpSE4hAW8QYAdCb+wTrSSBMBGQYu4PKKU8ea7YkwEsrXU8AIsAlA/TJnMZEiABlxPYtm0b8uXL53IraR4J/I9Az5490b9/fyIhARLwGIHu3btj0KBBHrOa5vqZwObNm1GgQAE/I6DvJEAC/ySwEkAFpdQ1r4HxagArK4AtABJ7DTjtJQEScIbAqVOnkDp1ameUUysJ2EygYMGCWLt2LeLHj2+zZqojARJwmsCVK1dQsmRJbNq0yemlqJ8EbCEgx155j2QLSiohAVMISDH3Akqp/V5zyKsBrL4AXvUabNpLAiTgHAGtNTJmzIijR486twg1k4ANBKRY+7p165AjRw4btFEFCZBAJAjs27cPxYoVgxR3p5CAmwmkTJkSJ0+eZJdbN28SbSOByBAYcDMDq1dklo79qp4LYGmt0wLYw+yr2G86Z5KAqQSaN2+Ojz/+2FT36JcBBOLEiYMPPvgALVu25MOEAftJF/xNYNKkSWjSpAmuXfPcCQx/b5zPvG/cuDHGjRvnM6/pLgmQQAAEzgLIpZT6LYCxrhnixQBWYwD8FnbNJURDSMA9BNiJ0D17QUtuTaB27dqQItAUEiABMwg899xzGD9+vBnO0AsjCUydOtVqPEAhARIggVsQeF4p9amXyHgxgDVPquZ7CTJtJQESCA+BS5cuIUmSJLhxQ5prUEjAXQSk3lV0dDSyZ8/uLsNoDQmQQKwJ/P7778iZMyekxhCFBNxGQCmFCxcuIGHChG4zjfaQAAm4g8CPSqlq7jAlMCs8FcDSWhcHIBXzpQshhQRIgAT+QYB1sHhBuJnA6NGjIcdcKSRAAmYRmDVrFiS7Un6DKCTgJgLp0qXDkSNHeGTdTZtCW0jAXQSuAyihlNrgLrNub41nAlhaa7F1EoBnvAKXdpIACYSXgDw8FC9eHL/++mt4F+ZqJBADAcm6Wr9+PaSAO4UESMAsAtKVsHLlyvjll1/McozeeJ6ANBqQjreSiUUhARIggdsQmADgOaWUJ97CeObbTGstvcZ3AsjCS48ESIAEbkfgoYcewvfff09AJOAaAvHixcPOnTuRNWtW19hEQ0iABOwlcObMGaRPnx6XL1+2VzG1kUAIBKpXr857ohD4cSoJ+ITAQQA5lVJXvOCvlwJYTwD4EoBnbPbCBUAbScA0Al26dMG7775rmlv0x8MEWLjdw5tH00kgCAINGjTA5MmTg5jBoSTgLIGXX34Zb731lrOLUDsJkIDXCUjm1VNKqa+84IgngkFa6wQAtgO42wtQaSMJkEDkCEhb84YNG0bOAK5MAn8jIIVzV61ahUKFCpELCZCA4QR27NgBObIlRbMpJOAGAhMmTOA9kRs2gjaQgPsJ7AWQTynl+jRirwSwygJY4f59p4UkQAKRJiD1r+QBgkICbiDQvn17DBs2zA2m0AYSIIEwEOjQoQOGDx8ehpW4BAnETEBqLxYtWjTmgRxBAiRAAkAZpdQqt4PwSgBLcl9fdjtM2kcCJBB5ApcuXUKiRIkibwgtIAEAGzZsQOHChcmCBEjAJwQ2bdrEz7xP9toLbl68eBGSCUwhARIggQAIvK2U6hrAuIgOcX0AS2udFMA+AKkiSoqLkwAJeIZA2rRpcfz4cc/YS0PNJCD1cOT4Brs/mbm/9IoEbkVAuuG2aNECH3/8MQGRQEQJyL3QsWPHImoDFycBEvAUgVMAsimlzrrZai8EsFoB+MjNEGkbCZCAuwjkzZsX27dL2TwKCUSGQNKkSbFt2zZkzJgxMgZwVRIggYgROHr0KHLlyoXz589HzAYuTAJ58uSxfocoJEACJBAEgReUUq6OvXghgPUDgGpBQOdQEiABHxO4du0asmTJAnmAoJBApAhUqlQJP/30E+LEiRMpE7guCZBAhAjcuHEDVapUwdKlSyNkAZclASB9+vQ4cOAA4sWLRxwkQAIkECiBeUqp6oEOjsQ4VwewtNYpARwEkDgScLgmCZCAtwgcOXIE1apVg9QgoZBApAjEjRsXK1asQKlSpSJlAtclARKIMIE1a9agdOnSkCOFFBKIFIGCBQvixx9/RIYMGSJlAtclARLwFoGLADIppU671Wy3B7CkdVN7t8KjXSRAAu4hMGfOHNSvXx/nzp1zj1G0xJcE7rvvPixYsMCXvtNpEiCB/xG4//77+V3ACyLiBORI+2effYZHH3004rbQABIgAU8QGK6U6uBWS10bwNJaJwewF4BkYVFIgARI4JYErl+/brUs79SpEwmRgCsISPHmpk2busIWGkECJBA5AuPGjUOTJk0iZwBXJoG/ERgyZAjat28PyRKmkAAJkMAdCEj2lRRz/92NlNwcwCoNYDkAfsu68cqhTSTgAgKXLl1CvXr1MHfuXEjtKwoJRJpA6tSpsX//fiROzJPvkd4Lrk8CkSZw4cIF5MyZkzUZI70RXN8iILWwatWqhUmTJiFRokSkQgIkQAK3I3AdQGWl1M9uROTmANYUAPXcCI02kQAJRJ5AdHS01ap88eLFkTeGFpAAAKUUPvnkE2Zc8GogARL4fwKffvqplZHJWli8KNxCoHLlyhg9ejTy5cvnFpNoBwmQgPsIfK6Uqu8+swBXBrC01pkBHHAjMNpEAiQQWQLyECCdnerWrYvDhw9H1hiuTgJ/IyDZV9KyPE2aNORCAiRAAhaBY8eOIW/evDhz5gyJkIBrCGTOnNmqiyUdc+XlC4UESIAE/kXgxp/HCF0Xk3HlN5bWWgq3SwF3CgmQAAn8g4C8zW7ZsiWuXr1KMiTgKgJSi61du3ausonGkAAJRJ7AgAED0KtXr8gbQgtI4G8EoqKiMGrUKGYN86ogARK4HYF2SqkRbsPj1gDWfABV3QaL9pAACUSOgASs2rZta6W9U0jAbQTy58+PjRs3sjiu2zaG9pCACwhIs5GiRYti8+bNLrCGJpDAPwk0b94cH3zwASSgRSEBEiCBvxGYr5R6wG1EXBfA0lpnA7AdAL9F3Xa10B4SiBABOYLRoEEDzJs3L0IWcFkSuDOBMWPGoFmzZsREAiRAArckIN8RUreRQgJuJPDAAw9g4sSJyJAhgxvNo00kQAKRISDHXfIopfZGZvlbr+rGAJakqbVxEyTaQgIkEDkC+/btQ7FixXD6tHR0pZCA+wjcf//9+PHHH91nGC0iARJwFYHq1avzRYyrdoTG/J1AypQpsW7dOmTLJrkEFBIgARKwCLyvlJLyTq4RVwWwtNYJAWwCkNM1hGgICZBAxAgsWLAA9evXt4rgUkjArQQ2bNiAwoULu9U82kUCJOASAuvXr0fx4sVdYg3NIIH/EkibNi0+//xzVK3KSi68PkiABCwCuwAUUkpdcgsPtwWwpJ/rrwDiuwUQ7SABEgg/Aek0KDdQbdq0walTp8JvAFckgQAIxIsXDyNGjLCaClBIgARIIBACUjRbftukLhaFBNxIIFWqVBg5ciSeeuopdih04wbRJhIIL4ErAIoqpaLDu+ztV3NbAGs8gEZugUM7SIAEwk/g2rVr+PLLL9G4cWN2Ggw/fq4YBIE6depg2rRpiBMnThCzOJQESMDPBG7cuIEnn3wSM2bM8DMG+u5yAlLQffz48VYQS17WUEiABHxNYLJSqoFbCLgmgKW1TgfgEIC4boFDO0iABMJPoF+/fnj99df5djr86LliEASqVKmC77//HgkSJAhiFoeSAAmQAHD58mVUq1YNS5YsIQ4ScC2BuHHjonfv3nj11VddayMNIwESCAsBSRnOpJRyRU0XNwWwngAwLSxbwEVIgARcSaBz584YOnQo5A01hQTcSqBcuXJW5lWmTJncaiLtIgEScDmBQ4cOWZlYy5cvd7mlNM/PBCTDuFOnTnjnnXf8jIG+kwAJAI8rpVyROuymANYEAA15dZAACfiPwPnz5/Hiiy/i448/htS/opCAGwkopVChQgXMnj0b0q2JQgIkQAKhEJDuujVr1sTPP//M375QQHKu4wSaN29uvWBMkiSJ42txARIgAVcScM0xQlcEsLTWSQGcBBDlyu2iUSRAAo4RkIBVw4YNMXnyZMfWoGISCJWABK+ee+45jB07NlRVnE8CJEAC/yDQpEkTq94QX+DwwnAzgWeffRYTJ05kYXc3bxJtIwHnCMjxmBRKqXPOLRGYZrcEsNoCeD8wkzmKBEjAJAL16tXDF198YZJL9MUwAkmTJsWkSZPwyCOPsJitYXtLd0jADQSkecmcOXMgv4dSH4tCAm4lULduXatLNIUESMCXBNoppUZE2nO3BLDmA6gaaRhcnwRIIHwELly4gAYNGrATU/iQc6UgCUgrcXnj3L9/fx4ZDJIdh5MACQRPQI4U9unTx8r0PHcu4i+5g3eAM3xBQDrwykudxIkT+8JfOkkCJPD/BOYrpR6INI+IB7C01tKb9TcALCgS6auB65NAmL9ObgEAACAASURBVAhcvHjRCgywjXiYgLtkGTmGJ3//Fjk246ajM5JxVbFiRYwZMwZZsmRxCT2aQQIk4BcCBw4cgNQcWrp0aUQDWfJ9HS9ePOtPinlLVzr59+8iTVfk7/r169afZJOxEYv5V6oEsaT0Q6JEicx3lh6SAAn8ReDMzVNzdymlrkUSiRsCWK0AfBRJCFybBEggvAQef/xxBq/Ci9zx1ZInT45ChQohZ86cuPvuu62/NGnSIHXq1JBMJgkKycPP7QJY8uBz9uxZ62HtxIkT1t/x48chnbr27t2Lffv2Ydu2bY4er5G3yV27dkWLFi2QMWNG1vlw/KrhAiRAArcjIEH9w4cPW4H0N998E5K17JRIgKpAgQLWd3jevHmRO3duZM+eHWnTpkWCBAms7+6//m4VwBJbJXD119+ZM2ewc+dO7Nq1C1u2bMGmTZusPx6PdGoHI6NXgljTp0+PzOJclQRIIFIEWiilxkRqcVk3ogEsrbUUbd8GIHskIXBtEiCB8BCQIIXU+Jg2bVp4FuQqthKQAE+xYsWsh5wiRYpYDzg5cuRA5syZrUBVOOTUqVM4evSoFdjav3+/FdSSB6QdO3ZYD0vS0TJQSZgwIUqVKoXKlStbf1WqVLECbRQSIAEScBMBCewvWbIECxcutLKy1qxZE1RAS14cZMiQAfnz57cCVHny5LG+u+VFg3x/p0+f3gpQOSmSlXXkyBEcPHgQe/bswe7du7F161Zs3rwZGzduDOq720k7qTs4Ak8++aRVE8vp6yc4qziaBEjAQQJ7AeRVSl1xcI07qo50ACsvgE0A5BghhQRIwGACElho2bIluw16ZI8loypTpkzIli0bHnjgAVStWhUlS5b8z/ERN7kjWQAS1JI3/5K1JdkLEvCSt/7y3+Sow1133YWsWbOicOHCKFiwILOs3LSBtIUESCAgAvJ99ldWk2SnSlBfglzy/48fPz7k+ztdunRWgEpeNEjAKlmyZAHpjsQgCW5JUG7BggXWn3yPS6BLvr8p7icgJSFGjRqFJEmSuN9YWkgCJBAqATk+WEgpJUlIEZFIB7BaABgVEc+5KAmQQFgJNGrUyGq/THEvAclIkuOdrVu3RtmyZf+/9ol7LaZlJEACJEACphH4q5ZWdHQ0Ro8ebRUMZzDL3bvcuHFjjBs3zt1G0joSIAG7CLRUSo22S1mweiIdwFoLoHiwRnM8CZCAtwi0bdsWH3zwgbeM9oG1ciSwRo0aVtCqaNGiVt0TdhXywcbTRRIgARLwEIGrV69axw7luPjcuXMxc+ZMK8OW4i4Cbdq0wYgRI9xlFK0hARJwgsBapVRJJxQHojNiASytdWEAGwIxkmNIgAS8SeDKlSvo378/BgwYwK5ELtlCOUoi2VWPPfYYHnnkEdZ8csm+0AwSIAESIIHACEhAa/ny5Zg6dapVG+zXX3+1OiBSIktACvz37NkTvXr1so6yUkiABIwmUFQpFZFYTiQDWL0BvGb0ttI5EvAxAanFITURXnjhBasuByUyBOSGUgqTV6pUCYMGDbKKr1NIgARIgARIwBQC0rW2X79++OyzzyAdECXARYkMAWkYIPd+zZo1Y43JyGwBVyWBcBHopZQaEK7F/r5OJANYCwHcGwmnuSYJkIDzBD788EN07NiRN5LOo77lCtIRSDKsXnrpJatguRQvp5AACZAACZCAqQSkkL008fj000+tIMqFCxdMddXVfsWLFw/Dhg2zXmBSSIAEjCWwWClVJRLeRSSApbWWJ6n9ABJGwmmuSQIk4CyBGTNmQIq2y80kJXwEJNtKalnVq1cPTz/9NHLlyhW+xbkSCZAACZAACbiEwMmTJyH3IlOmTMFPP/0EKWlACR8B6Ug4YcIEq8YmhQRIwEgCFwFkVUodD7d3kQpg9QAQkZSzcAPmeiTgNwIbNmxAhQoVGLwK48anTJkSpUuXtupOVKlShWn7YWTPpUiABEiABNxNYNeuXXj11Vfxww8/4NixYyxrEKbtkvIFy5YtY+mCMPHmMiQQAQI9lVJvhHvdsAewtNZRADYByBNuZ7keCZCAswQ2bdqEMmXK4OJFCcpTnCYgRVK7du2KDh06IHXq1JBjgxQSIAESIAESIIF/EpBanGfPnsW0adPQpUsXSIYWxXkCiRIlwsqVK1GoUCHnF+MKJEAC4SawHUAhpVRYCw9GIoCVAcA2AMnCTZjrkQAJOEfg0KFDqFGjBiQDi+IsgcyZM6N79+6oU6cO5H9TSIAESIAESIAEAiNw+vRpKxtr4MCBWLduHTOyAsMW61HSPOabb77h/UqsCXIiCbiWwFkAeZVSR8JpYSQCWPUATAmnk1yLBEjAWQLS8adatWpYtGiRswv5XLvcBEpRVBZG9fmFQPdJgARIgARsIfDVV1/hvffew5IlS3Djxg1bdFLJfwlIeYN58+YhKkoO4lBIgAQMIlBfKfV5OP2JRABrNYCS4XSSa5EACThH4Nq1a1a3O3mbSbGfgLSklhpX48aNQ61atexfgBpJgARIgARIwOcEoqOj8dBDD2H//v0MZDl0LVSvXh1z586FdCmkkAAJGENgvVKqeDi9CWsAS2udA8CucDrItUiABJwl0LdvX7z22mtMwXcAc7p06TB48GArcJU8eXIHVqBKEiABEiABEiABISD1O+fPn28d0Wc5BPuvCXkhJ8X05Y9CAiRgDAENILdSKmwxnnAHsJoAGGvMdtEREvA5gfHjx+P555/n20qbr4OMGTOiXbt2aNu2LVKkSGGzdqojARIgARIgARK4HYFLly5h5MiRGD58OHbu3ElQNhKIEycOxo4di8aNG9uolapIgAQiTOB5pdSn4bIh3AEsOR9ZN1zOcR0SIAHnCGzevBn33HMPzp0759wiPtOcOHFiPPXUU/joo48gnXsoJEACJEACJEACkSEg9T179+5t/SafOXMmMkYYuGrSpEmxfPlydiY0cG/pkm8JTFFKPRMu78MWwNJaS9W+3wAwnSBcu8t1SMAhAsePH0exYsUgnQcp9hCoUKECJk2ahKxZs0LeUFJIgARIgARIgAQiS0BrjSNHjqB58+ZW/SaKPQQyZcqEX3/9FWnSpLFHIbWQAAlEkoBE+NMopa6Hw4hwBrCeAjA1HE5xDRIgAecIyFvIRx991OrYQwmdQK5cuawaYvXq1UPcuHFDV0gNJEACJEACJEACthOYOXMm+vTpg/Xr19uu248KK1WqhNmzZ7NUgh83nz6bSKCuUiossZ5wBrCmAXjCxN2iTyTgFwLSYrpTp04YNmyYX1x2zM9kyZJZxwWlxkaSJEkcW4eKSYAESIAESIAE7CEg9bF69uyJTz75BKdPn7ZHqY+1dOjQAUOGDGHmuY+vAbpuDIHpSqmwxHrCEsDSWktawTYAOY3ZIjpCAj4kMGLECLRv354dB0Pc+8yZM2PBggXIkydPiJo4nQRIgARIgARIINwEDh8+jOrVq2PTpk3hXtqo9aQzobzIk6Y1FBIgAU8TkI4X+cJxjDBcAaxMAPYCiOfpbaHxJOBjAjt27EDp0qVZyDSEa0AKs/fv3x8tWrSAZGBRSIAESIAESIAEvEngwoULVu3Kl156iQ1tQthC6ba8atUq5M6dOwQtnEoCJBBhAtcAZFNKOV4gOVwBrDcBdI0wVC5PAiQQSwLyprFIkSI4ceJELDVwWtmyZTF06FCUL1+eMEiABEiABEiABAwhIMXIJTt90aJFhngUfjfSpk1r1RbLmDFj+BfniiRAAnYRGKyU6myXstvpcTyApbWOD+B3AAmcdob6SYAE7Cdw7do1NGrUCFOmTLFfuQ80RkVFWTe2b731Fou0+2C/6SIJkAAJkID/CFy/fh39+vWzfusvX77sPwA2eFy/fn1MmDAB8eLxwI4NOKmCBCJBQLKwkiqlHP0SDEcAq8jN4u2/RoIg1yQBEgidwBtvvIFevXqx7lUsUEqtK+laVLx4cRYojQU/TiEBEiABEiABrxCQRjdbtmxB7dq1sXOnlIOhBENA6mFJmYUePXoEM41jSYAE3EWgqFJqg5MmhSOA1eTmecixTjpB3SRAAs4QWLduHapWrcpOO0HilZuwevXq4e2330aWLFmCnM3hJEACJEACJEACXiUgZRe6detmZRNprb3qRkTsTpkypdXkRl78UUiABDxJ4Hml1KdOWh6OANYcAI846QR1kwAJ2E/g1KlTyJcvH3777Tf7lRusMWnSpNaNa/fu3Zl1ZfA+0zUSIAESIAESuB0BycaSupd9+/bF2bNnCSoIAlIPKzo6GqlSpQpiFoeSAAm4hMBspVQtJ21xNICltZY2W6cAxHXSCeomARKwn0CTJk0wbtw4+xUbrDF16tRYuHChVfCeQgIkQAIkQAIk4G8C27dvR8WKFfkyMMjLoHnz5hg9enSQszicBEjABQSuA0h1s5i7Y5F7pwNYdQF87gKQNIEESCAIAhMnTrQKt1MCJ/Dwww/jo48+QtasWQOfxJEkQAIkQAIkQAJGEzh06BBeeOEFzJo1i0cKg9hpOYLZsGHDIGZwKAmQgEsINFBKTXbKFqcDWFL7SmpgUUiABDxCQG60ypUrh/3793vE4siaGT9+fLRo0cI6KsDOOZHdC65OAiRAAiRAAm4kIB2du3Tpgg8//BBXrlxxo4musyljxoxYtWoVMmXK5DrbaBAJkMAdCYxVSjV1ipHTAaz1AIo6ZTz1kgAJ2EtA2kDfc889WL16tb2KDdUmAatRo0bh+eefN9RDukUCJEACJEACJGAXAckqatq0KSSgRYmZQIUKFbBo0SLEjctqNDHT4ggScA2BjUopx+qpOBbA0lqnA3AAQJRrUNIQEiCBOxKQo4NS+0oCWZQ7E5Bi7d9++y3k5kq6DlJIgARIgARIgARI4E4EpCvhihUrUKNGDZw5c4awYiAggSspzyA1sSgkQAKeIXAVQEal1AknLHbsqUtr3QXA204YTZ0kQAL2E9i4cSNKlCjBt4IBoJX2zlOnTkXu3LkDGM0hJEACJEACJEACJPA/Ajt27EC9evWwZs0aYomBgGS7r127FoULFyYrEiAB7xDooZQa6IS5jgSwtNaS57kFQB4njKZOEiABewlcvXoVtWvXxjfffGOvYgO1SX2wuXPnsr2zgXtLl0iABEiABEggXAROnTqFRx99FMuWLQvXkp5dRxrlfP3114iK4sEez24iDfcbge0A8iulbtjtuFMBrAwAtgFIZrfB1EcCJGA/gUGDBqFHjx7sjhMD2mrVqmHGjBlIkiSJ/ZtAjSRAAiRAAiRAAr4icP78eTz77LOYOXOmr/wO1lkp1dC/f3/rXpVCAiTgCQJnJZlJKXXUbmudCmCVBrACQBy7DaY+EiABewmcPHkSBQsWxNGjtn+/2GtohLW1adMGw4cPR5w4/FqL8FZweRIgARIgARIwhsCNGzfQoUMHjBgxwhifnHAkffr02Lx5M1KnTu2EeuokARKwl4BkXpVXSv1ir1rAqQDWmwC62m0s9ZEACdhL4PLly6hUqZLVpphyawLy1u+VV17BwIGOHOMmdhIgARIgARIgARJAz549IRnxEtCi3JqA3LPOmzcPCRIkICISIAH3E3hTKdXNbjOdCmAdAZDebmOpjwRIwF4CkrJep04dHh28DVYJXo0aNYrdb+y97KiNBEiABEiABEjgFgTGjBmDli1b8r7sDvdlc+bMgdTEopAACbiewFGllJSWslVsD2BprYsCWG+rlVRGAiRgO4EDBw5YXQePHz9uu24TFMpRwSFDhqBt27aQNs4UEiABEiABEiABEnCSwPXr162jhJ07d2ZX6NuATps2LdatW4dMmTI5uRXUTQIkYA+BokqpDfao+kOLEwGslgBG2mkkdZEACdhPoFmzZvjkk0/sV2yARmnZ/Pbbb+PFF180wBu6QAIkQAIkQAIk4CUC7733Hrp06cIg1m02rXnz5hg9erSXtpS2koBfCbRUStn6YXUigDUOQGO/7hD9JgEvEPjll19QoUIFyJs+yj8JSObVyJEjeWyQFwYJkAAJkAAJkEDECHz88cfWcULWxPrvFkhmvNRvLV68eMT2hwuTAAkERGC8Uuq5gEYGOMiJANY2aZkY4PocRgIkEGYC0rJZjg5u3749zCu7fzkJXn344YeQ7DQeG3T/ftFCEiABEiABEjCVgLxkHDduHFq0aMEg1i02OW/evFizZg2SJEli6iVAv0jABAK7lFK57HTE1gCW1loCV9FOHE2002nqIgE/E5C09Jdeeok3Q/+6CCRgJZ0GX375ZT9fHvSdBEiABEiABEjARQSkpEH37t2ZNf+vPZGXjlIvrHXr1i7aLZpCAiTwLwIaQAGllMSIbBG7A1i9Abxmi2VUQgIkYDuBHTt2oGDBgrh69artur2u8LXXXkPv3vIVRiEBEiABEiABEiAB9xB444030LNnT/cY5BJL5OWjnCjIkSOHSyyiGSRAArcg0Ecp9bpdZGwLYGmt4wBYDqCMXcZRDwmQgL0EpOil1FSg/JOAdBqUzDQeG+SVQQIkQAIkQAIk4DYCUgdLMsQHDx7sNtMibo/UCZPapRQSIAHXElgJoJxS6oYdFtoZwEoMQOpfZbbDMOogARKwl8D8+fNRo0YNZl/9C+szzzxj1ZiIioqyFzi1kQAJkAAJkAAJkIBNBCR7vkmTJpg8ebJNGs1QkyBBAnz//feoUqWKGQ7RCxIwj8BBAHmVUhfscM3OAFaWm90HdwHgU6AdO0MdJGAjAXlzV7ZsWaxevdpGrd5XVbNmTcyYMQPx4sXzvjP0gARIgARIgARIwGgCcj/32GOPYc6cOUb7Gaxz99xzD37++WcoZdujbbAmcDwJkMDtCUjtmpxKqQN2QLLtU6617ghgqB1GUQcJkIC9BH744Qc8+OCD9ir1uLacOXNi7dq1SJ48ucc9ofkkQAIkQAIkQAJ+IXDu3DkUK1YMu3ZJ3gDlLwJyr1utWjUCIQEScCeBTkopW2JFdgawtgDI705etIoE/Evg2LFjkGDN+fPn/QvhX56nSpUK69atQ9asWcmEBEiABEiABEiABDxFYP/+/VYQ69SpU56y20ljU6RIYRV0T5s2rZPLUDcJkEDsCGxVShWI3dR/zrIlgKW1zgDgsB0GUQcJkIC9BN555x2r8CflDwJyY7NgwQIUKlSISEiABEiABEiABEjAkwS2bNmC++67D/KikvIHgaFDh6JjRzkURCEBEnAhgYxKqSOh2mVXAOs+AAtCNYbzSYAE7CVw4MAB5M6dG5cvX7ZXsUe1SaHPMWPGoGHDhh71gGaTAAmQAAmQAAmQwB8EpKD7888/jytXrhAJgESJEmHPnj1Ily4deZAACbiPQFWl1MJQzbIrgNUJAPu6hrobnE8CNhNo0aKFFbCh/EFgyJAh1ps5FvnkFUECJEACJEACJOB1AlprDB8+nFlHf9vI1q1b48MPP/T61tJ+EjCRwEtKqSGhOmZXAGsWgEdDNYbzSYAE7CNw6NAhFChQAL///rt9Sj2sqVGjRhg1ahQSJkzoYS9oOgmQAAmQAAmQAAn8j4Bk2bdq1Qrjxo0jlpvHCFOmTIkdO3YgTZo05EECJOAuArOUUo+FalLIASytdXwAv93MwGIrr1B3g/NJwCYC165dQ+3atTF37lybNHpbTenSpbFs2TJERUV52xFaTwIkQAIkQAIkQAL/InD16lVUqFABq1atIhsAtWrVwvTp0xE3blzyIAEScA8ByapIq5QK6cyzHQGsygAWuYcLLSEBEoiOjkbRokVZE+HPN3Hbtm1jVxp+LEiABEiABEiABIwlcPLkSeTKlQunT5821sdAHYsfPz42btyIPHnyBDqF40iABMJDoIpSanEoS9kRwHoNQO9QjOBcEiABewlUr14d8+bNs1epR7XNmDHDykajkAAJkAAJkAAJkIDJBGbNmoXHHgv5hI4RiB5//HF89dVXRvhCJ0jAIAKvK6X6hOKPHQGsbwE8FIoRnEsCJGAfgQULFuD++++3T6FHNcWJEwd9+vTBq6++6lEPaDYJkAAJkAAJkAAJBEfg9ddfR9++fXHjxo3gJho4WspHlC9f3kDP6BIJeJbAd0qpGqFYb0cAaweAXKEYwbn/x95ZgF1RdW34GbqRDpFUUpAGUZGSUCwMEBGUEEREREX9RNICbKREJBQVFUUxKAlRSjolRenuFt7/e+b7XwOJc857zpw9e551XVwYM3uvde85E2uvEAERiB6BRo0auXn/QZdy5cph9uzZSJ06ddBRyH4REAEREAEREIGAEGBRdzptFi1aFBCLz29m06ZNMXr06MBzEAARMIjAWsdxiiZFnyQ5sBISEtIBOAAgRVKU0LkiIALRIcDinXxpYRH3IEv+/PmxdOlSZM6cOcgYZLsIiIAIiIAIiEAACRw4cMCthfr7778H0Pq/TGYtLDrySpYsGWgOMl4EDCLAj9T0SSnknlQHVnMA6tlq0BUhVYJL4PTp06hTpw6mT58eXAiA23Hm008/BWsfSERABERABERABEQgiAQYjX/nnXcGPpWwXr16+Oabb9SRMIg/AtlsKoEWjuOMilS5pDqwWCW6dqST6zwREIHoEdiwYQNKlSqF48ePR29QH47UpUsX9OnTx4eaS2UREAEREAEREAERiB6Bp59+OvDvROnTp8fKlSvB6HyJCIiAEQRmOI5TI1JNInZgJSQkpAewgyFgkU6u80RABKJHoGbNmoGPvkqbNi127doFvqxIREAEREAEREAERCDIBA4fPuw6bvbt2xdkDOA78tSpUwPNQMaLgEEEjgDI6TjO0Uh0SooD63IAKwGkjGRinSMCIhA9AszvL1++fPQG9OFIWbNmxYIFC1CwYEEfai+VRUAEREAEREAERCD6BDZu3IiyZcuCdbGCLEuWLHHrgklEQATiTuAUgBKO46yPRJOkOLCuBzANQMRjRKKwzhEBEfg3gXbt2mHIkCGBRsOW0d27dw80AxkvAiIgAiIgAiIgAmcT6NmzJ/ieFGR59NFH8cYbbwQZgWwXAVMIJACo9d80wogKN0fsfEpISOj2X+dVT1MoSA8RCCqBnTt3Il++fDh1is7sYEqNGjUwbRr96RIREAEREAEREAEREIGzCQS91ETKlCmxfft2MGJfIgIiEHcCvRzHiSjyICkOrFkAro676VJABAJOQNFXgMLCA/4jkPkiIAIiIAIiIAIXJLB06VJcddVVgab0yCOP4K233go0AxkvAoYQmOs4TtVIdInIgZWQkJAJwG7Vv4oEuc4RgegR+OOPP1CoUCFs3rw5eoP6aKRkyZLhzTffRIcOHXyktVQVAREQAREQAREQAe8JvPbaa3jiiSeQkMAMnuAJ66SuX78efH+UiIAIxJXAaQDZHcfZH64WkTqw2PZQ+Trh0tbxIhBlAqx7xQisoAp3EufMmYM0adIEFYHsFgEREAEREAEREIGQCBw7dgyVK1fG8uXLQzrexoOGDx+O+++/30bTZJMI+I1AzUjqYEXqwHocwCt+IyR9RcAmAmyNfOmll+LgwYM2mRWyLcmTJ8fq1atRpEiRkM/RgSIgAiIgAiIgAiIQZAIrV650u/GdPs0AiODJJZdcgk2bNiFDhgzBM14Wi4BZBDo7jvN6uCpF6sAaCaB5uJPpeBEQgegR+P7771G3bl2cOXMmeoP6aCSGwPfr189HGktVERABERABERABEYg/gU6dOrklGIIoTB+cMWMGrr322iCaL5tFwCQCoxzHaRGuQpE6sOYDqBDuZDpeBEQgOgRYu+CGG24AnVhBlPz582Px4sXIkiVLEM2XzSIgAiIgAiIgAiIQMQF2sGYU1o4dOyIew88n3njjjfj666/hOBF9CvvZdOkuAiYRmO84TqVwFQr7V5uQkMBzjgBIG+5kOl4ERCA6BObPn49KlcL+vUdn8jiPop2zOC+AphcBERABERABEfA9gUmTJqF+/fqBLei+YMEClC9f3vfrKANEwMcEjgFI7zhOWF0lInFgVQPwk49BSXUR8D2Bhx9+GAMHDvS9HZEYUKVKFfzwww9IlSpVJKfrHBEQAREQAREQAREIPIETJ06gQoUKWLFiRSBZPP7443jlFZV0DuTiy2iTCFR3HGdmOApF4sDq+98IrCfDmUTHioAIRI/AyZMnUbhwYWzZsiV6g/pkJKYMsnNO3rx5faKx1BQBERABERABERABMwls2LAB5cqVC2RDIJajWLt2rTZEzbw0pVVwCLzkOM5/wjE3LAfW/6cPsv6V4i3DoaxjRSCKBAYPHoyHHnooiiP6ZyhGnr399tv+UViaioAIiIAIiIAIiIDBBB544AGMGDHCYA1jpxrtbtEi7BrSsVNII4tA8AgsAVAunDTCcB1Y6QH8AiBf8NjKYhGIPwFGX5UtWxarVq2KvzIea5A7d2788ssvyJw5s8czazoREAEREAEREAERsJPAnj17UKRIERw4cMBOAy9gVcmSJbFo0SJFYQVu5WWwQQQ2AyjuOA5rrIck4TqwcgJYByBjSKPrIBEQgagSYKh3qVKlcPz48aiO64fBhg4ditatW/tBVekoAiIgAiIgAiIgAr4h0L9/f3Ts2NE3+kZL0bRp07qbwgUKFIjWkBpHBEQgPAIHAVzhOM7OUE8L14FVCsBSAMlCnUDHiYAIRI9A+/btMWjQoOgN6JORcubMifXr1yNDhgw+0VhqioAIiIAIiIAIiIA/COzbt8+tr7p//35/KBxFLZ955hm8+OKLURxRQ4mACIRBgB0IyziOszzUc8J1YHX+b/TVq6EOruNEQASiR2D37t3IlSsXzpw5E71BfTBSsmTJMH/+fLfIqEQEREAEREAEREAERCD6BKZNm4batWsjISGsjvbRV8TjEfmeuXfvXpWo8Ji7phOBvxF43HGc10IlEq4DaxqAGqEOruNEQASiR+Cjjz5C06ZNozegT0ai42revHlIkSKFTzSW/KoOJgAAIABJREFUmiIgAiIgAiIgAiLgLwKnTp1C+fLl3W7PQZOxY8eiUaNGQTNb9oqAKQSmOo5TO1RlQnZgJSQkpAHAuNLUoQ6u40RABKJHgA/WL774InoD+mCklClTYtKkSahRQ35zHyyXVBQBERABERABEfAxAb5n3nnnnYGL9m/SpAm4USwRARGIC4E/WGPdcZyQijyH48AqCWBFXEzSpCIQcAKsTcA6UH/8wd93cIROO+6KSURABERABERABERABGJPoG7dupg8eXLsJzJoBhZz37p1Ky655BKDtJIqIhAoAiUcx/klFIvDcWA1BDA+lEF1jAiIQHQJdO/eHb169YruoD4YberUqahZs6YPNJWKIiACIiACIiACIuB/At999x1uvPFG/xsSpgV9+vRBly5dwjxLh4uACESJQEPHcb4JZaxwHFiPAQi5uFYok+sYERCBixNgMc1KlSphwYIFFz/YoiNuuOEGTJgwASyuKREBERABERABERABEYg9AUb7s3TDTz/9FPvJDJqhcuXKmDNnDhwn5M9jg7SXKiLgewKdHcd5PRQrQv6FJiQkjATQPJRBdYwIiED0CBw+fNhNHzx27Fj0BjV8pFSpUmHRokUoWZKZyxIREAEREAEREAEREAGvCPAdjA6dIJWuyJAhA3bu3AmmE0pEQAQ8JzDCcZwHQpk1HAcWwz/KhzKojhEBEYgegSCmD5YpUwYLFy5E8uTJowdSI4mACIiACIiACIiACFyUwMmTJ1GsWDFs3LjxosfadMBrr72Gxx5j0pFEBETAYwKLHccpF8qcITmwEhIS2HnwgDoQhoJUx4hA9AgcPXoUuXLlAqOwgiJMGZw7dy4qVqwYFJNlpwiIgAiIgAiIgAgYRWDixIlo0KABWMoiKJI1a1Zs3rxZUVhBWXDZaRKBEwAyO47Dvy8ooTqwKgOYe7HB9P9FQASiS4Ah3OXLByvw8frrr8f06dOjC1KjiYAIiIAIiIAIiIAIhEWgatWq7qZikIQZAOXKhRQIEiQsslUEvCBQxXGceRebKFQHVkcAb15sMP1/ERCB6BLo27cvnnrqqegOavho77//Ppo1a2a4llJPBERABERABERABOwmMHDgQDz88MN2G3mWda+//jo6deoUKJtlrAgYQiCkQu6hOrA+BHCPIYZJDREIDIHixYtj9erVgbGX9RaWLFmC1KmZtSwRAREQAREQAREQARGIFwGWsuC76KZNm+KlgufzMvqKUVgSERABzwmMcRynycVmDdWBNQvA1RcbTP9fBEQgegTmz5+PSpUqRW9AH4w0bNgwtGzZ0geaSkUREAEREAEREAERsJ9A//790bEjk3GCIytWrFAn7OAstyw1h8Bsx3GqXUydizqwEhISeMw6AIUvNpj+vwiIQPQIBK37YIoUKfDbb78hb9680YOokURABERABERABERABCImwE6ERYoUwZkzZyIew28n9ujRA3wPl4iACHhKYAOAyx3HuWDniFAcWMkA7AOQyVP1NZkIBJwAi5n/8MMPgaHQvn17DBgwIDD2ylAREAEREAEREAERMJ0AuxDec889GDNmjOmqRk2/OnXqYPLkyVEbTwOJgAiERODw/3civKC3PBQHVkEA9IZd9NiQ1NJBIiACFyVw/Phx5MiRA4cP83dsv2TKlMmtr8C/JSIgAiIgAiIgAiIgAuYQ2LNnD/Lnzw/WxAqCZM6cGTt37kSqVKmCYK5sFAFTCDDyqrDjOBsvpNBFnVIJCQmPAHjLFKukhwgEgcA777yDtm3bBsFU18ZatWrh+++/D4y9MlQEREAEREAEREAE/EKAUVjVq1fHjz/+6BeVk6znhx9+6EaeSURABDwl8JDjOIOT6sD6GsBNnqqtyUQgwAT4klCmTBksX748MBQ+//xz3H777YGxV4aKgAiIgAiIgAiIgJ8IfPDBB7jvvvv8pHKSdK1YsSJ+/vnnJI2hk0VABMIm8KXjOLdF7MBKSEhIDuAggHRhT60TREAEIiKwe/duXHHFFdi/f39E5/vtJLZnXrZsGVjEXSICIiACIiACIiACImAegRMnTqBYsWJuw50gSJYsWbB27Vpky5YtCObKRhEwhQDzlDM6jnPeOlgXTCFMSEjIAWCnKdZIDxEIAoEFCxagSpUqOH36dBDMRe/evdG1a9dA2CojRUAEREAEREAERMCvBILUIZsbq3wnZ1aERAREwFMCORzH2X2+GS/mwCoFIDh5TJ6uiyYTgXMT6Natm+vUCYosWbJELwdBWWzZKQIiIAIiIAIi4FsCdOgwtS4o0rNnT/C9XCICIuApgZKO46yK1IFVA8A0T9XVZCIQYAJnzpzBpZdeiu3btweCAl+C5s6di2TJkgXCXhkpAiIgAiIgAiIgAn4lwOyAcuXKuaUfgiCFCxfG+vXrg2CqbBQBkwjUcBxnRqQOrBYARphkjXQRAZsJrFy5EqVKMfDRfnEcBxMmTEDdunXtN1YWioAIiIAIiIAIiIAFBMaNG4dGjRqBTYeCIKtXr0bRokWDYKpsFAFTCDzgOM55fVAXSyF8DcBjplgiPUTAdgLDhw9Hy5YtbTfTtS979uxYs2YNWCRTIgIiIAIiIAIiIAIiYD6BvXv3ug6dPXv2mK9sFDR8//330axZsyiMpCFEQARCJPCm4zidznfsxRxY0/+bQnh9iBPpMBEQgSQSePDBBzF06NAkjuKP02vXro3JkyeDkVgSERABERABERABERAB8wkw8qpmzZqYMeO8GT7mGxGGhu3bt8eAAQPCOEOHioAIJJHAVMdxakfqwKJrPWsSFdDpIiACIRIoWbIkVq06b826EEfxx2FTpkwBnVgSERABERABERABERAB/xCYNGkS6tWr5x+Fk6ApuxCy4ZBEBETAMwL7Hcc5b4rOeUMfEhIS8gLY4pmamkgEAk5g8+bNyJ8/fyBqChQpUgTr1q0L+IrLfBEQAREQAREQARHwJ4ECBQrg999/96fyYWjNTAE2V8qZM2cYZ+lQERCBJBLI6zjOtnONcSEHVk0AU5M4sU4XAREIkUD//v3RsWPHEI/292Ft27bF4MGD/W2EtBcBERABERABERCBgBJgzVbWbg2CDBkyBCzzIREBEfCMQB3Hcb4P14HFX+kQz1TURCIQYAKsJ9CgQQNMnDgxEBS++uor3HzzzYGwVUaKgAiIgAiIgAiIgG0Exo4dizvvvNM2s85pz0033YSvv/46ELbKSBEwhEB7x3EGhevAeh3Aeau/G2KY1BABKwicPHkSV155JdauXWuFPRcyIlOmTNi2bRvSpUtnva0yUAREQAREQAREQARsJHDw4EHkzZsXR44csdG8f9hUrFgxLFu2DClTprTeVhkoAoYQeNVxnCfCdWB9BuAOQwyQGiJgNYHDhw+7LwGHDh2y2k4ap/RB65dYBoqACIiACIiACASAQOvWrTFs2DDrLc2cOTNYqzZDhgzW2yoDRcAQAmMdxzlniOeFamD9BKCaIQZIDRGwmsCsWbNwzTXXWG0jjWMhTLZdvu6666y3VQaKgAiIgAiIgAiIgM0Epk2b5naUZikMm4Xvr/PmzUPFihVtNlO2iYBJBGY7jnNOX9SFHFi/AihokhXSRQRsJfDwww9j4MCBtpr3p12pU6fGhg0b3GgziQiIgAiIgAiIgAiIgH8JbNmyBewsfeLECf8aEaLmnTp1wuuvs8KORAREwAMCGx3HKXSuec7pwEpISEgGgAnNaTxQTlOIQKAJnDlzBnny5MHOnTut51CiRAmsWLHCjcSSiIAIiIAIiIAIiIAI+JcAI6+KFy+ONWvW+NeIEDW/9NJL8fvvvyNZMn4mS0RABGJM4BiADI7jnDl7nvM5sIoB+CXGSml4ERABwM2pv+yyywLB4t1330WrVq0CYauMFAEREAEREAEREAHbCQwZMgTt2rWz3UzXvu3btyNXrlyBsFVGioABBIo7jrM6VAfWvQA+MEBpqSAC1hP46aefcO2111pvJ7sO7t69G2nTprXeVhkoAiIgAiIgAiIgAkEgcOzYMWTPnh1Hjx613ly+s1erphLR1i+0DDSFwL2O43wYqgOLCb6dTNFceoiAzQRGjBiBBx54wGYTXdvKlSuHhQsXWm+nDBQBERABERABERCBIBEoW7YslixZYr3JI0eORPPmza23UwaKgCEEXnccp3OoDix1IDRk1aSG/QQ6dOiAAQMGWG8oH/h88EtEQAREQAREQAREQATsIdCiRQuMGjXKHoPOYwnf2fv372+9nTJQBAwhMMtxnGsu6sBKSEhIAWAjgEsNUVxqiIDVBCpUqBCIyKSPP/4YjRs3tnotZZwIiIAIiIAIiIAIBI3AmDFj0KRJE+vN5jv7/PnzrbdTBoqAIQQ2AyjkOM4ff9fnX0XcExISMgNYByC7IYpLDRGwlsCRI0eQJUsWnDp1ylobaVjKlCndwpdZs2a12k4ZJwIiIAIiIAIiIAJBI7B3717kzp3b+vfZVKlSYd++fWBdV4kIiEDMCez+b132yx3HOXAxB1YeAKz2njHmKmkCEQg4gZkzZ6J69erWU2DBSxa+lIiACIiACIiACIiACNhH4LrrrsOPP/5on2FnWaRC7tYvsQw0h8AhAMUcx9l2MQdWEQArAKQ2R3dpIgJ2EnjjjTfw2GOP2Wnc36zq1q0bevbsab2dMlAEREAEREAEREAEgkigV69e6N69u/Wmv/XWW3jkkUest1MGioABBE4AKOU4zvqLObDKAFgM4F/phQYYIRVEwCoCQSl6OX78eDRs2NCqtZMxIiACIiACIiACIiAC/yPwzTffBOJdr2XLlhg2bJiWXQREIPYEEgCUdxyHvqk/5Vw1sO4C8Ens9dEMIiACNWvWxPTp060HsXr1ahQtWtR6O2WgCIiACIiACIiACASRwNq1awPxrlejRg1MmzYtiEssm0UgHgTudhzn04s5sJjn0y0e2mlOEQgaATp1+MC3WVjwksXqU6Rgg1OJCIiACIiACIiACIiAbQROnz6N9OnT48QJZv3YK3x358asRAREwBMCvRzH+Udu8rkisMYCaOSJOppEBAJOIEOGDK5zx2Zp3LgxPv74Y5tNlG0iIAIiIAIiIAIiEHgCTZs2xUcffWQ1h4wZM+LgwYNW2yjjRMAgAp85jsMMwT/lXA6slQBKGKS0VBEBKwmsWbMGxYoVs9K2vxv1ySef4K67/nHfsd5mGSgCIiACIiACIiACQSMQlDpY69evR+HChYO2vLJXBOJBYJXjOCXP68BKSEhIBuAkgOTx0E5zikCQCLz77rto06aN1SYzfXD79u3IkiWL1XbKOBEQAREQAREQAREIOoF9+/Yhd+7cOHmSn5P2yjvvvGP9O7y9qyfLfEbgFIB0juP8kaj3PyKwEhIS8gDY6jOjpK4I+JJAs2bNMHr0aF/qHqrSfIlZt26dWxNBIgIiIAIiIAIiIAIiYC+Bo0eP4oorrsDWrXZ/TjJV0vZ3eHuvUlnmQwJ5HcfZdj4HVlkAi3xolFQWAd8RYOjxr7/+6ju9w1G4VKlSWLx4sQq4hwNNx4qACIiACIiACIiADwn88ccfKF++PJYtW+ZD7UNXuVChQmAaoeP8qxpP6IPoSBEQgVAJlHcc508f1dkRWPUBfBfqSDpOBEQgMgLHjh1Drly5cOjQocgG8MlZDRs2xPjx432irdQUAREQAREQAREQARFICoE777wTY8eyJ5i9wkLuO3bsQNq0ae01UpaJgDkE6juOMzFRnbMdWC0AjDBHV2kiAnYS2LVrFwoWLAiGWtssr7zyCh5//HGbTZRtIiACIiACIiACIiAC/0/gzTffRKdOnazmkS5dOmzcuBE5cuSw2k4ZJwKGEGjhOM6o8zmwnvxvkay+higqNUTAWgJMHSxRogROnDhhrY00bNasWbj66quttlHGiYAIiIAIiIAIiIAI/I/AkiVLULYsq9LYK6lTp8aqVavAVEKJCIhAzAl0cRyn3/kcWK8C6BxzFTSBCAScwPLly1GuXDmwVoCtwg6E+/fvV3i1rQssu0RABERABERABETgLAJ8t82UKRNYLsNWSZEiBRYtWoQrr7zSVhNllwiYROA1x3H+TOk5O4XwAwD3mqStdBEBGwnMmzcPVatWRUJCgo3muTYVK1YMv/zyi7X2yTAREAEREAEREAEREIF/EyhdujS4WWursHj77NmzUaVKFVtNlF0iYBKBjxzHaZqo0NkOrO8B1DJJW+kiAjYS+Oabb8AC5zZL/fr18d136glh8xrLNhEQAREQAREQARE4m0CjRo3wxRdfWA3m22+/RYMGDay2UcaJgCEEpjmO86eP6mwH1koAJQxRVGqIgLUEhgwZgnbt2llrHw3r0KED+vfvb7WNMk4EREAEREAEREAEROCfBJ544gm8+ior09grgwcPRtu2be01UJaJgDkEVjiO82e+7tkOrD0AspqjqzQRATsJdO3aFS+88IKdxv2/VepAaPXyyjgREAEREAEREAEROCeBAQMGuBuZNgvf5Xv37m2zibJNBEwhsNtxnD9bfv7pwEpISEgFwO6WaKYsgfQIPIEHHngAI0aMsJrDp59+ijvvvNNqG2WcCIiACIiACIiACIjAPwmMHz8et9xyi9VY7r//fgwfPtxqG2WcCBhEILXjOCepz98dWMUBrDJISakiAtYSYM78hAkTrLWPhrG4JQvVS0RABERABERABERABIJDYPHixW63bZulXr161r/L27x+ss13BIo6jrP2bAdWfQCquOy7tZTCfiTAhzof7jbLpk2bkC9fPptNlG0iIAIBIHD48GHs378fBw4ccP+wNfypU6fAVvHnkpQpU4Idqvg3W60nT54cqVKlcv/wv/FPmjRp3H9Pmzat+3fq1KkDQFImioAIBIXArl27kDNnTqvNLVu2LBYtWmS1jTJOBAwiUN9xnIlnO7AeBDDEICWlighYSyBPnjzYvn27tfbx4+3kyZPux5tEBERABEwjcPr0adcB9fe/t23bhlWrVmHlypX45ZdfsHr1avef6bCKtSRLlgx8LvCDL0eOHMibN6/775deeqm7EVCgQAH3v9HZRYcY//D+yj88VyICIiACphGgg/748eOmqRU1fXhP3rJlS9TG00AiIAIXJNDWcZx3znZgsQpdV4ETARGIPQF+dPDDyVa54oorsGbNGlvNk10iIAI+InDw4EEsX74cS5YswbJly1ynFCOqjhw5gqNHj/75N6OqTBY6qhiplS5dOjeCK3369MiQIQMKFSqEq666ChUrVnT/0AEmEQEREIF4E6hUqRLmz58fbzViNj+jablZKxEBEfCEwIuO4zx7tgNrFID7PJlek4hAgAnwg4kfHjbLjTfeiG+++cZmE2WbCIiAQQS4y0+nOSOn+Pe6devcvzdu3AhGVgVJsmXLBm4i8E+JEiVQvHhx95+LFi3qRnBJREAERMALAvfddx8++OADL6aK2xyHDh1yNxIkIiACMScwynGcFmc7sKYBqBHzqTWBCAScwI4dO5A7d26rKXTu3Bmvvvqq1TbKOBEQgfgQYE2qPXv2uGnYkyZNcovozp071+qo1miQZtRWtWrVwA2GmjVrupFadHYxoksiAiIgAtEm0KNHD/Ts2TPawxo1HjdIbH+nNwq4lAkygemO49T804GVkJDAAgpzAVQMMhXZLgJeEFi/fj0uv/xyL6aK2xz9+/dHhw4d4ja/JhYBEbCLACNXx44di5EjR7qpgPx31qZKSEiwy1CPrGE6IuvTMBqYTUWaN2/utrxXJIFHC6BpRCAABEaNGoUWLdyACWuF0b5FihSx1j4ZJgIGEVgAoLLjOGccKpWQkMBKy2yJVsogJaWKCFhJgB9f7Fxis4wfPx4NGza02UTZJgIiEEMC7GA1efJkTJw4EUuXLnVTA20uBhxDlCEPzfpaTDO88sorUaNGDbBFPIvHS0RABEQgEgIzZ85E9erVIznVN+ewozhrEEpEQARiTmAFgLKO4/yR6MBiUYSVAORCjjl7TRB0AnPmzMHVV19tLQZ2IGTRzvLly1trowz7iwA7ue3du9ctis1aEIyKYVFT/vdEYaHTxOLTGTNmRJYsWXDJJZeoe5oupD8J0DnFrn+8P3722WeYMWMGTC+qbvvyMUqLzqy7777b/QhlPS2mHPIeLxGBM2fOuPf9xHs/oyJPnDjh3vv5/yi897PuGqP9GN2XKVMm9xrif5fYT4BNM7hhm3g92GjxTz/95KZmS0RABGJOYAOAEo7jnEx0YKX5bwH39QDyxnxqTSACASfw/fffo06dOtZSYIdFRkzwY0diHwG+iNKxMG7cOLz33nv44YcfIoqM4cdMrVq1wCKvN910k+vg4gezJDgEeC3t3LkTb775plszTw4rs9eejis6sl588UVUqVLF/b3KmWX2mkVTO/5e6Wj+6quvMHr0aEydOtVN5Q1X6Ly67rrr0KxZM9c5SueW7v3hUvTH8dyUKFOmjNWd+qZMmYLatWv7Y0GkpQj4m8BWBls5jnM80YHFCp6bAGT1t13SXgTMJ/D111/j5ptvNl/RCDWkI2LFihWqCRAhP1NP27x5M4YMGeJ2l2R3tyNHjkRNVdbhKVy4sPtx3KVLF+TPnz9qY2sg8whwx3rgwIFupCa7BKoNuXlrdCGN6LTKmTOn29mwcePGrhM6c+bM/jJC2oZMgHU7X3nlFTAd7Ndff43IaXW+yei8Ytoqmwo88sgj7nNAYg8B3t9LlSoV1WvGNDp8p+cmnEQERCDmBPYCyO84zpFEBxb7f+4AoFY0MWevCYJO4NNPP3V3HW0VdrRivZrLLrvMVhMDYxcdC4wYHDFiBFjXjOmBXgiLSbdu3RoNGjQAI/ok/ibAtCI6q9gx8JNPPnHvDxJ7CDCakp0Nb7vtNrd2Vp48eewxLqCWnD59Gl9++SWGDRvmdvn0IgWMkVmsu9aqVSvUrVtX3TEtuPa2bt2KYsWKgZ1jbZUxY8ZY/U5v67rJLl8SYMhvbsdxDiU6sC4BsAeA8jd8uZ5S2k8E3n//fbfjk63CGkeM0FFbYf+uMFO55s2bh3bt2mH58uVxM4S78exiVLFiRTfFUOIfAqyDw/RAOj6Zcvb777/7R3lpGjGB5MmTu6lhTz/9tLuJwehKiX8I0Nn8888/4957743rbzZv3rwYNGiQ68hKk4ZVTiR+JMBmHIzUPHDggB/VD0lnvqMwClUiAiIQcwIsrpjVcZwDiQ6sogBWx3xaTSACIoB3330Xbdq0sZYEi3OzrTALtUr8R4DRMY0aNXLX0ISaRNyVr1SpEsaOHSunqE8uJ0aZ9u3b1y3KzsL+kuARYORkrly5cM899+D555+XA9oHl8CWLVtw5513utGSf2/CES/V6QxlF8wPPvjA6sY38eLrxbws8F+kSBG30YutMnToUDdiXCICIuAJgWKO46xJdGDdAGCSJ9NqEhEIOAHWfnn44YetpZA1a1awZgYdWRL/ENi3bx+6desGvoxxF940YWrqk08+6dbI4j9LzCKwaNEiN1qOBZ5ZJychIcEsBaVN3AgwerJ+/fpo0aKFW/9RacFxW4pzTsx6hv369XP/RFKUPdbW0JFFR+gLL7yg+oixhh3l8Zk6WKhQIezevTvKI5sz3IABA9C+fXtzFJImImA3gfqO40xMdGAxHOQdu+2VdSJgBgF23OrUqZMZysRAi+zZs7sfsKyLIjGfAGubzJ4929153759u/EKs9D78OHDVezXgJXi7vrcuXPRp08fTJ8+XU4rA9bEdBWYGkZHBDvx5suXz3R1rdePm033338/fvzxR+NtzZQpEz766CM3rVBOUOOXy1WQdTMZRcdUQlvljTfewKOPPmqrebJLBEwj0NpxnGGJDqzu/9Wuh2kaSh8RsJEAU2ueeuopG01zbcqRIwd+++03tzW2xHwCPXr0QO/evT0p0hstGvyQYSe7K6+8MlpDapwwCNDp+dJLL7kRGwcPHpTjKgx2OvR/BJgafNddd2HkyJFyRsTpomB9w2uuucb9DftFkiVL5hZ5f+cd7bn7Yc3YCIZdhXfsYJ8wO4UbOIwMl4iACHhCoIfjOD0THVjDALT0ZFpNIgIBJ8CCxs8++6y1FFj3hAWbU6VKZa2NNhjGF0t2w2TKlx/TvXh9vf3221bXkzPtOlu5cqVb2+rbb7+1ekfdNO4268N0YEbUdO7cGdddd53Nphpl25AhQ9CxY0fwOeBHYSQuG0RwM0NiLgF2s2SkpR+iuyOlyIjS//znP5GervNEQATCI/Ce4zitEh1YEwDUC+98HS0CIhAJgV69eqF7dwY92insPkgHFnfYJWYSYIpnw4YNQYeEn4W78T179kTXrl39bIbRuvMDhCmmw4YNw8cff4zjx48bra+U8ycB/pZZJyvRkaUNkNitI++ZjLz1u+TMmRPTpk1DyZIl/W6K1fpfeuml2Lp1q7U28vfE+qESERABTwhMchynXqIDi33SS3kyrSYRgYATCIIDa/PmzWDhVYl5BOhcrFChglVFVfmbYlQjP4Il0SHANMFNmza5hbdnzJgRnUE1igiEQKB06dIYMWIE+Lc2QkIAFuIh/E3zQ5sRI7ZIxowZMXPmTFx11VW2mGSdHXJgWbekMkgE4klgueM4pRMdWHsAZI2nNppbBIJCgB/aTCO0VRiBJQeWmavLOhRXX321W2TfJqHjiikxamUdnVVdvHix2yl14cKFiriKDlKNEiYBOq4YWTNo0CD3niVJOgHeIx966CFfpoxfyHpGYjFKtHDhwkmHpBGiTqBYsWJYs2ZN1Mc1ZUCmD9rkFDaFq/QQgfMQ2Os4TjYnISGBYRJ/CJMIiIA3BPiwYwFkW4VdpujAchzXPy4xhICtzqtEvIz4Gz16NBo3bmwIcX+pwTpoS5cuxauvvooxY8b4tjaOv6hL24sRoHO6QYMGbuOTa6+9Vs+ViwE7z/9n97777rsNlXU8AAAgAElEQVQPTAm2UfLkyeNGYhUpUsRG83xtU4kSJfDLL7/42oYLKf/MM89YvSlt7cLJMD8TSEEHFnvdH/KzFdJdBPxEwHYHFl8k6cBSOpc5VyW7TNWoUQOLFi0yR6kYaJI1a1bMnz8fhQoVisHo9g7J3+trr72G119/3V4jZZnvCdA5/fzzz+Pyyy/3vS1eGrB+/XqUK1cOhw7Z/arPCKy5c+cie/bsXuLVXBchIAeWLhEREIEoE8hIB1ZOAPb2N40yMQ0nAkklYLsDSymESb1Con9+y5YtMXz48OgPbOCI3IFfsmQJ0qdPb6B2Zqn0xx9/gPXDGHV19OhRs5STNiJwDgJp06ZFkyZN3NTC1KlTi9FFCBw+fBhlypSxLm38fGbfeuutGDdunK4LgwgUKFDAbexjqygCy9aVlV0GE8hJB1Z+AL8ZrKRUEwGrCMiBZdVyGm9M3759wRcsFvANgjB1tU2bNhg8eLDSjS6w4HRo9uvXD6tWrQrCZSEbLSPAKMuOHTuiQ4cOSJEihWXWRccc3vNbtWqFkSNHWlf36nyEeP9nnVE65lXGIDrXUVJHsb2IuxxYSb1CdL4IhE2gAB1YRQGsDvtUnSACIhARAdsdWLly5XK7l6l7VESXR1RPYuHUypUr48CBA1Ed1w+DffPNN7jxxhv9oKpnOvKDdsGCBeA9aMqUKZ7Nq4lEIFYEKlWqhDfeeANVqlRR59uzIH/55Ze47bbbYoXe2HEzZMiAOXPmoFQpNVeP9yKxtiIdWNu2bYu3KjGbXw6smKHVwCJwPgLF6cBi79nFYiQCIuANAdsdWOwIxHBxpXd4cz2dbxamhDFKYefOnfFVJE6zFy9eHCtWrFAttv/nf+rUKXTp0sX92JeIgG0Emjdv7qYVpkuXzjbTIrKHzmp2f1u3bl1E5/v9JKaQb9++HXRmSeJHgE0D8uXL566FrSIHlq0rK7sMJlCWDqwqAOYYrKRUEwGrCPTs2RM9evSwyqa/G5MjRw5s3LhRHxJxXmGmDrJzV5Cla9eu6N27d5ARuKlDn3zyiZtG+uuvvwaahYy3mwAjPfibb9u2beDTx/h7f/nll+1e8ItYx3etbt26BZpBvI0/efIk8ufPD3ZBtlX4Pt+9e3dbzZNdImAigap0YF0PYLqJ2kknEbCRAGsz2Pywy5Ytm/uhnDFjRhuXzxc2sWU1U2tYwDfIkjdvXteZGtR01rVr17oOvNGjRwemBlqQr3fZDtdxdfPNN7tt7YOaQsZoy4IFC2Lr1q2BviQYjceuhFdeeWWgOcTTeEaC81rctWtXPNWI6dxylMYUrwYXgXMRqEkHVj0AE8RHBETAGwIvvPCCu0tsq2TJkgUbNmzAJZdcYquJxtvFTkxfffWV8Xp6oeBzzz3nFvQNkvADduzYsW4x+6A7MYO07rL1LwJ0XgwYMABNmzZFqlSpAoWGUUdBjzxNXPCbbroJX3/9daDW3yRjDx48iMKFC2PPnj0mqRVVXegsZ8SjRAREwDMC9ejAugXAl55NqYlEIOAEbE/typw5Mxj5wVRCifcEVq9ejdKlS4NODAncws6MwmIdjiAIa43ccsstWLhwIVh/RCICQSWQLFkyXHXVVWAx88suuywQGNhAhbUP9dv/33LTeck6YEFZf9Mu8r1796JIkSLYv3+/aapFTZ8+ffq49SUlIiACnhG4lQ6suwB84tmUmkgEAk7gzTffRKdOnaylwKKpdKIwfUviLQHWm2Dq4NKlS72d2PDZWLj80UcfNVzLpKs3YsQIMOJs8+bNSR9MI4iAJQTy5MkDpvkwItF2Yd0rRYP8c5XZoXLmzJmBTSWP5zXP2ldFixYFI7FslaC8X9i6frLLlwTuogPrPgCjfKm+lBYBHxJgp6T27dv7UPPQVE6bNi1Wrlzp1j2QeEtg3rx5qFatmnbfz8KeNWtWdxee6a02CuuLPPvss3j33Xfdou0SERCBfxJgbax7770Xr7zyCnLlymUlHqZpMV3LZmdBJAuXIkUK/Pzzzyhbtmwkp+ucJBBgR+qSJUviyJEjSRjF7FMHDhyIhx56yGwlpZ0I2EWgOR1Y/NUNtMsuWSMC5hIYPnw4WrZsaa6CSdSMIfvLli1zd90k3hJo0qQJxowZ4+2kPpnN1lpYS5YswfXXX48DBw74ZCWkpgjEjwAjhBmNY6Mzg81hglbvL9QrqXXr1hg6dGioh+u4KBHgxhGL6J84cSJKI5o3DDeOWrVqZZ5i0kgE7CXQjg4sJu72sddGWSYCZhH46KOP3MKytgprDi1evFidfzxe4BUrVqBMmTLqNnce7mzlze6YrItjg/zxxx94/vnn8frrryviwoYFlQ2eEciUKZObUsxi54zOsUWuuOIKN9JU8m8C3FhbtWqVG6Em8Y4Ao/FZh47PK1uF7/TcPJSIgAh4RuApOrB6AOju2ZSaSAQCToAFZW+77TarKfz0009uKpvEOwKMMKJDQ3J+ArbslLLG1RNPPIFPPvlEKYO64EUgAgJMKeRHZ79+/XDppZdGMIJZp7z//vto3ry5WUoZpg0b6Dz55JOGaWW3OkzdZA0ym1PbP//8c9x+++12L6SsEwGzCHSnA6sfgCfM0kvaiIC9BKZMmYIbbrjBXgMB8GW6WbNmVttoknF8OWSYPnc7Jecn0KNHDzDNxs+yZs0a1K5dW4Xa/byI0t0YAozMnDhxIooXL26MTpEowiL1vL9Jzk+gevXqmDFjhhB5SOCLL75Ao0aNPJzR+6kmT56MOnXqeD+xZhSB4BJ4hQ4s1r9S9bngXgSy3GMCs2bNwjXXXOPxrN5ORyeBXqa9Y87i7VWrVrV6lzMaNP3uwGL9PHYwVZHmaFwNGkME/kcgc+bMGDBggFvk3a8iB9bFVy5lypRgUfHcuXNf/GAdERUCbJpge9Tb7Nmz3fcviQiIgGcEBtGBNQyAvRWlPWOpiUQgNALLly9H6dKlQzvYp0cx+opRWBJvCLCmGuswSC5M4LXXXsNjjz3mO0zHjh1D165dQf0lIiACsSHwzDPPgKnY7KTrN+G94fHHH/eb2p7ry/to7969PZ83qBO2a9cOQ4YMsdp8Ni1iBLxEBETAMwLD6cDiV4+qz3nGXBMFncCmTZvAtAWbpVKlSmBUkCT2BOjcYJvqjRs3xn4yn8/gRwfWvn373HTcb7/91uf0pb4ImE/g1ltvxahRo8BC734SNnPo3Lmzn1SOi658VrJzq03F++MCMsRJ2SH3hx9+CPFofx7GqL7LLrvMn8pLaxHwJ4GP6cD6AoDdFaX9uTjS2lIChw4d8t3LcbhLwVbltFMSewI7d+5EoUKFcPTo0dhP5vMZ/ObA2r59O8qVKwf+LYkPgTRp0iBv3rzIly8fcubM6f7JkiWLew/nH97r0qdP734Qp0uX7rwfxidPnsTx48fdblxHjhzB4cOH3VRQ/qGTcs+ePdi2bRu2bNkCbnLweEl8CPBjdP78+e5a+0XkwAptpbJmzep2auRvWBJ7AvwN7dq1K/YTxXGG/fv3u2nIEhEQAc8IjKMDayKAup5NqYlEIOAEzpw546Yo2P6BQsdKjhw5Ar7asTd/woQJaNCgQewnsmAGPzmwpk+fjvvuu0/F2mN43fGjo1SpUihRooRbxLtAgQLuPStbtmzgh+4ll1ziOqXYsc5LYVMGOrjo2Nq7dy92797tOjE3bNiAX375BStWrMDq1atx4sQJL9UK1FyFCxfGyJEjce211/rCbjmwQlumZMmSYdGiRShTpkxoJ+ioiAnQsWO7o5AbHNw89PoZEfGi6EQRsIPABDqw2JKjuh32yAoR8AeByy+/HOvXr/eHshFquWDBApQvXz7Cs3VaqAQefPBBDB06NNTDA33cwIED8dBDZvcsofPiyy+/RPPmzRXFGKWrlU6oggULumkedFhVrlwZFStWdCMX+UHrR2E0F51ZCxcudNO12Z2SqSyK3oreatKZycYJN954o/EfqIMGDUL79u2jZ7zFI7HOWa9evSy20AzT6Gi3vTYUHd22v8ubcTVJCxH4B4Ef6MCaC6CywIiACHhHoFatWpg2bZp3E8Zhpq+++go333xzHGYO1pR58uRRilmISz5s2DC0bGluzxI6rz755BO3G9rp06dDtEqH/Z0AHVKJ6Xy33XYbWrRogRo1agQGEq8b1kv74IMP3L8Z6Xvq1Cl1KI3wCkiVKhUY5cpryOQoi/feew+tWrWK0MpgnUanCgtvS2JL4LvvvnOdvzZLnTp1MHnyZJtNlG0iYCKBBXRgLQRQzkTtpJMI2EqgdevW4Me0zdK/f3906NDBZhPjbhtrS/ipTku8gZnuwHr55Zfx7LPPgmnGkvAIFC1aFOzGWbt2bTcVMHfu3EiZMmV4g1h2NFMMWVeLDR74kTVmzBhFC0SwxsmTJ3c7gHbs2DGCs705RQ6s0DnTEcnUXKYIS2JHYPDgwcZHPCfVejqN33333aQOo/NFQATCI7CIDqyVAEqEd56OFgERSAqBV199FU888URShjD+3E6dOoF1OSSxI8A0TaZCSUIjYLIDi/cD3hckoRFgOuDVV1/tOqxq1qyJK664IrQTA34Ua2cx+pedwX788Uc35VBycQJ0YvXu3RvPPPPMxQ+OwxFyYIUHnZ0IVQcrPGbhHt2lSxf069cv3NN8dXyfPn1AOyUiIAKeElhFB9YaAHrz85S7Jgs6AabXsV23zdKwYUOMHz/eZhPjbhv53nLLLXHXwy8KmOjAYooXX4DffPNNv2CMi56MpmK0IetX0TlevbpKd0ZjIWbNmgVGy86cOdPtFmZ7c5GkMuvatSu6detmXHSfHFjhraxKHITHK5Kjb7/9dowbNy6SU31zDutV6h3MN8slRe0hsJ4OrI0ACthjkywRAfMJ/Pzzz6hatarVqUJM6eFuvyR2BBi63qZNm9hNYNnII0aMcGsimSRcPzrWWP9K8m8CrEHEwvtt27Z1i7BnyJBBmGJAgF0Pt2zZAhYDZ+qPOhyeGzLTz5hK+MYbb8RgFSIfkh0T77///sgHCNiZQ4YMARugSGJHgBFuNtcaY73FOXPmoFKlSrGDqJFFQATOReA3OrC2AcgtPiIgAt4RYPcoPtxZXNdW4Ycn2yinTZvWVhPjbhcjAZjWIgmNwKeffoo777wztIM9OIqOGToLJP8kwK6BjRs3Bnfwr7/+emTKlEmIPCRAZxbTCxk98eGHH6ob5jnYm5Yi/9lnn+Guu+7y8Crx91SsNfj888/72wiDtee7bcaMGa12hDMqeOnSpShevLjBKyHVRMBKAtvowNoJIIeV5skoETCUAHe6L7/8crAVus0yY8YMpfrEcIHbtWsH7iRLQiPAbmL16tUL7eAYHsWX+yeffFJpg39jzM6BV111lVuIndFW6dOnj+EKaOhQCTClkJGedGSx5p7tz6xQufC4//znP+jZs6fb9TLeMmXKFNxwww3xVsM38zMSlxG5ktgQmDt3rptlYLNwc3bdunXImzevzWbKNhEwkcAuObBMXBbpZD2BQ4cOuQ897nTbLIwOYs0QSWwINGrUCF988UVsBrdw1IULF6Jcufg33WX0hmpe/XWB3XHHHW4aJSOtmKIlMY8AU1zpvHrkkUcwfPhwq9PfQ6XPa5X1wx5++OFQT4nZcYwEoQNYEhoBbmRwQ0MSGwIvvfSS6+C1WZjOzi6vSmu3eZVlm6EEXAfWEQDpDFVQaomAlQT4MXDppZe6Dz+bhR3CuDMsiQ2BunXrYvLkybEZ3MJR6TCOd2RP9+7d0atXLwvphmdSgQIF8Nxzz4HXMGtbSfxDgM8tdjLkdRz0Ood0YrF76GOPPRbXBTx48CAuueQS1dILcRWqVauGn376KcSjdVi4BBgNaPu7X758+fD7779r0yXci0PHi0DSCRyVAyvpEDWCCEREIAjRM8WKFXNrBLAeliT6BPgSPnv27OgPbOGI2bNnd7usxUvotGbUVefOnQP7kcmit9ddd51bPLlJkybgv0v8TYARoCz8PnXqVJw+fdrfxkSoPVMIGUHYvHnzCEeIzmk5cuTA7t27ozOY5aOULVsWixYtstzK+JjHtGNGA7LWq83CGo2ff/65zSbKNhEwlYAcWKaujPSynwA/ZplKZLNky5YNv/76q1vMUxJ9AnJghc60SpUqbsegeAidV6wHV6dOnUB+5KdOnRolS5bEmDFjcMUVV8RjCTRnjAls3brVbZBAp0AQ62SlSZMGM2fORMWKFWNM+vzDX3311XG7x8XN6AgnlgMrQnAhnMYSGYUKFcKePXtCONq/h7zyyit4/PHH/WuANBcB/xJwHVhnAKjohH8XUZr7lADr8VSoUMGn2oemNtMrWOSycOHCoZ2go8IiIAdW6LgY9ROvgvfTp093i8dzZzpIwt//zTffjBdeeAGMxmTXJom9BBiBxfs9Uws//vjjwNXJohOLaWnly5ePyyK3b9/ejYaTXJwAayHyHUwSfQIbNmxwNyrOnOHnpb1CZz0doRIREAHPCSTQgZXg+bSaUAREAH/88Ydb/PHEiRNW03j55Zfx1FNPWW1jvIwLQp2JaLGNVwdCdm676aabsGPHjmiZYvw4TA289dZb3bpA11xzjVIFjV+x6CrI10pGOzLK+LPPPgtU1CFru02cONF12HotvMc1aNDA62l9Od/1118PbixIok+gT58+ePrpp6M/sEEjMqqYkWbalDFoUaRKoAjIgRWo5ZaxphFgmPXGjRtNUyuq+lx55ZVuHSx1F4sqVnewu+++G59++mn0B7ZsRHb8/O233zxvd79//34wrcf2WiCJlwtf5ln7ZMCAAahcubJlV5HMiYTAkiVL0LZtWze1MCgRiEwjpHPE64YRjHhhYWnbm8NEch2efc5dd92FTz75JBpDaYy/EaDzukyZMli+fLnVXPLnz+++U0hEQATiQ0AOrPhw16wi4BIISgoYo09y5sypVY8yARYEf/3116M8qn3DsaW31zvCx44dc9ML1qxZYx/Qc1jE3zcL2latWhXJkycPhM0yMjQCTC2cO3eu63DfsmVLaCf5/Cg+2+nE8jpCo1+/fujSpYvP6cVefUaFMzpcEl0CO3fuRK5cuaI7qIGjxbOmpoE4pJIIeE5ADizPkWtCEfiLAHcBmWJhu7C47bXXXmu7mZ7b9+6776JNmzaez+u3CZctWwZGAnol/GBnPZqhQ4da33Ewc+bM7ofgPffcA/6zRATOR+DgwYMYO3asW/h43759VoNiGi2d5qz/5qWsWrXKbZgguTABPjtbtWolTFEm8MMPP4DpmbbLHXfcEYh3d9vXUfb5l4AcWP5dO2luAYEePXqgZ8+eFlhyYRPeeustPPLII9bb6bWBQXlZTArX4sWLu+kMXkYFMYWuQ4cOSVHb+HNZsJpd51577TXkyJHDeH2loDkEGJHLKCEWerc9rXD06NFo2rSpZ/DpPGeBcjrtJecnwOi4IDhavL4G3njjDbf2oe3SvXt38P1dIgIiEB8CcmDFh7tmFQGXwFdffeUWO7ZdWFj222+/td1Mz+3btWuXG66vXhznRs+6a6y9w7pMXgnnY/0nNmmwUcg0e/bsmDp1qqdRbTayDLpNq1evdtPoGY1l6z2MjVpWrFgB1szxStg4olKlStYyTSpH3sO2b9+usgZJBXmO8+vXr+82MbBdxo8fj4YNG9pupuwTAWMJyIFl7NJIsSAQYLFVFpi2XdKlSwc6W/i3JLoErrvuOvz444/RHdSS0ZhKw+grrxoIHDlyBKVKlbK2uGuKFCnw/PPP4+GHH3Y7qEpEIKkEDh8+jP79+6Nbt27WOn15H6JTiVGLXgidgZwzKM0jwmVaq1YtfP/99+GepuMvQoC/ZUbjHj9+3HpWW7duRZ48eay3UwaKgKkE5MAydWWkV2AIXHbZZdi8ebP19n7xxRe47bbbrLfTawODEsUXCVem5/LD2Auh86pRo0aYNGmSF9N5Pgdr2DE9pEKFCp7PrQntJzBnzhywKQX/tjEa695778V7772HVKlSebKYvXv39uze54lBUZqEmxlff/01brzxxiiNqGESCbAjMhs12C58Z//9999tN1P2iYDRBOjAOgPAMVpLKScCFhNo3LhxINo533fffRg1apTFKxkf0/bu3YsrrrgC/FvyFwGmufElM23atJ5gYS0oFqe2TRg1yWLH7HbpZR0x2zjKnosTYP0m1o4bOXIk2MXTNhkxYgRatGjhiVnkV6BAATfyWfLP5wI7w2bJkkVYokygWbNmYM0324W1H+msk4iACMSNQAIdWEcAKK8nbmugiYNOwNYP37PXtUyZMliyZEnQlzvq9jNagcVo2elR8hcBL6OvmMJZu3Zt6wpSM02Q9Uyuvvpqz9IwdQ0HmwDvZ2xOUbduXet+T0whZCqhV10C+/bti6eeeirYF9RZ1tepU8eNkvUqrTxI8EuXLu2m7Nsur776qhstKhEBEYgbgaNyYMWNvSYWgf8RmDBhAljk3HZJnTo1WDcga9astpvquX2zZs0CU7xsTL2JBCY/FLnLzlD/WMupU6dQtmxZrFy5MtZTeTo+C9QOGTIkEDX6PAWryUIi8Ntvv7nd+3hvs0mqVKnipkl6IXzeFilSJBA1iULhmSxZMrepBzfTJNElsHv3bvdZweeh7cJ39nr16tlupuwTAZMJyIFl8upIt2AQWLt2LYoWLRoIY1mPiJExkugTqFmzJtgaPOjCj5TBgwejTZs2MUfBToNt27Z1a9vYInQ0P/roo+jTp48tJskOHxPg75i/rzNnWO3CDnn22WfRq1cv8F4Vaxk0aJCblmkTv0iZMaovCB3yIuWTlPOefvrpwDwz2D01KO/sSbkmdK4IxJDAEUZg7QGgkIgYUtbQInAhAidOnPCsO1G8VyJz5sxuTY6UKVPGWxXr5h87dixYmyHowqgrdt/youMlUweZvmnLx6EKHAf912Om/R988AGaN29uTYQpa8nNnz/fjdyMtbC5RIkSJbBp06ZYT2X8+B999BGaNGlivJ5+U5BdB7Nly4ajR4/6TfWI9OU7u1fNGCJSUCeJgP0EdtGBtRNADvttlYUiYC4Bput888035ioYJc1SpEjh1kgoVqxYlEbUMIkEGLp/zTXX4Oeffw4sFH4Ysr4J26THWnbu3AnW/ODfNkj+/Pnde1CpUqVUH8aGBbXIBjqImUp46623WtOsgo03Fi5cCNaZi7VMnTrVrSnGIvlBFToLmbrJCFNJdAmsWLHCdcYyItl24T1o3Lhxtpsp+0TAdAKuA2srgDymayr9RMBmAkGKnmFKQ7t27WxezrjZNnv2bFSvXj0QL5Lnguxlp0tew6wRZYOwSDujE9i1TCICphKYN28e+BtnfTsbpEuXLp6lXbVu3RrDhg2zAVvYNnBjg048Phsl0SfAouZPPPFE9Ac2cMQxY8bg7rvvNlAzqSQCgSKwnQ6sjQD01hqodZexphE4dOgQsmfPbl3XpXNx5s4zU7y8qP9h2jrHWh8WcWdDgCDW+eDvh9cVUxliLdzJZ9F8v0c0MGWwfPnybu00LyJBYr0uGt9+Alu2bAELofNvvwvTkJYtW+ZJPZ09e/agePHiYLHtoEnlypXBzR29c0R/5fkMZD2oDRs2RH9ww0bk75W/n4wZMxqmmdQRgcAR+I0OrHUAigTOdBksAgYRYE49XwJ+//13g7SKnSp0APAjRBJ9AseOHcOVV14ZiBfKRHrcYf/hhx9QrVq16AM9a0TWlGG6xLp1fHT6W+666y6MHDkSadOm9bch0j5QBPbu3Yv69etbkS7NezXTvtk5NdbCNExGIfnd8R4OJ3bGW7VqFTJlyhTOaTo2RALTpk3zJGU/RHViehjT7Bn9qTTUmGLW4CIQCoG1dGCx93eJUI7WMSIgArEhwBoffLH86aefYjOBYaM+/vjjeOWVVwzTyh51Pv/8czfMPQgfKtxV79u3Lzp37uxJ7SbOxY5LjHbzszAF8u233wadfxIR8BuBw4cP45577sHXX3/tN9X/oS9/f0OHDsUDDzwQczt4z3rjjTfcdC9bGk9cDBrZMn1SEhsCHTt2RP/+/WMzuGGjssYoN8oUyWfYwkidIBJYRQfWQgDlgmi9bBYBkwj07NkTPXr0MEmlmOnCaDOmezGFSRIbAl27dsULL7wQm8ENGtXLulcrV650i5z7Wfib4wcsHXESEfAzATauaNq0KVhD0s8OZTqx1q9f71kNOnZ0fP/99/289CHp/uCDD1pTpzAkgz0+KEjpg0TL9/Pu3bt7TFnTiYAInIPAIjqw5gKoLDwiIALxJWDDx3E4BL/77js3DUQSGwL8uKtUqRKWLFkSmwkMGPXGG2/El19+CXa39EKaNWuG0aNHezFVzObgC3i3bt20ixwzwhrYSwLsfNaoUSOMHz/ey2mjPleHDh08i2Sh44GdjydMmBB1O0wZ8LLLLgO746leUexWhJHed9xxR+wmMGxkXk8lS5Y0TCupIwKBJDCPDqwZANSaI5DrL6NNIsAd5EKFCuG3334zSa2Y6cLOZzNnzlQKU8wIAwcOHAA5swaIbcLaMVOmTEGuXLk8MY0fe7fccgvoGPSrMCqvd+/eflVfeovAOQnQIdOqVSu3nptfhXV12CnPizp+ZLRz507Url0by5cv9yuy8+rN9yjW2cyZM6d1tpliEB3HvFZZvy0Iwg69v/76q7IGgrDYstEPBH6gA+s7AAqD8MNySUfrCTAd6oMPPrDeThrIndG1a9d65oAIBNRzGMmXLkYqMWXTFmHnPBaP9aowL53LjGZbsGCBbxEybbBfv36+1V+Ki8CFCNCJxVpHI0aM8C0odjZljR2vUusPHjyImjVrYuFCVhKxQ+i8YnR3sWLF7DDIUCu2bt3qdrVkB+0gyL333huYd/MgrKds9D2BSXRgfQHgNt+bIgNEwAICgwYNQvv27S2wJDQTWKPpP//5T2gH66iICWzcuEzwLr8AACAASURBVBF0+uzbty/iMUw5sUyZMu6uL1taeyXTp093P/T8KPwYZorVp59+6tmHsR85SWf/E6ATiylNX331lS9rYvG3SmcSu5x6JSdPnnSd80uXLvVqypjNww0NNsJhdK4ktgSeeeYZvPzyy7GdxKDRBw8ejLZt2xqkkVQRgUATGEcH1kcAmgQag4wXAUMILFu2DPxAD4pkyJDBTZnMmjVrUEyOm510Yl133XXYvHlz3HRI6sQVKlRwu47lzp07qUOFfP6ePXtQsGBBsOuZH4XOq48//hgpU6b0o/rSWQTCIsAU38aNG+OLL7g36z/hs5BRs15Fl5LQ9u3bcdNNN/k6EovpgrNmzUKRIkX8t+g+03jXrl1uw4Fjx475TPPI1aWDt3Tp0pEPoDNFQASiSeBjOrDeAxD7/r3RVFtjiYClBFhXgB/LW7ZssdTCf5vFuiXsiiSJPYH9+/ejSZMmmDhxYuwni+IMjEy4+eabMWrUKGTOnDmKI198qOHDh6Nly5YXP9DAIxo0aAAW2k2TJo2B2kklEYgNgaNHj+Kuu+7Ct99+G5sJYjzqhx9+iHvuuSfGs/xzeD4bWMLgm2++8V30Wq1atdzmGl5ubHi6OIZNNmzYMDddNyiSN29ed6PVq2YxQeEqO0UgCQTeowNrIICHkjCIThUBEYgiAXYJ69WrVxRHNHsoRgUxRStZsmRmK2qJdnSSduzY0W0vfubMGeOtYuQQQ/f79+/vua4sgl+qVClfOpSvuOIKzJ49G9myZfOcmyYUgXgTYG2e6tWrY/HixfFWJez5L7/8cre4Ogu7ey0PP/wwhg4d6otmFXxnYPH+gQMHyrng0YXCdwY2hpk3b55HM8Z/GjU/if8aSAMROIvAIDqwWNX1CaERAREwgwDTCMuVKwfW8wiCMLpm8uTJbkckiTcEeG3Nnz8f9evXB3feTZbx48e7Rejj4eBkjTa+vPpNmH7ED2C2kpeIQFAJsNMeU/J37NjhOwQDBgyISz1MOijYcZUphSYL73Es1l6lShV1MvZwoXht8HnMxiZBkOTJk7tOcNVVC8Jqy0YfEXiFDqxuAHr6SGmpKgJWE9i7dy+4A2tDwe1QF4opAN9//32oh+u4KBHYtGmTG+337rvvRmnE6A3D9LfXX389rt2kSpQo4bvujVmyZHF/S3SCS0Qg6AQ2bNgAPl+YAuQnoeNtyZIlcVN53bp1bqQunUSmSZs2bcAi4uw4KPGOAJ1WNWrUcDtlBkVYk47dslWnNSgrLjt9QqAnHVhdAPTxicJSUwSsJ8CXBHY8mzFjhvW2JhrIVAl+aLDWgMR7AkzhfO6559y0AHaliqewCG/nzp3jEn3wd7uZlsJ0Gj8Ja3SwWxLTaiQiIAL/IzBlyhS3O+HBgwd9heT9999Hs2bN4qoz7yd9+/Z1C8vHU5hKXrlyZbfz3bXXXhtPVQI7N2uzMjU9SMXbmYbM9yNmCkhEQASMIfAkHVisf8U6WBIREAFDCLDTGotWB0mqVavmtsCWxI8AO+2wg9eaNWs8r4/FDxQ6rp5//vm41zNhx8HChQuD3Zb8JD179kS3bgyqloiACPydwKeffoq7777bV1By5crlOo7Spk0bV72Zct6nTx83WvfEiROe6sLUcUbCsplGpUqVPJ1bk/1FgBurjOqNZ1RgPNZj3LhxuPXWW+MxteYUARE4P4H2dGDdB2CUKImACJhDgIW28+XL58vaHUmhyFoDV111VVKG0LlJJMBrjw4sOlHfeecdrF+/PokjXvj04sWL4+mnn0a9evWM6SLFLo2sAeOnOnQsrMtIk3Tp0sV0vTS4CPiRAO9rdMD07t3bN+qz/s7UqVPdYvQmyLZt29x6lS+99FLMU6sZ6cNI0oYNG7pp5OoAF98rgDUzg+ZAzJkzp9vARddefK89zS4C5yDQnA6sOwF8KjwiIAJmEbj99tvB3Z8gSdOmTd122BIzCLCg78qVKzFz5kw3vXDVqlVYvXp1kgq/s/gu67vQ4UIn0fXXX2+Gsf+vBT90GQ34888/G6XXhZQpWLAgVqxYIeeVb1ZMisaDAO9nrK03adKkeEwf0Zzs0jtt2jTjCpXzmfDll1+6nU4Zucuo1UjlkksucVPT2PGVaYLXXHONWzQ7Ho07IrXB9vPuuusufPbZZ7ab+Q/7+A7++eefB8pmGSsCPiFwNx1YtwD40icKS00RCAyBYcOGoXXr1oGxN9FQFgjlS7vEXAKMyuIHDHdl2TVz8+bNoOOHEUv8SKTw44MRBEx/4ccJP0pYALZq1armGga49S5Yg84vwvpxLLTsJ539wlZ62keATVIY5ct7ll+ETiLT75tz5sxxo7Po+GfR66NHj/7recBnAlPFL730UtdZRZu4WcDng8RcArNmzXKf30ETRqCzYYBEBETAOAK30oFVD8AE41STQiIQcALsQpg9e3bPaxHFGztbNH/zzTfxVkPzh0GATqtTp07964OFoff8YPFTAVS+sJrYlfF8y/Hiiy+6HbkkIiACoRH49ttv3ehPv0iHDh3Qv39/v6gL1kvi84CbGokbGtzMSHRgKbLKN0vpKnrbbbe50XZBEr637NixA+zqKxEBETCOQD06sGoAmGacalJIBEQATZo0wZgxYwJFghElTPEwpe5HoOAH3Fh2KWM6Hp3HfhBGKvJjPEOGDH5QVzqKgBEE6FTp2rWrW8vJD5ItWza3Sy/TryUi4CUBRl/VqlXL8+L9Xtp4rrnY8CFo797xZq75RSAMAjXowKoCYE4YJ+lQERABjwj4bac4WljYAW758uVx774ULXs0jj8IvPDCC+6HrR8kc+bM7m+EzR4kIiAC4RE4dOiQm0rILn9+kL59++LJJ5/0g6rS0RIC7DhZtmzZmBfsNxEXswCYDSARAREwkkBVOrDY8muxkepJKREIOIHt27cjT548gaPAlLOvvvrK7UAkEQEvCDDdhS/rLIbuB3n99dfRqVMnP6gqHUXASAKs4VelShVfpOmXLl0aCxcuVEc0I68kO5WaMWOGW1uRKaFBE75758qVK2hmy14R8AuBsnRgFQPwi180lp4iEDQCQez+wjVm2gSdCXqJCNoVHx97t27dCkb+cdfZdKlfv75bJ061ZMJfqf379+ODDz4Am0VwzQ8cOIBjx4659dtYt4cfa6x/wuYDjHLLnz8/yLtx48ZInz59+BOGcAbnZ7Qt13TdunXYs2cPmM7692uRqdWcn3URCxUqhFtuuQXskqUW7yEAvsAhLVq0wKhRo5I2iAdnp0mTBhs3btTz0APWmgLufbFEiRLYtm1b4HDwnZvpg36q3Rm4RZLBQSdQjA6s/AB+CzoJ2S8CphJg7YvixYu7H1dBky5duqBPnz5BM1v2xoFA27Ztwa5DpgsdK6xLwmgxSegEtmzZgtdeew0DBgyIyEmZMWNG3HfffWjVqhXKly8f+sTnOZIRf4wA+uijjzB69GjXaRWuXHbZZXjuuefQtGnTmDnXwtXJb8ezo2rFihVBx6bp8uijj+KNN94wXU3pZwGB3r17o1u3bhZYEp4J3Lz45Zdf3M0siQiIgLEECtCBlRPADmNVlGIiEHACjAhg+oBfUpuiuVypUqXCqlWr9DIRTaga618EuNt8ySWX+ILMyy+/jKeeesoXupqgJO+fy5Ytc9vAHz58OCoq3XzzzRgxYoTboSrcXXrqwyir1q1bu1Fg0ZBSpUq50VsFChSIxnCBG4OOazqw/SC8V6mYux9Wyr867t27172XROt+6ScSvJfyeRHufd1PNkpXEbCAQC46sNi+6JAFxsgEEbCWwDPPPAN+uAZRqlWrBtZiUKpMEFffG5vZ9bJevXreTJaEWRgF9Pvvv/vG2ZYEU6N26siRI/HQQw+5aYLRFKbz3XHHHXjrrbfcVMNQhN0t77//fnz//fc4cuRIKKeEfEzWrFkxZMgQ3HnnnSGfowP/R4DRV0wVZWF304XXDrvCSUQgFgTYoZO1R7/77rtYDG/8mIr6N36JpKAIkEBGOrCSA/hDPERABMwlsHnzZhQtWjTqH2HmWvyXZnRcffjhh2BdAokIxIJAhw4d3NQyk4W/g6+//toXjjZTOLK2Ubt27WJ632STDX70MIKH6Z3nEqZ/Dx48GOxyuWNH7ALeWSeJNuteGf4VyA92RtaxFprJ0rlzZ7z66qsmqyjdfEyAUaE33HADTp486WMrIlOd929Gx+bNmzeyAXSWCIiAVwRSOJwpISGBxReyejWr5hEBEQifAIsIf/LJJ+GfaMEZyZMnd18sChYsaIE1MsEkAnQusJZQLB0L0bD32muvxcyZM6MxVCDGYMFr1gljypUXwpQbFoevWrXqn9GijGZYu3atW6OKHeS8ksmTJ6NOnTpeTWfNPJUqVXLrkpksdJgyClMRySavkj91Yx0+vmMFMXWQK3bvvfe693CJCIiA0QT2Oo6TLdGBtRxAKaPVlXIiEHAC48ePdztPBVX0chHUlY+t3Yy8uPHGG2M7SRRGnzJlCmrXrh2Fkewfgh382KmPtVy8FBYAZtt53qtZv+/pp592i2573dmSnVtZnDxWXRO9ZOrlXPx4ZaF+02XixImoW7eu6WpKP58RePLJJ/HKK6/4TOvoqfvVV1+5UZgSERABowksdxyndKIDaxKAG4xWV8qJQMAJHD161C2suXv37kCSYFHN9957z60hIxGBaBFgihlrB5kst956K8aNG2eyikbpxs6ldB7FS7Jly4bs2bNj9erV8VIBd999Nz7++GMVIw5jBdgZkjUXf/755zDO8v5QpqsyJVUiAtEiwA2Sm266KZCpg2SYM2dOsOO3nP7RuqI0jgjEjMBEx3HqJzqwhgFoGbOpNLAIiEBUCPBDmwWJ2ckqiMJUryVLlrjdvyQiEA0C5cqVw+LFi6MxVMzGUEpY6Gi3bt3q1guMdpH00DUw40h+iLEdfL58+cxQyCdaME2f6fomC+9ZXqakmsxCuiWdAOtdMX126dKlSR/MpyOwE2mbNm18qr3UFoFAEXjPcZxWiQ6s7v81vUegzJexIuBDAqxRwI8zr1NjTEJVoUIFzJ07F6yLJRGBpBBg/St+6PNvU4U1bzZt2qTrPcQFYkH1fv36hXi03Yc1atQIY8eOtdvIKFvHToSMnjO5iHXq1KndjolMWZWIQFIIcDP0gQceALu1BlUYMctahdoYDeoVILt9RqCH4zg9Ex1YrQC86zMDpK4IBI4AXzbYYSrIHyXJkiXDsGHDlEoYuKs/+gYzJbVVKz7+zBSmzbLeDbtCSUIjUKZMGSxbtiy0gy0/itcPI9Jy585tuaXRNW/QoEFo3759dAeN8mjDhw/XMzDKTIM43LRp09zni+ndN2O5NnynZro13y0lIiACxhN40HGcoYkOrHoAJhivshQUARFwOxAxCsvrwsAmoecONNs9V65c2SS1pIuPCNAZzLSJBQsWGKs123mvWbNGdTlCXCHeGwsXLhzoj7GzUX3//feoVatWiAR1GAmwCUCRIkWMrjdZsWJFzJs3TzXOdMlGTID3S9Z827JlS8Rj+P3EdOnSYfny5W7TD4kIiIAvCNR1HGdyogOrKID4VRv1BS8pKQLmELjjjjvw+eefm6NQHDThCzydWGnTpo3D7JrS7wSYhsuaamyOYKo0bdoUo0ePNlU94/RiBy120pL8ReDNN99Ex44dhSQMAnRus6A1O5SaKvzwZmpx1qxZTVVRehlMgBFXjDz64osvDNYy9qqpQUrsGWsGEYgygWKO46xJdGBlBsB+04qfjDJlDScCsSDANu233HJLLIb21Zh05I0ZM0b1gXy1amYou2LFCpQtWxbsPGaqsC7H5Zdfbqp6xulVs2ZNTJ8+3Ti94qnQgw8+aHyXzXjyOd/cs2bNwjXXXGOiaq5OKVKkcJtPlCpVylgdpZi5BJ555hn07dsXZ86cMVdJDzT79ttv0aBBAw9m0hQiIAJRIMAbVjbHcfYnOrAyAtgOIF0UBtcQIiACMSbAj+7q1atj9uzZMZ7J7OFZxHbo0KFo0aKF2YpKO+MIfPrpp7j77ruN0ytRoauvvhr8iJaEToARdZs3bw79hAAcefvttwc+WjfSZS5durSbXmSqsGMio2gkIhAOgZ9++gl169Y1Ovo4HHsiPbZ8+fJuQyA6gyUiIAK+IMCUiVyO4xxOdGClB/A7AMUi+2L9pKQIwE1vYJoD0x2CLnwhYy0HiQiESoDF21nE3VR58cUXwV1ySWgEGEnAYuW7du0K7YSAHHXbbbcFPk0o0qV+9tlnwd+hqdKyZUu3oYlEBEIlsH79erDRhcmp86HakpTjWLB90qRJqF27dlKG0bkiIALeEmC24GWO4xxNdGClAbAeQF5v9dBsIiACkRI4duyY+8HGgrNBF3JYt26dil0H/UIIw/5cuXJh586dYZzh7aGLFi1yUxwloRMoUaIEfvnll9BPCMCRSiGMfJFNTyPMkyeP22VSIgKhEuAzZcmSJaEebu1xWbJkcaN1WUtOIgIi4BsCfOAVcRzneKIDKxWAVQAK+8YEKSoCIoCJEye6+fuKwgJq1KgBtoSWiMDFCHAX2uTaUuwyunLlStV2u9hCnvX/H3/8cbz22mthnmX34a+++io6d+5st5Exsu7UqVMoWLCg0U4i3svYeVMiAhcj0LhxYzDtVAKMHTsWjRo1EgoREAF/EWCwVUnHcU4mOrCYALwYgKpB+mshpa0IoEKFCli4cKFIAGjTpg369++P1KlTi4cInJcAOy+Z/PLap08fdOnSRSsYJgEW5md6TNALE/8d24QJE1CvXr0wSerwRALdunVD7969jQXCbsSscyYRgfMRYM3U7t2746WXXtJmJ4Arr7wSy5Yt0wUjAiLgPwIrAJR1HOePRAcWuw/OA1DBf7ZIYxEINoHhw4eDtTAk/yMwYMAAPPTQQ3Ac9/YmEYF/EejVq5f7Qm+iqLtY0lZFaYT/5Ldx40YUKFAgaVADfPbSpUvBYs+nT582kgKda127djVSNykVfwKMzn///ffV6OZvS/H222/j4Ycfjv/iSAMREIFwCcwHUMVxnDN/fuElJCQw96ZGuCPpeBEQgfgSYJpD1apVFYX1/8vAzoTvvvsumjdvHt+F0ezGErj//vsxcuRII/XLlCkTfv31V2TNqp4qkSwQC9+//PLLkZxq3TnsZPnjjz+CBYslkRFgU4AiRYrg0KFDkQ0Q47PYgXfEiBExnkXD+5XAxx9/jAceeADHjx/3qwlR1ZudRefPn49UqVg5RyICIuAzAtMdx6lJnf/uwBr130Lu9/nMEKkrAiLw34Rg1jVgfQPJ/wiwQCdTK1gXSyICZxOoXr06Zs6caSSYSpUqua29FUEY2fJs377dTRHZs2dPZANYchY/0BYsWOCykEROgOmoV111FZYvXx75IDE8k/eyGTNmxHAGDe1XArNnz8att96qzqx/W0C+K991111+XVLpLQJBJzDKcZwWZzuwXgDwn6CTkf0i4EcCbIlcvHhxbNq0yY/qx0TnjBkzgl2k9AEXE7y+HpQF3Fn82ERRekPSV+Wtt97Co48+mvSBfDwC28OzTbyir5K+iKxJ9/TTTyd9oBiMwOgwduCViMDfCbAJCCPzTY0cjMdq5cuXz/2tqEZqPOhrThGICoHnHcd57mwH1oMAhkRleA0iAiLgOYFVq1aB4dGm1urwHAgAOrFYw4SdpCQikEiA18Xhw4eNA8Koq3379iFz5szG6eYnhY4dO+amfW3bts1PakdNV6ah8nmQN2/eqI0Z5IF27NiB3LlzG4kgffr0Rt7LjIQVEKV+++03911Qzqu/FpyOfKYOlitXLiBXgcwUASsJtHUc552zHVhsUzPBSnNllAgEgAA7zVx//fVu1JHkLwIlS5bE1KlTkStXLmERAezfv99NMTVRChUqhA0bNpiomu90Yh0xpmMGMZVw9OjRaNq0qe/WzGSF8+fPb2yE84EDB0CnpUQE6GytVasWGIEl+YsA6wH+8MMPYJMUiQiIgG8JNHAcx/VV/b0G1hUA1vjWJCkuAiLgFnKvVq0aTpw4IRp/I1C5cmX35UWh47osGJlCp6aJUqdOHUyePNlE1XypE5s5sNvUyZMnfal/uEonT54cLGLPznSS6BKoWbMmpk+fHt1BozQa72ksISAJNgG+97Em2rx5bCovSSSQJk0a9/2PGxoSERABXxMo5jiO66v6uwOLLRn01evrdZXyIgC0bt0aw4YNE4qzCDRs2BBffvmlasIE/MrgiywjFU2U9u3bY8CAASaq5ludXnzxRTz77LO+1T9UxZl+etNNN+keFyqwMI9r1aoV3nvvvTDP8uZwFnGn40ISXAJsNsCC7V9//XVwIZzHcnXq1CUhAtYQSO04jrsj+acDi/+SkJCwC0B2a8yUISIQQAJr1651d2P5QiP5JwE6B+gkkASXwPjx43HLLbcYCYARQ/xQlkSPAKMSevToARbiTkhIiN7Aho3ElMHhw4erPXyM1mXgwIFuNJ+JwnsaN2gkwSXAZ0ebNm2CC+A8lqdMmRLLli1DsWLFxEYERMDfBPY6jpMt0YSzHVjsE1zK3/ZJexEQgb59+7pdk2z+YItkldOlS4cpU6aA9RAkwSTA+kDNmjUz0vi5c+eC6a6S6BJgCmGXLl3c6DbWCrRNWrZsif79+4P3N0lsCMyZM8fY58YHH3yAe++9NzaGa1TjCSxZsgTXXHMNjhw5YryuXirIqNSXX37ZvfdLREAEfE9gleM4f9b/ONuBNRVATd+bKANEIOAEWKiadX6C2oXrQstfvnx5t0YE68VIgkdg8ODBeOihh4wznF2S2DVKTojYLc1LL72Enj17WlMjkNEFjNh7++23dT+L3WXjjsxC6VmzZjUysnnQoEFo165djAloeBMJcJOS6aM//vijierFVSd2DmUxe1ObtsQVjiYXAf8RmOo4Tu1Etc92YH0I4B7/2SSNRUAEziYwadIk1KvH5qKSvxPgrlz37t3dP5LgETDVgVWwYEGwc54kdgSYVs0IzAYNGhjpiAjHcjo8hwwZ4jqweE+TxJ5A0aJFwRR900QOLNNWxDt9+DxjaqtKRvyb+cSJE1G3bl3vFkMziYAIxJLAaMdx/kyfONuB9SqAzrGcXWOLgAh4R4BFfb/99lvvJvTJTGnTpsXq1atx2WWX+URjqRktAv369TMypYBOFf1Wo7XKFx5nxYoVYGHfBQsWeDNhlGfhfWvEiBGoVatWlEfWcBcicPvtt2PcuHHGQeI97YknnjBOLykUWwLbt293azsdPHgwthP5cPT69evju+++86HmUlkEROA8BF5zHOfxxP93tgPrSQD/x96dwNtUtX8A/y3XPI+Vm3mepwwZklDmFAop0iAqmVKhCJE3Y/IqQxQqZEplisyzKJlnMmTOPNv/nvNPr+S695yzz95rr/1bn48Pdc9e63m++9x7z3nOGj4gHQUoYIYA90aI+T62bt0agwcPNuNGM4s4C+hawJJP0WUpGJszArIXVvv27TF8+HDPLCmMHz8+qlativHjxyNVqlTOQHGUvwU6d+4MWYaqW5M9Lzt2lJfvbH4S8MsJq8HeU/mAUvasK1KkSLCX8vEUoIC+Am8opfrGVMBqBuAzfWNnZBSgQLAC8uL2zTffDPYyXzxeloPkypXLF7kyyf8X0LWAJW9GOnXqxNvksMCePXtQsmRJHD9+3OGRgx9ODiCQ0wbZ3BGQJZs67jXFApY7zwc3R5XZV9HR0Tyo5zY3YeDAgWjbtq2bt4djU4AC9gs0U0qNiamAJRvmzLJ/TPZIAQq4JXDy5Enkzp3bE2/QnDaS02n+85//OD0sx3NRQNcC1ujRo/Hss8+6KOPfoeXQi1GjRgUK/bqdUiizrl566aVAbFzy7O5zdOrUqahXr567QdxmdBawtLslEQ9ITtfjBx7/Zk6XLh127NiB1KlTR/wecAAKUMBRgRpKqb9rVLcuISwOYK2j4XAwClAg4gLr1q0LHLN84cKFiI/lpQGyZ8+OnTt3chNkL920MGPV9YW/vDl+7LHHwsyOl4cjIPvitWnTBnIAhpzu5XYrXLgw+vXrx42I3b4Rf42v68EoLGBp8gRxMIxixYpBtohg+5+AnOC7YMEClCpViiwUoIB5AsWVUj/fSOvWAlZGAAfNy5kZUcDfAvJmrFGjRpg4caK/IW6T/Q8//BDYV4bNHwJdu3ZFz549tUtWNnCXjdzZ3BeQvY6kKHDt2jXXgilatCgWL16MFClSuBYDB/6nwPz587XcOJ8FLH89U1evXo3SpUv7K+k4ZNuwYcPA/oBsFKCAkQLRSqlDMRWw4gM4DyCBkakzKQr4WODMmTMoXrx4YMYR2/8EateujW+//ZYkPhHQtYAlszsefvhhn9wFvdOUgv8777yDXr16uRJojhw5ArMrkidP7sr4HPT2AgsXLkSlSpW042EBS7tbEtGAGjduzELNLcJZsmTBhg0bWPCP6DOPnVPANQH5NDGhUur6bQtY8j8ty9oEIL9rIXJgClAgYgLTp09H3bp1I9a/FzuWN4sbN25E4sSJvRg+Yw5SoHv37nj33XeDvCryD2cBK/LGwYwgy65LlCgRzCW2PZabENtGaWtHP/74I6pUqWJrn3Z0xgKWHYre6OPSpUsoWLAgP4i85XZNmjQJ9evX98ZNZJQUoECwApuVUgVuvugfSwj/KmB9DaBBsD3z8RSggDcEmjdvjs8//1yLPV50EEuZMiV27doF2fyTzXwBXTdx//7771GzZk3zb4BHMpRTvjJmlF0VnG1RUVE4ceIE5OcSm14CM2fO1PJ7lAUsvZ4nkYxGTkuVD91Onz4dyWE81TeXDnrqdjFYCoQiMEkp9URsBazuALqG0juvoQAF9BeQE7fy5cuHw4cP6x+sQxFu2bIFefPmdWg0DuOmgK4FrClTpuDxxx93k4Zj3yQgp7emTZvWcZMMGTLgEgqhBgAAIABJREFUyJEjjo/LAWMXkO9RHWd5sIAV+70z5REyW7xQoUKmpBN2HnfddRfk9VuaNGnC7osdUIAC2gr0UEp1i62AJRUu7vSs7T1kYBQIX0A2Lq9VqxauXLkSfmcG9CAz0po2bWpAJkwhNgFdC1jDhg1DixYtYgufX3dI4NixY5BiktMtOjoaBw4ccHpYjhcHgcGDBwdOqdStsYCl2x2JXDwffvgh2rZtG7kBPNRzggQJIDOXuXekh24aQ6VAaAJPKqVkheDf7XZLCIsBWAvgX18LbUxeRQEK6Cggb5ZHjBihY2iOx/T6669DChts5gvoWsDq1KkTevfubf4N8EiGe/bsQfbs2R2PNlmyZDh79qzj43LA2AXatWuHQYMGxf5Ahx/BApbD4C4OJx+0jR071sUI9Bn6pZdewieffKJPQIyEAhSIhIAFoJhSan1sBaycADYCSBSJKNgnBSigh8CpU6cCeynIfit+b/Xq1cPkyZP9zuCL/HUtYMn+V/JpMpseAuvXr0fRokVdCUZ+JnNJjCv0dxy0evXqmD17tnaBsYCl3S2JWEClS5fG6tWrI9a/Vzq+5557sG3bNp466JUbxjgpELrAJQAFlVI7Yytgya6lWwGkCH0sXkkBCnhBYO7cuahWrRquX//7ZFIvhG17jHI0+vz5823vlx3qJ/Dxxx/j5Zdf1i4w2TD84MGD2sXl14Dk50HlypVdSX/hwoWoWLGiK2Nz0JgFMmfOjP3792tHJD/TWrZsqV1cDMh+gaxZs2Lfvn32d+yhHuPFi4d58+ZBXrexUYACxgucAZBXKXUotgJWKgA7AKQ3noQJUsDnAteuXcOLL76I0aNH+1qiXLlyWLp0qa8N/JL8yJEjA895HZvsfSR7ILG5LzBx4kTI6VZuNM6ocUP9zmPK6W/p0+v5sli2AnjhhRf0Q2NEtgukSpXK9ycQykna8pyXE1vZKEAB4wWOAcillDoVWwErPoDdADIZT8IEKUCBgEC2bNmwd+9e32qUL18eS5Ys8W3+fkr8q6++wlNPPaVlyrKEUJYSsrkv0LNnT3Tt6s6BzHXr1sW0adPcR2AEfwu4OSMvttvw5ZdfonHjxrE9jF83QEAOlpADJvza5LXq7t3yFpWNAhTwiYBMe86ulLp6xwKWfNGyLJmKUM4nMEyTAr4WOHr0aGCz4nPnzvnW4fHHH4cckc5mvoAUiWrXrq1lou+++y66dfvHScFaxumHoBo0aODavnjFihXDmjVrOMNAoydanz59IAct6Ni+++67wKnCbOYLFCxYEJs2bTI/0RgyTJo0aWAZL/cI9O1TgIn7T2CxUupfeyrc9qRBy7IGAGjnPyNmTAF/CVy6dAlly5bFunXr/JX4LdnK6VIDBsiPPTbTBZYvXw5ZMqpjq1+/PiZNmqRjaL6LKWfOnNi1a5crect+aDLLIFEinqXjyg24zaAya1Nmb+rYli1bFvg9zma+gBQqZ8yYYX6id8iwePHigS0fkiRJ4msHJk8BnwgM+nP54L9qUjEVsGR9xRc+gWGaFPCtwNSpUyFvmi1LTin1bxs1ahRkXwU28wWkKCHFCR1bkSJF8Msvv+gYmq9iOnnyJNKmTetazvHjx8ehQ4e03XPJNRgXB77//vuxcuVKFyOIeegdO3Zo+zNNSzAPB9W5c2e8//77Hs4g/NCVUoHZsTJzno0CFDBe4Gml1L9qUjEVsPIC2GI8CROkgI8FLly4gEyZMkGObPd7k+OYc+fO7XcGX+R//vx5JEuWTMtc5RNliY/NXYHZs2ejevXqrgYhs30aNWrkagwc/H8C6dKl0/Z35cWLFzlbzydP1m+++QaPPfaYT7KNOc3kyZPjyJEjnIXl+2cCAXwgkE8ptfXWPGMqYMUDcBYA52f64JnBFP0pIPt5yL4efm8pU6YMLBWSNyhs/hBInTo1Tp36x4Em2iTOjdzdvxVvv/02evXq5Wogsim3bM7N5r7A1q1bkS9fPvcDuU0E8rNMZgyy+UNAZmbKRuaXL1/2R8J3yLJLly547733fO9AAAoYLHABQHKl1PU4FbDkQZZlyTEP2QxGYWoU8K3A77//DlmuJBu4+73JBvYbN27kJ3k+eiLkz58fW7boOcmYBwq4/0SUGQ4y08HNJqeNHT58GLJchs1dAR0KmjEJSGFt8+bN7gJxdMcEzpw5g7x58waWGPu9yV6B8tqNG7r7/ZnA/A0W2KOUyn67/GJ8ZWRZ1jIA3BXS4GcFU/OnwPXr1wOnsM2cOdOfALdkXa1aNcyaNYsWPhKoWrUq5s2bp2XGsvfSb7/9Bjltic0dgRIlSmhxsIXMEpQZomzuCcjvS1le7taG/rFl/vDDD2POnDmxPYxfN0RAno+yYf+qVasMySi8NJ544glMmDCBhf7wGHk1BXQVWKaUKh9sAUuOQqqva0aMiwIUCE1AXojLUcyybwYbIBvZc08Jfz0TXnzxRYwcOVLLpBMnTowNGzZwU2YX785dd92lxexU+VktM0TZ3BOQmS558uTB2bOyq4Z+rUWLFhg2bJh+gTGiiAl8/PHHePnllyPWv5c6TpEiBWQP03vuucdLYTNWClAgbgKTlVINgi1g9QPQIW7981EUoIAXBOTTO5lxNHfuXC+EG/EYo6OjsXfvXsipX2z+EejXrx86duyobcLjx49Hw4YNtY3P5MCOHTuGu+++G/Kz0u22bt06FCtWzO0wfD3+okWL8NBDD2nxfLjdjejbty9ef/11X98jvyUvxdQsWbJw77O/bnyrVq0wdOhQvz0NmC8F/CAwUCnVPtgCVisA/Ingh6cHc/SNgCybkuVTbP8vwE+v/flM0OGUuTvJP/DAA1i4cCGXRbjw9Jw+fTrq1q3rwsj/HnLJkiUoX/62s+e1iM8PQTz//PMYNWqUtqnK8nf5UIrNXwJNmzbF2LFj/ZX0HbLdtGkTZG9LNgpQwCiBl5RSw4MtYFUBwGkaRj0PmIzfBXTe+8eNe7N48WJUqFDBjaE5posCcoiBbACra5ONu3fs2IEcOXLoGqKxcXXu3Bnvv/++Fvn9+OOPgdk/bO4IyIbZcsqfDrPxYhKQJY5cPuXO88PNUWUWvex/xvb/Am3atMGgQYPIQQEKmCVQWSk1P9gClry6P2iWA7OhgH8Fvv/+ezz66KNavxh38u5UqlQpsJQyKirKyWE5lgYClmWhQIEC2p5EKET//e9/uc+JC8+VGjVqaHOog2zOzTepLjwJ/hryq6++wlNPPeVeALGMLDNOZOYJm/8Erl69ivvvvx8//fST/5K/TcbJkycP7B2ZNWtWelCAAuYI3KuUum0t6o7nM1uWdRJAanMcmAkF/Ckgb9jl5JqVK1f6E+CWrGXPK9nbREzY/Ckg+8b0799f2+SrV6/Ok0JduDvyplCXn5MLFizAgw8+6IIChxSB+vXrY8qUKdpitG/fXuufYdrCGRKY/HyQWfXXrl0zJKPw0njmmWcwZsyY8Drh1RSggC4CJ5VSaWMKJrYClpwzXlmXTBgHBSgQmsBvv/2GbNmycfbVX3zFixfHmjVrEC9evNBAeZXnBWR5VpUqslJezybPzSNHjiBdunR6BmhoVLIh8CeffKJFdqtWrUKpUqW0iMVvQZw4cSKwzPjy5cvapi4ziHX+GaYtnCGBSeGqcOHC2Lx5syEZhZdGmjRpIEtqEyVKFF5HvJoCFNBB4EelVIwv0mMrYMmC4jY6ZMEYKECB0ARk/46CBQtqvVwqtMxCuyplypSB/YUyZMgQWge8ygiBnTt3BpYR6vwGVTaQHjlypBHeXklCTv4rUaKEFuHKz6mcOXNqEYvfgnj55Zfx8ccfa5t2woQJA0umcufOrW2MDCzyAlKwyZs3L2S/NjagQ4cOkFOG2ShAAc8LxHgCoWQWWwHrWQCjPU/ABCjgY4EVK1ZwqdxN979bt2549913ffyMYOoicP78+cAMi9OnT2sLkilTJmzduhVJkybVNkYTA5M3hNu2bXM1NSlQ/PHHH0iSJImrcfhx8LNnzyJPnjyB2Ry6NtnzRw6jSJYsma4hMi6HBDp16oQ+ffo4NJrew8jM5d27dyNLlix6B8roKECB2ASeVUp9HtODYitgyeYLC2IbgV+nAAX0FWjSpAm+/PJLfQN0MDJZjrNs2TLIHlhsFGjcuDHGjx+vLYScRjh9+nTUrl1b2xhNDEz2Fho4cKCrqT3++ONa77/kKk6EB//iiy/w9NNPR3iU8LqXnwnffvtteJ3waiMEZEN3eW3z888/G5FPuEnIDCyZicVGAQp4WuAhpVSMNajYClj5AfCIE0/ffwbvZwFZYlCsWDFu8vnXk2D9+vWBPSPYKCACslm3bNqtc0udOnVgJkjixIl1DtOo2E6ePBn4BF9m4rjRZBaB7Gsjs4DYnBWQWW/33HMPLl265OzAQY42a9YsVKtWLcir+HBTBeS1TdGiRU1NL6i80qZNi/3793P2alBqfDAFtBMopJTaGFNUsRWw0gM4ql1KDIgCFIiTwEsvvYThw4fH6bEmPyhBggSYOHEiHnvsMZPTZG4hCERHR2u9VEhSmjp1Kp+7IdzbcC4ZNmwYWrZsGU4XIV8rSxh//fVXyM8tNmcF3Lzvcc1UNqs+evQooqKi4noJH+cDgUmTJkFm3Ou8r6NTt6Fv376Qk4bZKEABzwrcpZSKsQYVWwFLjuiSnQG5AYdn7z8D96vAxYsXAycPHj582K8EgbxlGVabNm0wYMCAwL/ZKHCzQPXq1TF79mytUWR5yJIlSyD7IrE5I3DhwgWUK1fO8WU5UrSSJd8NGjRwJlGO8reAzLwrVKgQDh48qLXKAw88gEWLFmkdI4NzXsCyrMBrnSFDhkD+7ecmKw/Wrl3L13x+fhIwdy8LnAeQUil1LaYkYn03Z1nWNAB1vazA2CngR4GuXbuiZ8+efkz9Hzk3bdoUn38e4z6AvvfxO0D//v098UntRx99hFdffdXvt8vR/OVDAFlKKLNdnGqtW7fG4MGDnRqO49wk0K5dOwwaJIdv6906d+6MXr166R0ko3NN4JlnnsG4ceNcG1+XgefNm4fKlSvrEg7joAAF4i7wvVLqjpu/xqWAJXPo9T1LOO4YfCQFfCMg+3jI/ilOvvHSEfeRRx7BhAkTIPsIsVHgdgJykte9996L69evaw2UM2dO7NixQ+sYTQxOZr7VrFnTkWPqGzZsiBEjRiBFihQmUmqdk8y+yp07N44fP651nBLcunXrAntbslHgdgKnTp1Co0aNIPuk+bnJa+BffvmF+0f6+UnA3L0q8JpS6qM7BR+XAlY2ALtkJY5XFRg3BfwmMHfuXMjSqGvXYpx9aTyJLJ9cvXo10qeXrfzYKBCzgBQoZs6cqT3RG2+8ETgunUthnb1VM2bMQPPmzXHkyJGIDJwkSRK0atUqMKuGm/VHhPiOnV65ciWwIfr8+fOdHzzIEYsUKRJ4U85GgTsJHDt2LHBAyc6dO30LJcuxV6xYgRIlSvjWgIlTwIMCsv45h1JqT7gFLNkH6xSA5B5EYMgU8J2AzCQpX7584Be3X1uqVKmwZcuWwGlSbBSITWDs2LGQpaa6t/jx4+Onn36CvIllc1bgwIEDeOihhwJvCO2arSeFSJn1M2rUqMDPbDZ3BKR4XatWLU/sGyRLntu3b+8OFEf1lIDMLi5QoABkdqFf2xNPPBGYhc8Pffz6DGDeHhQ4DSCNUuqOyyJinVVlWZY8ZjuAnB5EYMgU8J2AFK5k82E/b+Ipe155oSDhuyenpgnv3r0bOXLk0DS6f4YlhQ7ZwDlePPlsic1JgXPnzmHatGno0aMHtm3bFtbQ8jNa9rqSN5gyA4vNHQFZbpUrVy7IjBUvtJ9//hlFixb1QqiMUQOBr776Ck899ZQGkbgTgvyelBNd5ecsGwUo4AkBWfWXSyl1x5MoYi1gSaqWZS0DUNYTaTNICvhcoG3btvjwww99q3DjxEG+wfftUyDoxKXYK7NrFi5cGPS1blzAI8LdUP/fmPJ8OXHiBGSGgxRApLAlG77L8fWyHO3mv298kCCz55InTx6YFSqzrjJnzuxuEhw9INCyZUsMGzbMExp58+bFhg0bIM8lNgrERUB+/rz55puQ3xl+bZK/LL1nowAFPCGwXClVLrZI41rAGg+gYWyd8esUoIC7ApcuXYJs9izLXfzY5M2hvMBPly6dH9NnzmEIyJHbpUuX9sS+cbLJ95o1awIHNbBRgAKhCcyePTuwdNALe0XKBzLff/99YG9LNgoEIyCH+siy899++y2Yy4x5bKZMmQIHoCRKlMiYnJgIBQwW+EopFeu00bgWsNoBGGAwFlOjgBEC8kmyfKLsxyabH+/btw8ZMmTwY/rMOUwBmTVTsGBBz5z0lzVrVmzatAlJkyYNM3NeTgH/CchpgzKjyQunDsrdkZNS5U04N/n333PVjozPnDmD6OhonD171o7uPNfHf//7X7z88suei5sBU8CHAm2UUoNjyzuuBazSAFbG1hm/TgEKuCdw9epVlC1bNjAzw49Nlk4OHDjQj6kzZ5sEOnTogAEDvPFZjWxK26xZM3z66afcD8um+89u/CFw4cKFwMwrL5w6eOOOPPfccxg5ciQ3o/bHUzQiWb777rvo3r17RPrWvdPChQsHDkCRkwnZKEABrQXKKKVWxRZhXAtYMu9STiLk/MvYRPl1CrgkIEe8y/JBP37CJtPjly9fztkoLj33TBn20KFDgVkZ8mm1V9rQoUPRqlUrr4TLOCnguoBswt+tWzfX44hrADLLUjai9spBE3HNi49zVkA+5JRDQFativW9obOBOTCaLB/cuHFj4DUyGwUooK3AJQCplFLy9x1bnApY0oNlWesAFIutQ36dAhRwR6BLly7o3bu3O4O7OKrMRJkxYwb3BnHxHpg09DPPPINx48Z5JiXZ0Fk2n5dT7dgoQIE7C8g+UrVr1/YUU7169TB58mRPxcxg9RSQE2wrVarky1Oq5Xf7mDFj9LwxjIoCFBCBn5RSJeNCEUwB6zMAzeLSKR9DAQo4KyAnYWXMmBGyNMJvrX79+pgwYQKioqL8ljrzjYDAvHnzULVq1Qj0HLkuZW+TLVu2QDZ3Z6MABW4vIDMsZbbusWPHPEU0a9YsVKtWzVMxM1g9Ba5fv45XXnkFn3zyiZ4BRjAqeY24d+/ewH5ybBSggJYCY5RScao1BVPA4kbuWt5rBkUBYM6cOb58gZsmTZrAG/e77rqLTwMK2CIgyyweeOABrFixwpb+nOpElkbIp+tSzGKjAAX+KbB///7ALEWvncRWvHjxwM+ihAkT8pZSwBaBEydOIF++fDh69Kgt/Xmpk6+++gqNGjXyUsiMlQJ+EminlBoUl4SDKWDJnOtv49IpH0MBCjgrIHvg+PETNW7c7uzzzC+jyZK8KlWq4Nq1a55KWWaOyVKjlClTeipuBkuBSAqcPn0aMlN37ty5kRzG9r5lxsjixYsDh7OwUcBOgT59+qBTp052dumJvurUqYPp06d7IlYGSQEfCtRWSn0fl7yDKWDlB7ApLp3yMRSggHMCly5dQtq0aXH+/HnnBtVgJJlxsnXrVi4d1OBemBbCxYsXkStXLhw4cMBzqcn+Pt9+y8+aPHfjGHDEBBo0aODJPaTuvvtu7N69G0mSJImYDTv2p4B8OHPffffhl19+8RWAFIXleypz5sy+ypvJUsAjAvmVUlviEmswBazEAORopvhx6ZiPoQAFnBH49NNP8cILLzgzmEajyIyzl156SaOIGIpJAjNnzkStWrU8t9mtHGrQsGFDjBo1im98TXpCMpegBaQQ/dxzz2H8+PGe+z6WZCdOnIgnnngi6Lx5AQXiIiCHlcjG5n5r3bt3R9euXf2WNvOlgO4CcvJgaqXUxbgEGucClnRmWdaPAB6KS8d8DAUo4IyAzLiQk5X81LJly4ZNmzbxDbqfbroLucrSHa/thSVMUsRq0aIF+vXrh+TJk7sgxyEp4K7A5cuX8cYbb2Dw4MGeLF7J3ldr1651F5GjGy0g3yMyC2vDhg1G53lrcrIX3tKlS32VM5OlgAcEFiqlKsU1zmALWO0B9I9r53wcBSgQWQHLsgIbmHvtVKVwVOTNuRTsatSoEU43vJYCsQp4/RPqpk2bYvTo0YgXL16sufIBFDBFQE5ae/PNNwMFXK+24cOH48UXX/Rq+IzbIwJSyKlYsSLke8YvLVGiRJB98Xgwgl/uOPP0iEAHpdSAuMYabAGrEID18gFvXAfg4yhAgcgJfP3113jyyScjN4CGPcu+IDt37kSyZMk0jI4hmSQgJxLK8fU//iiTj73XpNgrS5C++OILxI/P1f/eu4OMOFgB+Z5t3rw5vvzyS8++KZdZMVJYkDfabBSIpIAss82bNy/27dsXyWG067tnz554++23tYuLAVHApwJSQS+ilNoY1/yDKkRZliVn1W8HwCOO4irMx1EgQgKyCWfRokWxcWOcv98jFIlz3cobcjlBRpZNslHACQE5BUw+ofZqk++Zxx9/HMOGDUP69Om9mgbjpkCsAjKrol27doFZhzI72att9uzZeOSRR7waPuP2mMD8+fPx8MMPe+7U3XCYM2TIECjaJU4s2zuzUYACLgvIHuu5lFJH4hpHsAUsmfIgu8NniusAfBwFKBAZAfnlmzt3bsg+Bn5pUrD7+eef/ZIu89RAQN4Ily9fHsuXL9cgmtBDqFSpUmBTaHnhzkYB0wSkeNWoUSPI4QtebgUKFAj8jkuQIIGX02DsHhMoXbo0Vq9e7bGoQw9XZiSvX78e+fPnD70TXkkBCtglsB9APqXUubh2GGwBSx6/DkDRuA7Ax1GAApER8OopaeFo8OTBcPR4bagCZ8+eRZYsWXDy5MlQu9Diuly5cmHJkiWQZbhsFDBF4NKlSyhVqhR+/fVXT6cky+J37NiBe+65x9N5MHjvCYwcOdJ3e65Jzs8//7z3bhYjpoB5AnJiSUmlVJynTgdVwBIvy7L+A+AN8+yYEQW8JdCgQQNMnjzZW0GHEW3mzJmxefNm7n0VhiEvDV2gY8eOnt4U+kbmadOmxZgxY1CrVq3QMXglBTQRkJmRss/bgQMHNIko9DCaNWuGzz77LPQOeCUFQhQ4f/48ihQpEthf1C+tRIkS+Omnn/ySLvOkgM4CfZVSQdWWQilgPQBgkc4KjI0CpgucOHEiMItCNqz1Sxs0aBDatGnjl3SZp2YCstmtLGHdtm2bZpGFFo6c0Pbaa69xqVJofLzKZQE5NU0OJ3juueeM+D0os642bdqENGnSuCzL4f0qMHjwYN+9xtqyZUtgE3s2ClDAVYHySqllwUQQSgFLrpE1ikmCGYiPpQAF7BPw4+mDsueXzMJio4BbAt9++y0effRRt4a3dVzZ3L1cuXKYO3cuN7K1VZadRVpAPrh5+umnA3u6eXmz9pudRowYgRdeeCHSdOyfAjEK7N69Gzly5PCVkBTtWrdu7aucmSwFNBO4ACBZMMsHJf6gC1hykWVZawDcpxkAw6GAbwRk3f6oUaN8k68srZCTpeRNNxsF3BKQN87PPPMMxo8f71YIto8r+2LJCYWVK1e2vW92SAG7BWTJz4svvhjY6NyU4lWZMmWwYMECFpLtfrKwv6AF5PfbuHHjgr7OqxfUq1fPV1txePU+MW6jBX5SSpUMNsOQ3g1alvU5gKbBDsbHU4AC9gjky5cPW7dutaczzXtJkiRJYGPb6OhozSNleH4QOH78OAoWLIjDhw8bk64cJf7WW2+hc+fOXFJozF01KxHZqF1mS3Tv3h3nzsX5oCLtEVKmTIm1a9ciZ86c2sfKAM0XOHjwIORDjQsXZFKE+U224pD986KiosxPlhlSQE+BMUqpZsGGFmoBqx2AAcEOxsdTgALhC2zfvh158uQJvyOP9FCyZEmsWLGCLzA8cr/8EKYsXXrqqadw7do1o9KVJbo//vhj4M00ZzsadWs9m4zsdSX71FStWhWHDh3ybB63C1y+x7p16xb4w0YBHQTkd5qc6LlunRw474/2ww8/BH6+sFGAAq4IvK6U6h/syKEWsCoBmB/sYHw8BSgQvkDbtm3x4Ycfht+RR3rgUcceuVE+ClOWLjVp0gRfffWVcVnLjBDZi6d//6BfTxhnwYTcFbh8+XJgk/apU6dCTkkzrVWqVAny5jl+/PimpcZ8PCwgS8pbtmzp4QyCC11OMZUPpdgoQAFXBB5SSi0IduRQC1ipARwDwDmXwYrz8RQIQ0Be0MtRx35ZPpgpU6bAsc4JEyYMQ42XUsB+AVl2ULZsWfz222/2d65Bj8WLFw8s16pVqxbixYunQUQMwS8CZ8+exaeffor//Oc/xs26unEPkydPjuXLl6NQoUJ+ua3M0yMCsnwwW7ZsOHLkiEciDi/MLFmyBGZ5ynYVbBSggKMCVwCkV0qdDnbUkApYMohlWSsBlA52QD6eAhQIXeDo0aPInTs3Tp06FXonHrqyXbt2GDCAq5U9dMt8FeqiRYsCm5+btpTw5pv45JNPBgoJWbNm5bJCXz27nU/2ypUrWLJkCV555RVs3rzZ+QAcGlEKwmPHjg0sQ2ajgI4CL7/8Mj7++GMdQ7M9pqRJkwb2Wc2YMaPtfbNDClDgjgLLlVLlQjEKp4DVHUDXUAblNRSgQGgCy5YtQ/ny5UO72INXLV68GBUqVPBg5AzZDwKylFA2P//ggw+MTlde4MuyQilkyYbvbBSwW0BmFVerVg379+83uiAsbrLfzqxZs7ivo91PIvZnm4AsbX3kkUds60/3jiZNmoT69evrHibjo4BpAt2UUj1CSSqcApbsg/UjgJD7CCVgXkMBPws0bdo08MmtH5psJL1p0yYuH/TDzfZwjlLEqlKlCubPN39bSJmF9dJLL+H111/naYUefs7qErp878gBHVIYnTNnji9OPitcuHAgZykKs1FAVwFZRpg9e3ajTtu9k3X16tUxc+af94wPAAAgAElEQVRMXW8H46KAiQIWANn/amEoyYVcfLIsS878lTneCUIZmNdQgALBCcgmtunTp/fFi3yRGTFiRGDWBxsFdBfYu3cvHnjgAWP3w7rVP0OGDHjvvffw+OOPQ/7NRoFgBKRwtXLlSgwcOBBff/21bEkRzOWefWzq1KkDb5Lvv/9+z+bAwP0j0LdvX7zxxhu+SFiW9Z48eRJyiAkbBSjgiIDsf1VAKbUjlNHCKWDJx0eyw1+yUAbmNRSgQHACq1evRunS/th2LlmyZIE9UDJnzhwcEh9NAZcEFi5cGNgP6/r16y5F4Pyw8n0qG723atUqsAGuUiG/pHA+eI7ouIB8b8jG0FL4lFlIfmtyammjRo38ljbz9aiAHKBTsGBBXLp0yaMZBBe27L/npy06gtPhoylgu8A5AHcppUI6YjisV5uWZcmxhw/anhI7pAAF/iUwfPjwwPIdPzTZqF6WD/J4cT/cbTNylFkk48aNQ/PmzY3fw+fWOyab38p+KW+//TZy5cplxg1lFrYKzJ49Gz179sRPP/2Eixcv2tq3Fzrr1q1b4PuDv9O8cLcYowjI96n8PJcTd/3QhgwZEjhAgo0CFHBEYJ5SqmqoI4VbwGoK4PNQB+d1FKBA3AWefvppfPHFF3G/wMOPHDp0aGBWBxsFvCQgpxG++OKLGD16tJfCti1W2eBdCllSxJN9wVKkSGFb3+zIewKyJGfq1KkYOXIkVq1a5bvC7o07VqNGDXzzzTfcN857T2HfR9y1a9dA4dkPTWZHyixJNgpQwBGBZkqpMaGOFG4BKyEAmQIWP9QAeB0FKBC7gMzuyJYtG/bt2xf7gz3+iOTJk+P48ePcvN3j99HP4desWdP3G8LKfn2y2XvDhg0RHR3N72effENcvXo1MGND9rbq0aMHzpw545PMb59msWLFAsW7BAm4XayvnwgeTf7UqVO46667cPnyZY9mEPewM2XKFHiNzaXwcTfjIykQosBVAKlCXT4oY4ZVwJIOLMuSzbdkQ3c2ClAgQgIbNmxAkSJFfLHZrczgkOUmbBTwqoDMPClevDhkc3e/Nzlt7d5770Xbtm3RsmVLyGa5bOYJyIcscpLgO++8E1j+fe6cfLbp7yYbQsvvbu7l6O/ngdezL1OmTKAI64cm36+y7xcbBSgQUYGdSqmw9puwo4A1C0C1iKbJzingcwE/nQbzwQcfoGPHjj6/40zf6wK7du2CvPA/duyY11OxLX5ZUiib5EqRuk6dOsiZMyc/7bZN1/mOLly4EPiw4bvvvsO8efOwZ88e54PQdER5rs+fPx/33XefphEyLArETUBej/Xr1y9uD/b4o+S1tswcZqMABSIqMFspVT2cEewoYPUA8E44QfBaClDgzgK1atXCjBkzjGeS2Rny6X3evHmNz5UJmi8gJ2nKyYS///67+ckGmaEs05ACX+PGjVGuXLlAMStNmjRB9sKHOykge7zt3r0bW7ZswaRJkzB+/HjfnFAWjLPMvJI9rypVqhTMZXwsBbQUWLp0KSpUqKBlbHYHJcv/v//+e7u7ZX8UoMA/BXoqpbqGg2JHAesBAIvCCYLXUoACMQvI0gyZ0ixvhk1vJUqUCJxSxUYBUwRk6YUUathiFpBilvwpW7Ys2rVrh/r165NLIwHZ00oO1pA/sieO/E5ii1lg2rRpqFu3LokoYIzA3XffjSNHjhiTT0yJFCpUCOvXr+fMYOPvNBN0WaCiUmpxODHYUcCSjdyPAkgZTiC8lgIUuL3A9evXkSpVKpw9e9Z4ov79+6N9+/bG58kE/SUgn+jWrl3bX0mHkW2SJEmQNWtW5MiRI7DkUE40lOI2N8IOAzWOl8qb1AULFmDu3LnYuHFjYB+3Q4cOQX4PscUu8OWXXwZmFbJRwCQB+WBh0KBBJqV021xSp04dOESIezUaf6uZoHsCpwFkUEqFdTJE2AUsyd+yrOkA6rhnwZEpYK7AihUrAjMT/NBWrlyJ0qVL+yFV5ugzAVlS1LRpU5w+Lb+72YIVkCK+FLFKliwZmJEqp7JKkUs2iGdhK+6aUoiSN2iHDx8OLG2V2VXbtm0LLN2W2a+//fZb3DvjI/8WkKKrfAAjBxXwFDM+MUwT+OGHHwJ7F/qhyc/C/Pnz+yFV5kgBNwS+U0qFXTOyq4DV7s8ZWAPcUOCYFDBdoEWLFhgxYoTpaQY+8ZINr7kPjvG32rcJTpkyBU2aNMHFixd9a2B34lFRUShcuHCguCV/y/55cuqb/ByRr8kf+dkif0thQf4tf24sW7zd3zdivPlTeDc/kb8x+0n+luV7N/8t+1LJ/5O/b/4jx97Lpur79+/Hjh07sH37dmzdujVQqJLN19nsE5ACqmz+3KZNG/s6ZU8U0EhACttZsmTRKKLIhfL222+jZ8+ekRuAPVPA3wLtlVIDwyWwq4AlO1XODzcYXk8BCvxTQN6opE+fHidPnjSe5qGHHsKPP/5ofJ5M0N8C06dP5/44DjwFpGAlhYX48eP//edGIetGMevmotaNQtaN4paEKF+/0W7+d8KECZEoUaK/vyb/lv93a5O+kiVLdsdsZWn4zXtKXbly5e8C5/nz5/8uSkknNwpU8ntB/sh/X7169e+/5Vr57xt/c68qB55oAL744ovAskHOvHLGm6M4LyA/b2TWqx9maEqeclgFGwUoEBGBh5RSC8Lt2a4C1j0ADoUbDK+nAAX+KSBLPDJmzOgLljlz5uDhhx/2Ra5M0t8CsifWU089xeWE/n4aMHuPCyRNmhRjx45FvXr1PJ4Jw6dA7AJDhgxB69atY3+gAY+QZdZp06Y1IBOmQAHtBDIqpcI+mtuWApbQWJYlR6Tl046JAVHAwwJr1qxBqVKlPJxB3EKXY8dllpmby3TiFikfRQF7BOR7WzZ2l72I2ChAAW8JpEuXDp9//jlq1arlrcAZLQVCFDh37lxgabbM8DS9bdiwIbDXIhsFKGCrwBallC0bzNlZwGoLIOw1jbYysTMKeFxg8uTJaNCggceziD38okWLYt26dVyCETsVH2GQgJzyVq5cOc7EMuieMhXzBRInTozly5ejWLFi5ifLDCnwl4AsSc6dOzd27txpvMns2bN9s2m98TeTCeok0FYp9aEdAdlZwMoEYBeABHYExj4oQAGgY8eO6Nevn/EUsn+IHD/ORgG/CezatQs1atQInATHRgEK6C2QPXt2zJw5M3BYABsF/CZQrVo1yHYPprc+ffrgzTffND1N5kcBJwVk6mYOpdR+Owa1s4CVFIC8Ar/XjsDYBwUoAJQtWxYrVqwwnkL2EXn66aeNz5MJUuB2ArIk49FHH8WsWbMIRAEKaCrwyCOP4JtvvoHMwGKjgB8F+vfvj9dff9341B977DFMnTrV+DyZIAUcFDgAII9S6rwdY9pZwIoHQN5pm79hjx3y7IMCsQjIaVKySazp+w3IyU0nTpxA6tSp+ZyggK8FXn75ZXzyySf/OJXO1yBMngIaCMjvqBdeeAHDhw/XIBqGQAH3BDZv3owCBQq4F4BDI2fIkCGwPyVPFnUInMP4QWA1gPuVUtftSNa2ApYEY1nWOwB62BEY+6CA3wXWr18P2RvK9Fa8eHGsXbvW9DSZHwViFbh8+TImTpyI559/HvJvNgpQwF2BRIkSYcSIEWjYsCESJkzobjAcnQIuC8g+WLKMdu/evS5HEvnh9+3bh8yZM0d+II5AAX8IdFVK9bQrVbsLWLIpgJxGaGu/diXLfijgJYExY8agWbNmXgo5pFhl1sl///vfkK7lRRQwUWDGjBl49dVXsXv3bhPTY04U8IRAzpw58dFHH6F69eqcieGJO8YgnRBo0qSJL/YsnT59OurUqeMEKceggOkCFoC8SqntdiVqe6HJsqwdAHLaFSD7oYBfBWQDyQ8++MD49D/77DNfFOqMv5FM0FaB/fv3o27duoHTOeVTbzYKUMAZAVk2VLJkSUybNg3R0dHODMpRKOARgSFDhqB169YeiTb0MHv37o1OnTqF3gGvpAAFbgjsUErltpMjEgWsz/88jbCpnUGyLwr4UeDJJ5/E119/bXzqq1atQqlS3DrP+BvNBIMWuHDhArp06YKBAwcGfS0voAAFgheQ4lXnzp3x9ttvc7P24Pl4hQ8E5s+fj8qVKxuf6TPPPANZCcFGAQqELTBGKWXrkqJIFLBeBMCdLsO+1+zA7wJlypSBFHdMbvHixcPJkyeRMmVKk9NkbhQIS2DKlCmBT7wPHjwYVj+8mAIUiFkgS5YsgUMUatSoQSYKUCAGAdnc/J577jHep2LFili4cKHxeTJBCjgg8JJSytbaUCQKWIUBrHcAg0NQwGiBjBkz4vfffzc6x/vvvx/Lly83OkcmRwE7BGRD2WeffRaLFi3CtWvX7OiSfVCAAgDix4+PSpUqYezYsb54Y86bToFwBfLkyYPt223bzibccCJyfbZs2bgPZURk2akPBYoqpWytDdlewJKbYlmWvOu+24c3iClTwBaBc+fOIXny5Lb0pXMn//nPf/DGG2/oHCJjo4BWArKcsEOHDtwXS6u7wmC8KhAVFQXZh/Hpp5/2agqMmwKOC3Ts2BH9+vVzfFwnB5SfDRcvXgwUuNkoQIGQBQ4rpWyfshmpAlYfAG+GnCovpIDPBWbOnImaNWsarSB7jaxfvx6FChUyOk8mRwG7BTZs2ICXXnoJy5Yts7tr9kcB3whUq1YNgwcPhswmYaMABeIusHTpUlSoUCHuF3j0kStXrkTp0qU9Gj3DpoAWAh8opWyvCUWqgCXf7bIuKJ4WdAyCAh4TkFlJffv29VjUwYWbIkUK7NixA3fddVdwF/LRFKAALl++jAEDBgQ+BT9+/DhFKECBOArce++9eOutt9CyZUvOroijGR9GgZsFZHuLnDlz4vz580bD9OnTB3IiOBsFKBCSwHUAZZRSa0K6+g4XRaqAJcsHZXF0CrsDZn8U8IOAHzZwz5QpE7Zs2YJkyZL54ZYyRwpERGD//v2QE0tXrFjBZYUREWanpgjIUiCZdSUni6VNm9aUtJgHBRwXOHPmDPLmzYtDhw45PraTA9apUwfTp093ckiORQGTBM4AyKOUsn1D50gVsGTm1RYAuU26C8yFAk4IXLp0CbJ5pOkbuBctWhTr1q2DLCVkowAFQheQnxlLlixB48aNcfTo0dA74pUUMFQga9asmDx5MuT3Dve0MfQmMy3HBOQgkYIFC2Lr1q2OjenGQHIy6e7duyEnZrNRgAJBC8hkpvxKKdtPHorYO0fLsjoB6B10qryAAj4XOHbsWGBPjpMnTxotIcs3Pv74Y6NzZHIUcFJAPg0fNGhQYGnh1atXnRyaY1FAS4GUKVOic+fOaNWqFeTfbBSggD0CzZo1C8xmNLmlT58+sNVFqlSpTE6TuVEgUgIdlVIROe0hkgWsdABkbmmCSKmwXwqYKLBnzx4UKFAAFy5cMDG9v3OaOnUqHnvsMaNzZHIUcENAfoY8//zzgVlZslcWGwX8JiCn+D788MMYPXo033z67eYzX0cExo4di6ZNmzoylluDyF6tstVFdHS0WyFwXAp4VeAKgExKqSORSCBiBSwJ1rKsXwHwiLFI3Dn2aazAxo0bUaRIEVy/Lnvfmdtk42nuQ2Lu/WVm7grIz4+ff/4Zjz76KA4cOOBuMBydAg4KFCtWDFOmTAksxecSdQfhOZSvBGT/xcyZMxudc4IECSCn/vKkUqNvM5OLjMB6pVTRyHQNRLqANQpA80gFz34pYKLA+PHjA3vZmNzk0yy+qTb5DjM3XQTklKg5c+YETl0zfb8SXcwZhzsCcvhJr169ULFiRcgbTzYKUCCyAnKKtOn7Ls6bNw+VK1eOLCR7p4B5Ap8ppSJWA4p0AeupPzdy/8K8e8KMKBA5gY4dO6Jfv4gsGY5c0EH2/MADD2DRokVBXsWHU4ACoQpIIWvo0KEYOXIktm3bxhMLQ4XkdVoJREVFoVSpUmjTpk3gNE5utqzV7WEwhgv44cRs2VOyXbt2ht9JpkcB2wUaKqUm2t7rXx1GuoCVAoDsRB0VqQTYLwVME6hatSrkEx+Tm2z++dlnn5mcInOjgJYClmXhk08+QZcuXfDHH3+wkKXlXWJQsQlIoUpOFhw+fDjkdyYbBSjgvECTJk3w5ZdfOj+wgyM+9dRT+OILzsVwkJxDeV9ATh1Mo5Q6E6lUIlrAkqAty/oWQO1IJcB+KWCagJx6IvtDmdzeffdddOvWzeQUmRsFtBaQ4pXMgnzttdewd+9erWNlcBS4WUBm8L7//vsoXrw4kiZNShwKUMAlgXfeeQfvvfeeS6M7M6wcqiR707JRgAJxFpihlKoV50eH8EAnCljPAhgdQmy8hAK+Ezh16hRSp05tfN7jxo2DfHLHRgEKuCtw9epVTJs2LbC0cPbs2e4Gw9EpEINA4sSJ0aBBg8DpmpUqVaITBSiggcDnn3+OZ5+Vt3nmNlmmLEvwEyZMaG6SzIwC9go0V0pFdJmNEwUsOYVQTiNkowAFYhGQ43rz589vvNPKlStRunRp4/NkghTwkoDsjSV78C1dutT4WaBeui9+jVVOEMyYMSPq1KmDvn37Qo60Z6MABfQRWLFiBcqWLatPQBGKZNeuXciePXuEeme3FDBOoIhSKqK1HycKWIkAnAUQ37jbw4QoYLPAggUL8NBDD9ncq37dyak1slSSjQIU0EtA9siSmaBff/01OnXqxEKWXrfHN9HI/lYyK/D+++9H8uTJfZM3E6WAlwTktZycRGh6W7x4MSpUqGB6msyPAnYIXAKQUil12Y7OYuoj4gUsGdiyrP4A2kcyEfZNARMEJkyYgEaNGpmQSow5pEuXLnDssny6zkYBCugrcPHiRcgL9/Hjxwc26pX/ZqNApATuvvtuvPDCC6hduzbkdDP+joiUNPulgD0C8oFHhgwZjP+gQ34HNmzY0B409kIBswU+UEq9GekUHXkHaVlWNADZJZazsCJ9R9m/pwWGDBmC1q1bezqH2IKvXLmy8acsxmbAr1PAawKyB4jMiJGZWevXr8fp06e9lgLj1VBAZm+ULFkScjJt/fr1IfvNsFGAAt4RePjhhzF37lzvBBxCpP3790f79pyHEQIdL/GXwNU/9z3PqpQ6GOm0nSpgySuSrQByRjoh9k8BLwv44USXtm3bYuDAgV6+TYydAr4WuHbtGoYOHYpevXoFZlNev37d1x5MPjgBKVLJXo/y/JH9rTjTKjg/PpoCOgm0a9cOgwYN0ikk22Np06aN8TnajsYO/SiwC0AepdS1SCfvSAFLkrAsawqAxyOdEPungJcFWrZsiWHDhnk5hVhjHzFiRGCZCBsFKOBtgUuXLmH37t1Ys2YNPv30U8gefmwUuJ1A/Pjx8eijjwZOLCtcuDAyZ87M2VZ8qlDAAIHRo0fjueeeMyCTmFOQU7Pl9Gw2ClDgjgJT/ty8vb4TRk4WsJ4AMNGJpDgGBbwq8OSTTwaW6Jja5JP2H3/8kcegm3qDmZevBQ4ePIjvvvsOCxcuxKpVq7Bjxw5fe/g5+Xjx4gUKVaVKlUKVKlVQvXp1pE6d2s8kzJ0CRgrIz3s5fEj2wzK1yTLJOXPmmJoe86KAXQJPKKUm2dXZnfpxsoAlywiPA0jlRGIcgwJeFJAX+lLgMbXJ0hGZrVGsWDFTU2ReFKDAXwJy9LjMzJo2bRoOHz6MP/74A7L8kM08gQQJEgQKVDKzSg4ikZlWsrkzGwUoYLaA7IlYokQJo3+2SyFePpRhowAFYhQ4BSCDUuqKE0aOFbAkGcuyvgJg9hFrTtw1jmGswH333Ye1a9cam5+8ydm8eTNy5uR2eMbeZCZGgVsErl69ilOnTgUKWDNmzAjMMpXTDdm8LSAfSMiHLo0bN0bFihWRNm1apEyZEjL7io0CFPCHwJ49e5A3b15cvnzZ2IQlvy1bthibHxOjgA0C45VSjW3oJ05dOF3AevbP3elHxykyPogCPhTIkSNHYE8ZU1vixIkhL3bkuHQ2ClDAvwJnzpzBpk2bAgXtX375BevWrQucbnjy5En/omicuZwWKLMsihQpgkKFCgX+FChQAIkSJdI4aoZGAQpEWkAO8siSJQsuXrwY6aFc6z86OhoHDhxwbXwOTAEPCDRXSn3mVJxOF7ByAJBNMRwd1ylMjkOBcAXSp0+P48dlpa2ZLWnSpIFTy+RvNgpQgAK3CuzcuRNLly4NLNfYsGEDjh07FihqyZ8LFy4QLIICSZIkQZo0aQIzqdKlSxcoVpUpUwbly5dHtmzZIjgyu6YABbwqIIUree167tw5r6YQa9ypUqUKzCBmowAFYhTIoZRybAaG44Uky7J+BlCUTwAKUODfAjJDSU72MrXJHimcYWHq3WVeFLBXQDYFvn79emBvFfl7//79WLFiBVauXBlYai0zt0x+02Sv5j97k5lTsmRdZlVJkaps2bK49957A8v/ZGmg/C2HbrBRgAIUiE0ga9as2LdvX2wP8+zX5ech92/07O1j4JEXWKeUKhH5Yf43guOvTizLaghgvJNJciwKeEFAPsWST8BNbvImadmyZSanyNwoQAEHBc6ePRsoYp0/fz7wR36OyocAsh+L/Fv235L/vvE1+f8yk0v+yP+/cuVK4N/y5uTGDK8bRbGbi2Ny/Y0mhbWb/zucdOVn/s17Rt08OzVZsmSBrm/8LR9wxI8fP/B7QvYTlCKU/Fv+v/xb/pbrEyZMGPgj/0/+vvF1eaz0lTx58r/7DCd2XksBClBABGrUqIFZs2YZjSE/801/jW70DWRykRRopJSaEMkBbu3bjQLWPQC2AUjhZKIciwK6C/z+++/ImDGj7mGGFd/zzz+PkSNHhtUHL6YABShAAQpQgAIU0EPgjTfeQN++ffUIJkJRHDlyhCerRsiW3Xpa4AyAPEqp353Mwo0CVgIAGwHkdjJRjkUB3QW2bdsWOMnF5NavXz906NDB5BSZGwUoQAEKUIACFPCNwGeffYbmzZsbne/27duRK1cuo3NkchQIQWA7gIJKqSshXBvyJY4XsCRSy7I6A+gVctS8kAIGCvz8888oXry4gZn9L6Vp06ahbt26RufI5ChAAQpQgAIUoIBfBJYvX45y5coZna7suSgHW7BRgAL/EOiklOrjtIlbBaz0AGS3P7M3/HH6bnI8TwssWrQIDz74oKdziC34TZs2IX/+/LE9jF+nAAUoQAEKUIACFPCAgJyeLScRmtzk8JDSpUubnCJzo0CwAhcBZFZKHQv2wnAf70oBS4K2LGsRgAfCTYDXU8AUgZkzZ6JmzZqmpPOvPOREK9kUmZtgGnuLmRgFKEABClCAAj4UkEMj5JAMU9vChQtRsWJFU9NjXhQIRWChUqpSKBeGe42bBawuAN4LNwFeTwFTBKZOnYp69eqZks6/8pDClV0ndxmLxMQoQAEKUIACFKCAxwTSpUuHEydOeCzquIc7Y8aMwGmLbBSgwN8CXZVSPd3wcLOAVRjAejeS5pgU0FFgwoQJaNSokY6h2RJThgwZIKe4sFGAAhSgAAUoQAEKmCOQNWtW7Nsnu8OY2SZNmoT69eubmRyzokBoAoWVUhtCuzS8q1wrYEnYlmWtBWD2rtXh3R9e7SOB0aNH47nnnjM242zZsmH37t3G5sfEKEABClCAAhSggB8FChYsCNnn1NQ2fvx4NGzY0NT0mBcFghX4WSnlWg3H7QLWiwCGByvGx1PARIFRo0bh+eefNzG1QE6yebvJL26MvXFMjAIUoAAFKEABCtxBoFSpUlizZo2xRvIavXnz5sbmx8QoEKRAC6XUiCCvse3hbhew8gDY+OdeWPFty4gdUcCjAh999BFee+01j0Yfe9j33Xef0S9uYhfgIyhAAQpQgAIUoIB5AnKKtpymbWobNmwYWrRoYWp6zIsCwQhcBVBQKbUtmIvsfKzbBayEACT5rHYmxb4o4EWBwYMHo02bNl4MPU4xV6hQAYsXL47TY/kgClCAAhSgAAUoQAFvCFSvXh2zZ8/2RrAhRPnhhx8a/SFzCCS8xL8CewDkUUpdcYvA1QKWJG1Z1gsAXJuC5hY8x6XArQJ9+/bFG2+8YSxMlSpVMHfuXGPzY2IUoAAFKEABClDAjwJyiracpm1qYwHL1DvLvEIQaKmUGhbCdbZdokMBS5YPHgOQyras2BEFPCjQu3dvdOnSxYORxy3kWrVq4bvvvovbg/koClCAAhSgAAUoQAFPCDz99NP44osvPBFrKEHKa/ROnTqFcimvoYBJAn8AyKCUkmWErjXXC1iSuWVZ8wBUdk2BA1NAAwHTC1gNGjTA119/rYE0Q6AABShAAQpQgAIUsEugVatW+OSTT+zqTrt+evXqhc6dO2sXFwOigMMC85VSrtdsdClgvQJgiMM3gMNRQCsB0wtYTZo0wbhx47QyZzAUoAAFKEABClCAAuEJyOykPn36hNeJxlf36NED77zzjsYRMjQKOCLwqlLqv46MdIdBdClgJQdwCkA8t0E4PgXcEjC9gCWfzg0dOtQtXo5LAQpQgAIUoAAFKBABgffee8/oAo8U6OR1OhsFfCwgm7anVUqdddtAiwKWIFiWJQunn3IbhONTwC0B2f/K5F+OHTp0QL9+/dzi5bgUoAAFKEABClCAAhEQGDRoENq1axeBnvXokgUsPe4Do3BVYKxSqqmrEfw1uE4FrMcAmHt8hQ53mzFoLSBr699//32tYwwnuLfffhs9e/YMpwteSwEKUIACFKAABSigmcDw4cPx0ksvaRaVfeGwgGWfJXvyrEB9pdQUHaLXqYB1F4CDAKJ0gGEMFHBawPQCFvcPcPoZxfEoQAEKUIACFKBA5AXGjBmDZs2aRX4gl0Z46623jP6Q2SVWDusdgWsAopVSR3QIWZsClmBYliU7PDfRAYYxUMBpAdMLWH379sXrr7/uNCvHowAFKEABClCAAhSIoICcMv3kk09GcAR3u27duq0laYgAACAASURBVDUGDx7sbhAcnQLuCYxRSmlTodatgJUXwHoACd27PxyZAu4ImF7Akl/88gKAjQIUoAAFKEABClDAHIHp06ejbt265iR0SyYsYBl7a5lY7AKXARRRSm2N/aHOPEK3AlZiABsB5HAmfY5CAX0ETC9gyQmEchIhGwUoQAEKUIACFKCAOQIzZ85EzZo1zUmIBSxj7yUTC1pgF4CCSqmLQV8ZoQu0KmBJjpZlfQTg1Qjly24poK0AC1ja3hoGRgEKUIACFKAABSgQg8Ds2bNRvXp1Y304A8vYW8vEYhcYqpR6JfaHOfcIHQtYWf/cB2s7gATOMXAkCrgvYHoB6/PPP0fTplqcvur+zWYEFKAABShAAQpQwBCBhQsXolKlSoZk8+80WMAy9tYysTsLXAGQWym1Vyco7QpYgmNZ1jwAlXWCYiwUiLQAC1iRFmb/FKAABShAAQpQgAJ2C7CAZbco+6OAFgLzlVLa1WR0LWDJNLUhWtw2BkEBhwRYwHIImsNQgAIUoAAFKEABCtgmwAKWbZTsiAI6CbymlJLtnbRquhawMgGQqWrxtNJiMBSIoAALWBHEZdcUoAAFKEABClCAAhERYAErIqzslAJuC2RSSh1wO4hbx9eygCVBWpY1HkBD3cAYDwUiJcACVqRk2S8FKEABClCAAhSgQKQEWMCKlCz7pYBrAhOUUo1cG/0OA+tcwCoDYCmAKB3hGBMF7BYwvYA1dOhQtGrVym429kcBClCAAhSgAAUo4KLAvHnzULVqVRcjiOzQ3MQ9sr7sXTuBawDuV0qt0S4yADoXsFL+tYwwtY5wjIkCdguwgGW3KPujAAUoQAEKUIACFIi0wMyZM1GzZs1ID+Na/yxguUbPgd0R+ANAVqXUaXeGv/Oo2hawJGzLsj4E8JqOcIyJAnYLmF7AGjRoENq0aWM3G/ujAAUoQAEKUIACFHBRYPr06ahbt66LEUR2aBawIuvL3rUT+EgppW0NRvcClsy+OgggiXa3lQFRwGYB0wtYffv2xeuvv26zGrujAAUoQAEKUIACFHBTYNKkSXjiiSfcDCGiY3fq1Am9e/eO6BjsnAKaCJwHcK9SSmZhadm0LmCJmGVZPwAwd1G1lk8LBuWGgOkFrO7du6Nr165u0HJMClCAAhSgAAUoQIEICYwZMwbNmjWLUO/ud8sClvv3gBE4JjBXKfWwY6OFMJAXClgtAXwcQm68hAKeEjC9gCX59erVy1P3hMFSgAIUoAAFKEABCtxZYNiwYWjZUt6ymdlYwDLzvjKr2wq0VEoN09nGCwWsFH9t5p5GZ0jGRoFwBWRqcpcuXcLtRtvr27dvj/79+2sbHwOjAAUoQAEKUIACFAhe4MMPP0Tbtm2Dv9AjV7CA5ZEbxTDDFTgJIItS6my4HUXyeu0LWJK8ZVkfAOgYSQj2TQG3BUwvYLVo0QLyCR0bBShAAQpQgAIUoIA5Au+99x7eeecdcxK6JRNZQSArCdgoYLjAAKVUB91z9EoBqxSAVbpjMj4KhCNgegGrcePG+PLLL8Mh4rUUoAAFKEABClCAApoJvPnmm/jgA5lvYGZjAcvM+8qs/iVQRimlfc3FKwWsRAC2AsjKJxoFTBUwvYBVr149TJ482dTbx7woQAEKUIACFKCALwVatWqFTz75xNjcWcAy9tYysf8J/AYgt1Lqku4onihgCaJlWfUATALgmZh1v/mMTy+BAQMGoEMH7WdthoxWs2ZNfP/99yFfzwspQAEKUIACFKAABfQTkFn248eP1y8wmyKSPb5ee+01m3pjNxTQTsACUF8pNVW7yG4TkGeKQZZlJQSwC8C9XoBljBQIVmDw4MFo06ZNsJd55vFVqlTB3LlzPRMvA6UABShAAQpQgAIUiF3gsccewzfffBP7Az36CBawPHrjGHZcBfYDyKGUuhLXC9x8nJcKWBLr5wCecROMY1MgUgKmF7DKly+PJUuWRIqP/VKAAhSgAAUoQAEKuCBQrVo1zJkzx4WRnRlyxIgReOGFF5wZjKNQwHmBrwA0UUrJTCztm2cKWCJpWVZhAOsARGkvywApEKTAp59+avQvx2LFimHdOvn2ZaMABShAAQpQgAIUMEXggQceMPpDylGjRqF58+am3C7mQYGbBa4CKKWU+tkrLJ4qYP1VxJI1SFW8Asw4KRBXgdGjR+O5556L68M997i8efNiy5YtnoubAVOAAhSgAAUoQAEKxCxw3333Ye3atcYSTZw4EU888YSx+TExXwvMU0pV9ZKAFwtYz/55GuFoLyEzVgrERUB+OTZs2DAuD/XkYzJnzox9+/Z5MnYGTQEKUIACFKAABShwe4E8efJg+/btxvJMmjQJ9evXNzY/JuZrgWZKqTFeEvBiASvDn/tg7QSQwkvQjJUCsQlMmTLF6F+OadOmxfHjx2Nj4NcpQAEKUIACFKAABTwkEB0djUOHDnko4uBCnTFjBmrUqBHcRXw0BfQXOA8gm1LqqP6h/i9CzxWwJHTLsnoB6OwlaMZKgdgEZs2aZfQvx4QJE+LixYtQypM/dmK7ffw6BShAAQpQgAIU8KVA8uTJce7cOWNzX7BgAR588EFj82NivhXo/uf7sne9lr0n30lalpUFwCYAybwGzngpEJPA4sWLUbFiRaOBTpw4gTRp0hidI5OjAAUoQAEKUIACfhG4dOkSkiRJIhMMjE15xYoVKFOmjLH5MTFfCsjsq/xKKc/t7+LVAlZ8AMtkx3xfPt2YtJECP/30E0qWLGlkbjeS4gsAo28vk6MABShAAQpQwGcCGzZsQOHCclC8uW39+vXG52ju3WNmMQgsB1BRKSWnEHqqebKAJcKWZVUCMA9APE+JM1gKxCCwdetW5MuXz2ifcePGoUmTJkbnyOQoQAEKUIACFKCAXwRM38NV7uOuXbuQPXt2v9xS5mm+wHUA1ZVSP3gxVc8WsP4qYsl5rcW9CM+YKXCrwO+//46MGTMaDdO1a1d0797d6ByZHAUoQAEKUIACFPCLQLdu3dCjRw+j05UN6u+55x6jc2RyvhJYp5Qq4dWMvV7A6gSgt1fxGTcFbhaQzS9lE0yTmxxBLEcRs1GAAhSgAAUoQAEKeF+gQYMGmDx5svcTuUMGZ8+eRbJk3HrZ6Jvsr+Q6KaX6eDVlrxewZLrKdm7m7tWnH+O+VUBO6rty5YqxMPnz58emTXL+AhsFKEABClCAAhSggNcFZPsL2QbD1BYVFYWrVz23TZCpt4N5hS8gx4XmVkodCr8rd3rwdAFLyCzLGgCgnTt8HJUC9gqkS5cOclKfqU0+vfrjjz8QP76cw8BGAQpQgAIUoAAFKOBVgcuXLyNt2rSQVQSmthQpUuD06dOmpse8/CcwUCnV3stpm1DAKgbgJ27m7uWnIWO/ISAbRO7Zs8dYEDlm+eDBg0idOrWxOTIxClCAAhSgAAUo4AcB+dA1U6ZMuHDhgrHpyt5XsgcWGwUMEJDN24srpdZ7ORcTClgJAMhm7oW8fCMYOwVEoHjx4vj555+NxUiUKBG2b9+OzJkzG5sjE6MABShAAQpQgAJ+ENi7dy/y5MkDmYllasudOze2bdtmanrMy18CvwK4Tynl6f1qPF/AkuecZVlF/5qFFeWv5yCzNU3goYcewoIFC0xL6+98ZOngL7/8ggIFChibIxOjAAUoQAEKUIACfhDYsGFD4MNXk/eIKlmyJFavXu2H28kczRaQjdzKKaU8/2Q2ooD1VxFLpq1IIYuNAp4VeOKJJ4w+pU8pheXLl6NMmTKevUcMnAIUoAAFKEABClAAWLZsGSpUqCCTCYzlqFKlCubOnWtsfkzMNwIblVJGrFgzqYDVAUA/3zwFmaiRAi1btsSwYcOMzO1GUnLUcr169YzOkclRgAIUoAAFKEAB0wXGjh2Lpk2bGp3mk08+iQkTJhidI5PzhcCbSqkPTMjUpAJWSgCyQPluE24Mc/CnQLdu3dCjRw+jk+/evTu6du1qdI5MjgIUoAAFKEABCpgu0KFDBwwYIAfCm9teffVVfPTRR+YmyMz8IHAEQHal1HkTkjWmgCU348/pq+/++Vc3E24Mc/CnwODBg9GmTRujk5fZVzILi40CFKAABShAAQpQwLsC1apVw5w5c7ybQBwi79WrFzp37hyHR/IhFNBWoJtSypgZEqYVsPIB2KztU4eBUSAWAZmi3KhRI6OdcuTIgZ07dxqdI5OjAAUoQAEKUIACpgtkyJABx44dMzrNzz//3PhlkkbfQCYnAgWUUsbUSEwrYEk+skj5CT5XKeBFgYULF6JSpUpeDD3OMUdFReHUqVNIlixZnK/hAylAAQpQgAIUoAAF9BE4evQo7rrrLn0CilAkMsPs4YcfjlDv7JYCEReYrJRqEPFRHBzAqAKWuFmWlQnADgCJHHTkUBSwRWDLli3Inz+/LX3p3Ikcu1ywYEGdQ2RsFKAABShAAQpQgAIxCKxYsQJly5Y13mfjxo0oUKCA8XkyQSMFLgDIrZQ6YFJ2JhawogCsBlDcpBvFXPwhIDOTUqdObXyyU6ZMweOPP258nkyQAhSgAAUoQAEKmCgwZswYNGvWzMTU/pHTH3/8gVSpUhmfJxM0UmAdgNJKqasmZWdcAUtujmVZMs9zNgAj8zPpCchc/i2QMWNG/P7770bTvP/++3jrrbeMzpHJUYACFKAABShAAVMFZGNzeT1ncouOjsaBA0ZNXjH5djG3fwtUVkrNNw3G2AKPZVnL/iximT+v1bRnJPNBjRo1MGvWLKMlnn/+eYwcOdLoHJkcBShAAQpQgAIUMFWgcePGGD9+vKnpBfKqU6cOpk+fbnSOTM5YgeVKqXImZmdyAas5gFEm3jTmZLZAly5d0Lt3b6OTrFy5MubNm2d0jkyOAhSgAAUoQAEKmCpQunRprF4tu7aY27p3746uXbuamyAzM1mghVJqhIkJmlzASg5gN4D0Jt445mSugOwPVb9+fXMT/LOynCVLFuzdu9foHJkcBShAAQpQgAIUMFUgTZo0kP2hTG4y+0pmYbFRwGMCsu41r1LqnMfijlO4xhawJHvLsmQW1qfcCytOzwU+SBMBOe2kaNGiuHbtmiYR2R9GvHjxcPz4cV9sWG+/HnukAAUoQAEKUIAC7gns3LkTuXLlci8AB0aOiorCr7/+6ovTwR3g5BDOCVgAWiqlhjs3pLMjmV7AuhvAdgApnGXlaBQIXWDfvn2BX5bnz58PvRMPXPnNN9/g0Ucf9UCkDJECFKAABShAAQpQ4IbAiBEj0KJFC6NBkiZNis2bNwdWDbBRwEMCpwHkUkod9VDMQYVqegFL8usFoFNQKnwwBVwUOHnyZOBTrRMnTrgYReSHfuWVVzBkyJDID8QRKEABClCAAhSgAAVsE2jYsCEmTpxoW386dpQ2bVrs2LEDslSSjQIeEuivlHrdQ/EGHarRBSzRsCwrEQDZbEdmY7FRQHuBK1euIFu2bDh48KD2sYYToCyTXLt2LWQ5IRsFKEABClCAAhSggP4C8jq1UKFC2LZtm/7BhhFhdHQ09uzZgwQJEoTRCy+lgKMCvwPIqZQyehmP8QWsv4pYwwCYPc/V0e8NDhZpgapVqxp/St+9996LLVu2IHlyOW+BjQIUoAAFKEABClBAd4FTp04hb968OHz4sO6hhhWfvBb/4YcfwuqDF1PAYYH/KqVedXhMx4fzSwErGsA+AFGOC3NACoQg8O6770KO7jW5SeFKpmbffTcnR5p8n5kbBShAAQpQgALmCMgKgZw5c+LixYvmJHWbTHr06IF33nnH6ByZnHECOZRSu43L6paEfFHAkpwty/oIgPEVSdOfsH7Jb/78+ahcubLR6SqlsGzZMtx///1G58nkKEABClCAAhSggCkC3333HerUqWNKOjHmsWTJEpQvX974PJmgMQIfKaVeMyabOyTipwJWcQBr/XBTmaP3BS5cuIBUqVJB9hkwuXXq1Am9e/c2OUXmRgEKUIACFKAABYwRePHFFzFy5Ehj8rldIrLv1ZkzZ5AokWylzEYBTwgUUUr96olIwwzSNwUscbIsaxaAamGa8XIKOCIgG7nv3SvnD5jb5LTF7du3m5sgM6MABShAAQpQgAKGCFiWBTmd748//jAko9unIa/Bd+82fiWW0ffQZ8nNUUr5psbhtwLWXQB2AEjhsyc10/WgwIMPPohFixZ5MPK4hyzLCA8dOsR9sOJOxkdSgAIUoAAFKEABVwR27doV2P/K9FapUiXIdh5sFPCAwAUAuZRSZh9ff9ON8FsBKx6AGZyF5YFvRYaIZs2aYcyYMcZLyAkvctILGwUoQAEKUIACFKCAvgJ+2f/q2WefxejRo/W9EYyMAv8TmA2gplLqul9QfFXAkptqWdZ9AFYAiO+Xm8w8vSkge0N16dLFm8EHEXX//v3Rvn37IK7gQylAAQpQgAIUoAAFnBZ47733fHEy3wcffICOHTs6zcvxKBCsgGyWXFop9XOwF3r58b4rYP1VxJoK4DEv3zjGbr7A999/j9q1axufaL169TB58mTj82SCFKAABShAAQpQwMsC1apVw5w5c7ycQpxinzdvnvGngccJgg/SXWC8Uqqx7kHaHZ9fC1hVAMy1G5P9UcBOAdkbKjo62s4utewrffr0OHz4MOLFkxW+bBSgAAUoQAEKUIACuglcunQJGTJkCJzOZ3o7evQo5PUpGwU0F6iglFqqeYy2h+fXApbk/SOASraLskMK2CiQOXNm7N+/38Ye9exq6dKlKFeunJ7BMSoKUIACFKAABSjgcwHZs/SRRx4xXiFHjhzYuXOn8XkyQc8LSC2jqlLK8nwmQSbgywKWGFmWlRfArwASBGnGh1PAMYHGjRtj/Pjxjo3n1kCyz4DsN8BGAQpQgAIUoAAFKKCfQOvWrTFkyBD9ArM5Im7gbjMou4uEwGUAxZVSmyLRue59+rmAJYWrZQBK6n6TGJ9/BYYOHYpXXnnFeICyZcti2TL5dmSjAAUoQAEKUIACFNBJwLIslClTBqtXr9YprIjEMmLECLzwwgsR6ZudUsAmgVV/bockywdlE3ffNd8WsOROW5ZV7K8TCRP57s4zYU8ILFq0CA8++KAnYg0nyLvvvhuy55dSvv6RFA4hr6UABShAAQpQgAIREZAClrxWk72hTG+LFy9GhQoVTE+T+XlX4CKA8kqptd5NIbzIff9u0bKsbwGYf9RbeM8TXu2SwK5du5AzZ06XRnd22PXr16Nw4cLODsrRKEABClCAAhSgAAXuKLBmzRqUKlXKF0p79uxB1qxZfZErk/SkwGSlVANPRm5T0CxgWVZlAPNs8mQ3FLBVQE58SZYsGa5du2Zrvzp29uSTT2LChAk6hsaYKEABClCAAhSggG8F6tevjylTphiff1RUFM6fP4+ECRManysT9KxAOaXUcs9Gb0PgLGBZlhh8/eeG7vVt8GQXFLBdoGbNmpg5c6bt/erWYYIECXDs2DGkTJlSt9AYDwUoQAEKUIACFPClwJkzZ5AmTRpffJhat25dTJs2zZf3mUl7QmCiUqqhJyKNYJC+L2CJrWVZxQH8BIAeEXyysevQBKZOnYp69eqFdrHHrvrpp59QokQJj0XNcClAAQpQgAIUoICZAvLarGRJf5x5JbPMHn/8cTNvJLPyuoAF4D6l1DqvJxJu/CzY/CVoWdZ8AJXCBeX1FLBbQJYPJk2aFJcvy4mpZreBAweibdu2ZifJ7ChAAQpQgAIUoIBHBAYNGoR27dp5JNrQw5Rlg7J8UJYRslFAQ4F1Sil+ys8ZR/97alqWlR7ALgApNHzCMiQfC8jJL7KR++7du41XkNlX8kkfGwUoQAEKUIACFKCA+wJly5bFihUr3A8kwhFkz54dO3fu5InYEXZm9yEJnAGQSyl1JKSrDbuIM7BuuqGWZcleWL7e1d+w57cx6Tz00ENYsGCBMfncKZHNmzcjX758vsiVSVKAAhSgAAUoQAFdBbZt24a8efPqGp6tcT344IO+ea1tKxw7c0LgS6VUEycG8sIYLGD9s4CVBcB2ADx6wgvPXh/F+Pbbb6NXr16+yLhHjx545513fJErk6QABShAAQpQgAK6CvTp0wedOnXSNTxb4+rYsSM++OADW/tkZxSwQeDKX7Ov9tnQlxFdsIB1y220LEt+cnU04u4yCWMEVq1ahTJlyhiTz50S4SdgvrjNTJICFKAABShAAc0FqlWrhjlz5mgepT3hLVy4EBUrVrSnM/ZCAfsEBiql2tvXnfd7YgHr3wUsmSe7AUB8799eZmCKgGzknjFjRhw9etSUlGLMQzasP3DgAFKnTm18rkyQAhSgAAUoQAEK6Chw7tw5REdH4/Tp0zqGZ2tMKVOmDLzGlo3c2SigkcBVAPmVUjs0isn1UFjAus0tsCyrJ4Au3OTe9ecnA7hJoEGDBpg8ebIvTGQJoSwlZKMABShAAQpQgAIUcF6gX79+kGV1fmg1atTAjBkz/JAqc/SWQG+llNQk2G4SYAHr9gWsNAC2AsjAZwsFdBEYMmQIWrdurUs4EY1DPvHbsWMHkiRJEtFx2DkFKEABClCAAhSgwD8Frly5EjgB+7fffvMFjex95ZdinS9uqBlJyomD+ZRSJ81Ix74sWMC6fQFLXLr99cc+bfZEgTAEli1bhvLly4fRg3culSnc69ev983JN965M4yUAhSgAAUoQAHTBXbv3o0CBQrg4sWLpqcayO+HH35A1apVfZErk/SMQHel1LueidbBQFnAigHbsqx4ALYAyO3g/eBQFIhR4MyZM8iQIQMuXbrkC6U333wTcvoNGwUoQAEKUIACFKCAcwIyI0leh/mhxYsXD4cPH0b69On9kC5z9IbAdgAFlFKyBxbbLQIsYN3hKWFZ1isAhvBZQwFdBPy0D1ZUVBT++OMPJE+eXBd+xkEBClCAAhSgAAWMFrh8+XKgmCMfnPqhyeqGJUuW+CFV5ugdgVeUUkO9E66zkbKAdecCVmIA6zkLy9knJUeLWWDBggWoXLkyLMvyBdO4cePQpEkTX+TKJClAAQpQgAIUoIDbAt9++y0effRRt8NwbPwxY8bgmWeecWw8DkSBWAQ2ASillDpPqdsLsIAVyzPDsqxqfz6JvgcQxScRBdwWkCN+c+XK5YsjjcW6Tp06mD59utvsHJ8CFKAABShAAQr8H3t3Hu/VtP9x/L0aNaFbqIQGTVIoSVxRiFIolFlmkZshs1CZM3SNGbsyFTJWiAZThoqoVCgNSIPmeVq/s8497i+pzvme77T3Wq/1z/W47b3W5/Ncu9P3fL5rrxWEwNlnn63nn38+iFx32GEHTZ8+Xe7wIBoCERDYJKm1MWZ4BGKJbAgUsPIvYJWUNFlSzcjOIoEFI+CWdTdo0EA//PBDEDm7fQncCTh8sAhiukkSAQQQQAABBLIo4LZuqFq1qlauXJnFKDI39B577KGpU6eqdOnSmRuUkRDYtoDb+2pfY8w6kLYtQAGrAE+HtXYPSdMlFS/A5VyCQFoFrrzySvXt2zetY0Sp886dO6t///5RColYEEAAAQQQQAAB7wSuuuoqPfjgg97lta2ETjzxRL3xxhvB5EuikRZwRStXvHJFLNp2BChgFfDxsNa+KunkAl7OZQikTcB9U+SONg5lH6zdd99dP/30k9wybxoCCCCAAAIIIIBA6gXcKdfu8+WMGTNS33lEexw2bJhat24d0egIKzCBwcYYag0FmHQKWAVAcpfkFLDqS/pKEmtMC2jGZekTqFevXu6S51Da4MGD1aFDh1DSJU8EEEAAAQQQQCCjAiNHjtRRRx0VzBekFSpU0MKFCzNqzGAIbENgtaTGxpgpCOUvQAErf6P/XWGtvV3STQncwqUIpEXgoosu0lNPPZWWvqPYqVt9tXTpUpUoUSKK4RETAggggAACCCAQW4GNGzfKrXifN29ebHNINPD27dvr9ddfT/Q2rkcgHQK3GWN6pqNjH/ukgJXArFprd5c0ixMJE0Dj0rQIDBo0SKeeempa+o5qp+5Y57Zt20Y1POJCAAEEEEAAAQRiKTB8+HAdc4w7eD2c5vaT7datWzgJk2lUBdZLqmGM+SWqAUYtLgpYCc6ItfZCSf0kFUnwVi5HIGUCixcvzv2mbPVqt+I0jNaqVSu99957MoYfW2HMOFkigAACCCCAQCYE3GqkN998MxNDRWYMd6J3rVq1IhMPgQQpsEnSZcYYV1ugFVCA3wQLCPXnZdZa9w7Tt5LqJngrlyOQUoEzzzxTL774Ykr7jHpnroAV2jeEUZ8T4kMAAQQQQACB+Ap88sknat68eXwTKETkBx54oMaOHVuIO7kFgZQKuA2N9zPGuBMIaQUUoIBVQKjNL7PWHi/prULcyi0IpEzALfc+9thjg9ls08G1bNlSI0aMSJkhHSGAAAIIIIAAAiELuFP43BeEIbWnn35a559/fkgpk2s0BdobY8Ja+piCeaCAVUhEa+07ktiQp5B+3Ja8wK+//qqaNWvKHXscSnObuH/xxRc64IADQkmZPBFAAAEEEEAAgbQITJo0SU2aNNGaNWvS0n8UOy1evLgmTpyoOnXqRDE8YgpH4B1jjFsUQ0tQgAJWgmB/Xm6tPVTSR2zoXkhAbktawFortwT666+/TrqvOHVQvXp1ff/993InE9IQQAABBBBAAAEEEhdwRav9999f06ZNS/zmGN+x2267afbs2ZxsHeM59CB0t/fVYcaYMR7kkvEUKGAVktxa6+wektS1kF1wGwJJC7z77rtq06ZN0v3EqQO3ifuHH36Y+zohDQEEEEAAAQQQQCBxgdGjR+vII4/Upk3ud+lw2j333KNrr702nITJNIoC/5Z0pTHGRjG4qMdEASuJGbLWVpLkNl/bKYluuBWBQgu4VVh77rmnfvklrJNX99hjj9zl3zvtxF+9Qj883IgAAggggAACQQqsWLFC++23n2bMmBFU/uXKldPcuXNVpkyZkQs3DwAAIABJREFUoPIm2UgJLHOHwRlj5kYqqhgFQwErycmy1roS/t2SsEzSktsLJ3DyySdr8ODBhbs5xnfdeuutuu2222KcAaEjgAACCCCAAAKZF7j77rt1ww03ZH7gLI/YokULjRw5MstRMHzAAm7F1fXGmHsDNkg6dYouSRPKnQI3XlKjFHRFFwgkLPDqq6+qY8eOCd8X9xtKlSqVu4dBxYoV454K8SOAAAIIIIAAAhkRWL58uapWraply9xCkLDa/fffr6uuuiqspMk2SgLfGGOoGSQ5IxSwkgR0t1trT5T0Rgq6ogsEEhZYt26dqlWrlrskOrTWtGlTffzxx2zEGdrEky8CCCCAAAIIJCywYcMGHXvssRoxYkTC98b9Bnf4z2+//aby5cvHPRXij69AB2MMNYMk548CVpKAeQUs5zhQUnjLYFLgRxfJC7hl4G45eGitaNGievrpp9W5c+fQUidfBBBAAAEEEEAgIQG35cRpp52m9evXJ3SfDxefddZZGjBggA+pkEM8BV4xxnSKZ+jRipoCVormw1pbT9JESUVT1CXdIFBggc8++0z//Oc/C3y9bxe6Dd333Xdf39IiHwQQQAABBBBAICUCM2fOVJ06deRW7ofYhg0bptatW4eYOjlnX8DtfVU/p4A1JfuhxD8CClgpmkNrrbPsJenmFHVJNwgUWMAtCd9ll120ZMmSAt/j04XNmjXTmDFjfEqJXBBAAAEEEEAAgZQJtGnTRu+++27K+otTRyVLltSCBQvkTiGkIZAFgZ45B771NMa4QhYtSQEKWEkCbn67tdatvnKV1Vop7JauECiQwPPPP6+zzz67QNf6eFG3bt3Ut29fH1MjJwQQQAABBBBAoNAC119/ve65555C3x/3Gzm5Ou4zGOv4f8hbfbUh1llEKHgKWCmeDGvtqZJe4FXCFMPSXb4CK1asyN3M/Y8//sj3Wh8vcN+uvf3222rVqpWP6ZETAggggAACCCCQsMDIkSPlVl+tXbs24Xt9uMGtupo1axabt/swmfHLwa24OsMY83L8Qo9uxBSw0jA31trXJbVPQ9d0icA2Bay1OvLIIzVq1KhglYwxmjJlSu4eDzQEEEAAAQQQQCBkAfeZqH79+u7E9GAZDj74YLm9YosUKRKsAYlnTeA1Y8wpWRvd04EpYKVhYnMKWA1zCljfpqFrukRguwKjR49WixYtglaqXbt2bhGvSpUqQTuQPAIIIIAAAgiEKzB79my1bNlS06dPDxdB0ptvvqkTTjghaAOSz5pAQ2OMO+SNlkIBClgpxNy8K2ut28zdbeqOcZqM6XbrAgcddJDGjh0bNM/RRx+tt956S6VKlQrageQRQAABBBBAIDyBVatW5b42+NFHH4WX/GYZu9VnkyZNCtqA5LMi4JY83mqM6Z2V0T0flOJKmibYWltWkvuJuVeahqBbBLYq4DYyv/LKK4PXadeunV577TWVKFEieAsAEEAAAQQQQCAMgXXr1umYY46RW5UfervrrrvkNrCnIZBhgZmSGhhjVmR43CCGo4CVxmm21h4l6YM0DkHXCPxN4Pfff1fVqlW1cePGoHXcXgdnnXWWnn32WfY9CPpJIHkEEEAAAQTCENi0aZPOPPNMDRo0SO6/Q29u8/Y999wzdAbyz7xAS2NMuJsSp9mbAlaaga21gyR1TPMwdI/AXwSuueYa3XfffahIud+8uW/gaAgggAACCCCAgM8CfP77/9nt1q2b3FsJNAQyLPCKMaZThscMajgKWGmebmutOw5tvKQyaR6K7hH4n8CMGTNyT51Zs2YNKu4l9Ftv1S233MJKLJ4GBBBAAAEEEPBOwK226t27t2677TbvcitMQjvssIMmT56sGjVqFOZ27kGgsALulcEDjTHTCtsB9+UvQAErf6Okr7DWnivp2aQ7ogMECijgPsg0bdpU48aNK+Adfl9mjNEVV1yhBx54wO9EyQ4BBBBAAAEEghO46qqrclcbWev2jqY1aNBAEyZM4ItLHoVMC1xsjHky04OGNh4FrAzMeN6G7u4IzWoZGI4hEMgV+Pbbb3XggQdqw4YNiOQJXHfddbr77rvxQAABBBBAAAEEvBBwWyXcc889XuSSiiTc4T3fffed6tRxL8HQEMiYwGxJ9dm4Pf3eFLDSb5w7grW2vqQveZUwQ+AMkytwxBFHBH+E8paPglte714ppCGAAAIIIIAAAnEW6NmzJ68NbjGBRx11lD74gDO04vxcxzD2lZKa5Ox9NSWGsccuZApYGZwya617jdC9TkhDICMCL774Yu5pNLS/Cjz66KPq0qWL3KuFNAQQQAABBBBAIE4C7lXBRx55RP/617/iFHZGYn399dfVvn37jIzFIAjkCTxjjLkAjcwI8NtbZpxzR7HW7ijJvUrIea4ZdA95qPXr1+uQQw5hL6wtHoJixYpp8ODBOv7440N+PMgdAQQQQAABBGIoMHToUJ144olsE7HF3B122GEaNWqUihYtGsNZJeSYCsyUtL8xZmlM449d2BSwMjxl1toOkgZneFiGC1jgnXfeoVCzlfkvU6aMPvzwQx188MEBPx2kjgACCCCAAAJxEvj88891zDHHaPny5XEKOyOxvv/++2rVqlVGxmIQBPIETjHGvIZG5gQoYGXOOncka20RSe7F7JYZHprhAhVYvXq1qlWrpvnz5wcqsO20GzZsqDFjxsgVs2gIIIAAAggggECUBVauXJm7st5tUk77q0DVqlU1ffp0uU3caQhkSGCEpFbGmE0ZGo9hJFHAysJjYK0tL+kHSRWzMDxDBigwbtw4HXTQQRyvvJW579Chg1577TX2wwrw7wUpI4AAAgggEBeBTZs26aSTTtKbb74Zl5AzFmeRIkU0efJk1a1bN2NjMlDwAgsl1THGLApeIsMAFLAyDP7ncNbay3IKWI9kaXiGDUzAfehp3LixJkyYEFjm+adbsmTJ3P0SmjVrlv/FXIEAAggggAACCGRBwL062KJFC61duzYLo0d7SOcyYsQIvoyM9jT5Fl03Y8xDviUVh3woYGVxlqy17lXCo7IYAkMHJOD2wnKnsmzcuDGgrAuWauXKlTVt2jSVK1euYDdwFQIIIIAAAgggkCGBpUuXym17MHv27AyNGJ9h3CuDo0eP5ovI+EyZD5G+Z4xp7UMiccyBAlYWZ81a21CSWxLDPGRxHkIa+rjjjtOwYcNCSrnAuT777LM699xzC3w9FyKAAAIIIIAAApkQ6N+/v84777xMDBW7MTp37iznQ0MgQwI279RBNqLLEPiWw1A4yRL8n8Naay/Ne5WQucjyXIQw/BdffME3VNuY6Bo1aujHH3+U20eBhgACCCCAAAIIREFgw4YNqlOnjmbMmBGFcCIXg9vQvkGDBpGLi4C8FHDFK/fq4MNeZheTpCiaZHmirLXunaUvJdXLcigMH4hAt27d9NBDvLK9tenu16+fLr744kCeBNJEAAEEEEAAgagLPProo+ratWvUw8x4fMYYXX/99brzzjszPjYDBiswUVIzY8zKYAUikDgFrAhMgrV2L0nfSyodgXAIwXOBRYsWaZ999tG8efM8zzTx9Jo0aaKvvvoq8Ru5AwEEEEAAAQQQSIOAO0V67Nixaeg53l3utttumjJlisqXd4e70xBIu8AqSfsYY2alfSQG2K4ABayIPCDWWvf1wQ0RCYcwPBf4z3/+w35PW5nj4sWL648//mAzd8+ff9JDAAEEEEAgDgLLly9XxYoVtW7dujiEm9EYn3jiCV100UUZHZPBgha4L2fl1TVBC0QkeQpYEZkIa20ZSSMkNY1ISIThucDRRx+tDz/80PMsE0+vT58+6t69e+I3cgcCCCCAAAIIIJBCgXvvvVfXXXddCnv0o6vmzZvro48+8iMZsoiDwHhJLYwxy+MQrO8xUsCK0Axbaw+S9AWnEkZoUjwO5csvv9QRRxyhNWvWeJxl4qm5pfrOhoYAAggggAACCGRTwG1tMG7cuGyGELmx3Wr54cOH536GpSGQAYFNkg41xrjf0WkREKCAFYFJ+DMEa62bD/cq4fURCotQPBa46667dOONN3qcYeKplShRQqtXr+Y0wsTpuAMBBBBAAAEEUiSwadMmlSpVitcHt/B0G7e7z680BDIkcLekG40x7gRCWgQEKGBFYBI2D8FaW1SS+6pl/4iFRjgeCixZskS1atXSwoULPcyucCkVK1ZMS5cuVenSnKlQOEHuQgABBBBAAIFkBVatWqWddtpJGzZsSLYrb+4vU6aMZsyYoV133dWbnEgk0gLfSTrQGLM+0lEGFhwFrAhOuLW2iaSRkspGMDxC8kzAvS7XokWL3FVHNMkVsFxBz31opCGAAAIIIIAAAtkQcF+muQ3cKWD9V9+tkH/jjTfUpk2bbEwHY4Yn4E4dPMYY82l4qUc7YwpYEZ0fa+1Nkm6PaHiE5ZnAOeecowEDBniWVeHScQWs+fPncyxz4fi4CwEEEEAAAQRSILB48eLclUYUsP6L2aFDBw0ePDgFsnSBQIEEbjHG9C7QlVyUUQEKWBnlLvhg1lq3+sqdeFC74HdxJQKFE3Df8jVs2FCzZ88uXAce3UUBy6PJJBUEEEAAAQRiKkAB6/8nrlKlSvr22295dTCmz3IMw54kqZkxZkUMY/c+ZApYEZ5ia+0+ktxxaLxKGOF58iU0tyzbfbsVeqOAFfoTQP4IIIAAAghkX4AC1v/PwaBBg9SxY8fsTwoRhCDgilaNjTE/hJBsHHOkgBXxWbPW3iaph6QiEQ+V8GIukPOs6eSTT87dX8D9d6iNAlaoM0/eCCCAAAIIREeAAtZ/5+KEE07Q66+/zunQ0Xk0fY5kk6R7jDEc0R7hWaaAFeHJcaFZa13h6kNJLSIeKuF5ILB8+XLVr19fc+bM8SCbwqVAAatwbtyFAAIIIIAAAqkToIAl7bHHHpo8ebLKlSuXOlh6QmDbAqMkHWWMcYUsWkQFKGBFdGI2D8tau6+kMZL46R2D+Yp7iB9++KHatm2rtWvXxj2VQsVPAatQbNyEAAIIIIAAAikUCL2AVbJkSQ0ZMkRHHXVUClXpCoFtCqyU1NQYMxmjaAtQwIr2/PwvOmttZ0nPSmLOYjJncQ7zlltuUe/eYR68QQErzk8usSOAAAIIIOCHQOgFLPdZtGfPnn5MJllEXcDtnXKBMcb9rk2LuADFkIhP0J/hWWuLShor6YCYhEyYMReoVq2aZs2aFfMsEg+fAlbiZtyBAAIIIIAAAqkVCLmAVaNGDU2fPj21oPSGwLYFJkran1cH4/GIUMCKxzzlRmmt3VGSO9ZzjxiFTagxFJg/f76qVKmijRs3xjD65EKmgJWcH3cjgAACCCCAQPICIRewihYtqrlz52qXXXZJHpIeENi+gPu2vqExZhlQ8RCggBWPefpflNbaTpJe4lTCmE1czMIdOHCgTjvttJhFnZpwKWClxpFeEEAAAQQQQKDwAiEXsJzaSy+9FOxn0cI/NdyZoIDbrP1UY8yrCd7H5VkUoICVRfzCDm2t/bekfxX2fu5DID+BU045Ra+99lp+l3n552XKlMn91o8Tb7ycXpJCAAEEEEAgFgIrV67MXQ2/bFmYC0M6duyoQYMGxWKuCDK2Ao8YYy6PbfSBBk4BK4YTb63dWdI0SbvGMHxCjriA+6BUuXJlrVq1KuKRpie8/v37q3Nnd2YCDQEEEEAAAQQQyJ7Am2++qfbt22cvgCyOvMMOO2jhwoVyXyzSEEiDwHxJdY0xi9PQN12mUYACVhpx09m1tbahpE8kuX2xaAikTKB79+66//77U9ZfnDqqX7++Jk1y28zREEAAAQQQQACB7Avsu+++mjx5cvYDyUIEV199te67774sjMyQngssl3SIMYYP/TGcaApYMZw0F7K11s1dL0k3SWIeYzqPUQvbrbqqW7eu5syZE7XQMhLPU089pQsuuCAjYzEIAggggAACCCCQn8Cjjz6qrl275neZl39etWpVTZs2TaVLl/YyP5LKioCVdHvOr9O3GmPcf9NiJkDhI2YTtnm4eUWsYZKOjXEahB4hgffee0+tW7eOUESZC2X//ffX119/LWP4sZg5dUZCAAEEEEAAge0JWGtzv1z84YcfgoRyr1GecMIJQeZO0mkRcL87t6V4lRbbjHTKb2oZYU7fINbampLGS9opfaPQcwgCa9asUbVq1TRv3rwQ0v1bji+//LJOPfXUIHMnaQQQQAABBBCIrkDIp0NXqlRJM2bMUKlSpaI7QUQWF4Glkg40xvwUl4CJ8+8CFLA8eCqste0kvZ6zHLKYB+mQQpYE3n33XbVp0yZLo2d3WLdEferUqWwUmt1pYHQEEEAAAQQQ2IqAO5HQrRT/6acwf+8eMmSIjjvuOJ4NBJIR2CCpvTFmSDKdcG/2BShgZX8Oko4g71XClyR1Yj+spDmD7eDkk0/W4MGDg8u/SJEiGjFihI444ojgcidhBBBAAAEEEIiHwFdffaVDDjlEGzdujEfAKYyybdu2euedd1LYI10FKDBQ0hnGmE0B5u5VyhSwPJlOa20JSWMkNfYkJdLIoMCUKVPUsGFDbdjgvpwIq7mTB93eVyVKuL9CNAQQQAABBBBAIHoC69at03777Ze7Yjy0VqxYMX355Zdq1KhRaKmTb2oExkk61BizLjXd0Us2BShgZVM/xWNba13xaqSkHVPcNd15LnDxxRfrySef9DzLv6fnVl8NHTpUxx7LOQjBTT4JI4AAAgggEDOBt99+WyeeeKI7jTxmkScfbufOndW/f//kO6KH0ARWSDrCGOP2jKZ5IEABy4NJ3DwFa21nSfx092xe05nOpk2bVL16dc2ePTudw0Sy76OOOkoffPBBJGMjKAQQQAABBBBAYEuB5s2b65NPPgkOpnLlypozZ46KFi0aXO4knJTAucaY/yTVAzdHSoACVqSmI/lgrLXup/pbktjpMHnOIHp49dVX1bFjxyBy3TLJt956S8cff3yQuZM0AggggAACCMRPwK3COuGEE+IXeAoifuSRR3TZZZeloCe6CERgqKQTjDHhbRzn8QRTwPJwcq21pSW5ZZJ1PUyPlFIosGbNGtWqVUu//PJLCnuNR1duI9TRo0erePHi8QiYKBFAAAEEEEAgeIH169erVatWuZ9hQmsVK1bUjBkzVK5cudBSJ9/EBdxmcY2NMasSv5U7oixAASvKs5NEbNbaZpLeYz+sJBADuHX8+PFq2rRpcCfauM1AP/roo9zTfGgIIIAAAggggECcBMaNG6dmzZoFd/iO27vUFe4OO+ywOE0XsWZeYFnO4WatjDFfZn5oRky3AAWsdAtnsX9r7aWSHs1iCAwdcYHu3bvr/vvvj3iUqQ+vdu3a+v7779lHIfW09IgAAggggAACaRbYuHGj6tWrpx9//DHNI0Wv+zPOOEMvvPBC9AIjoigJdDXG8DtwlGYkhbFQwEohZtS6staWyNvQ/fSoxUY82RdYuHCh9tprL61aFdbK2pIlS2ratGm5udMQQAABBBBAAIE4CkydOlUNGjQIbhWWW0Xvcq9Zs2Ycp42Y0y/woqTzjTFr0z8UI2RDgAJWNtQzOKa1due8/bBqZHBYhoqBwGOPPRbkRpjt2rWT2wCVhgACCCCAAAIIxFngmGOO0fDhw+OcQqFi7927t26++eZC3ctNXgvMyNv3aonXWQaeHAWsAB4Aa20tSePYDyuAyU4gRbcB6AcffJDAHfG/1B297Pa+OvTQQ+OfDBkggAACCCCAQNAC7nPcscceq02bNgXl0KhRI7l9wIzhV9mgJn77ybp9r5oaY9zm7TSPBfhb7/Hkbp6atdadOftIIOmSZj4CCxYsUNWqVbVu3bqgrE455RQNGjSIDzxBzTrJIoAAAggg4KeAtVZuZfnQoUP9THAbWbnN3L/44gs1adIkqLxJdrsC7HsVyANCASuQibbWFs3b0P3iQFImze0IdO3aVY8+Gt7ehmPGjMk9tYeGAAIIIIAAAgj4IOBO5WvRooUPqSSUg1t5NmzYML6UTEjN24ufkHSpMSaspYjeTuf2E6OAFdDEW2v/kfcqYfWA0ibVLQRWrFihOnXq6LfffgvKxn1L576tc9/a0RBAAAEEEEAAAR8ENmzYoMaNG+u7777zIZ0C51ChQoXcQ3nc/9KCFnD7XjUxxiwKWiGg5ClgBTTZLlVrbSlJrnLhNnenBSjgTm7Zd9995Y5gDqW5E2tmzpyp3XffPZSUyRMBBBBAAAEEAhH49ddfVa1ateBOJHz//ffl9nSlBSuwWNLuxpjVwQoEmDgFrAAn3VrbUdLLkliKEuD8n3POORowYEBQmbvVV59//rncJu40BBBAAAEEEEDAJwG3iXvz5s312Wef+ZRWvrkccMABGj9+PK8R5ivl5QXudcHTjDGveJkdSW1TgAJWoA+HtfYuSdcHmn6wabvN26tUqRLUN3TulUG3R4I7apqGAAIIIIAAAgj4KOA+67Rt29a9beFjetvM6dtvv1XDhg2DyplkcwXuNsbcgEV4AhSwwpvz3IyttSUkfSVpv0AJgkz7lVdeUadOnYLK/fDDD5fb4JSGAAIIIIAAAgj4LHDYYYfp008/9TnFv+V2//3366qrrgoqZ5LVt5IOMsaEdZw6E58rQAEr4AfBWltRyv0BUCVghqBSd8UrV8QKqT3//PM688wzQ0qZXBFAAAEEEEAgQIGXX35Zp59+elCZH3jggRo7dmxQOQeerNvLuaEx5o/AHYJNnwJWsFP/38Sttf+U9Lak8oFTeJ++O32watWqWrp0qfe5/pmgy9edUFO6dOlgciZRBBBAAAEEEAhTYNmyZapfv75++eWXYACMMZo4cWJu3jTvBdym7W2NMWO8z5QEtylAAYuHwxWxLpP0MCvy/H4Y+vXrpy5duvid5GbZuQ80brN6Vl8FM+UkigACCCCAQPACgwYN0mmnnRbUXliXX365HnrooeDn3nMAt7nb5caYRz3Pk/TyEaCAxSPi/oFzpxE+IKkbHH4KuA09W7RooY8++sjPBLeS1T/+8Q/98MMPqlChQjA5kygCCCCAAAIIhC2wePFi1apVS3/8Ec4bVvXq1dOkSZPkDu6heSvgFltcYYxxpw/SAhaggBXw5G+eurW2nKSPJe0PiX8CGzZs0G677aZFixb5l9w2Mrriiiv0wAMPcLRyMDNOoggggAACCCDgBP71r3/p4Yfd7/thtBIlSmjOnDnaddddw0g4vCzHS2phjFkeXupkvKUABSyeif8JWGvdPljjJNWAxS+BoUOH5h6tHErbeeedNWvWLO24446hpEyeCCCAAAIIIIBArsDq1atVuXLloPY97datm/r27csT4J/AjLwTB8NZUujfHKY0IwpYKeWMf2fW2uaSRkgqFv9syMAJuNcHGzZsmLu0OpR2xhln6IUXXgglXfJEAAEEEEAAAQT+IuD2AH3xxReDUSlWrJjcJvalSpUKJucAEt0g6UhjjHtLiIZArgAFLB6EvwlYa8+V9Cw0fgi4lUjVqlXzI5kCZuH2+mre3NViaQgggAACCCCAQHgCo0ePzt3/NKQ2btw4NW7cOKSUfc/1XGPMf3xPkvwSE6CAlZhXEFdba93qqwcludMJeUZiPutvvPGGOnToEPMsCh5+06ZNNWbMGDbyLDgZVyKAAAIIIICAZwJuBX6zZs305ZdfepbZttPp06ePunfvHky+HifqThx0m7h1N8as9zhPUiuEAMWJQqCFcIu1tmjeq4SHh5Cvzzmeeuqpckcqh9Jef/11tW/fPpR0yRMBBBBAAAEEENiqwFtvvaUTTzwxGB23ZcaECRM4wCf+M+5eGWxpjNkY/1TIINUCFLBSLepRf9ZatwO2O/Vhb4/SCioVt4ln+fLltXbt2iDyNsZo/vz5qlixYhD5kiQCCCCAAAIIILAtgQULFuSeQu1WY4XQ3OfAyZMnq169eiGk62uOP0na3xiz0tcEySs5AQpYyfl5f7e11r1IPlpSWe+T9TDBgQMH6rTTTvMws62ndOmll+rRRx8NJl8SRQABBBBAAAEEtidwwQUX6JlnngkGqVevXurRo0cw+XqW6CpJzY0xbgEFDYGtClDA4sHIV8Bae6yktySVyPdiLoiUQOfOnfXcc89FKqZ0BVO6dOnc1VdlypRJ1xD0iwACCCCAAAIIxEpg5cqV2mWXXeRW5YfQWrVqpffffz+EVH3LcZ2k9saYYb4lRj6pFaCAlVpPb3uz1t4o6Q5vE/Q0sbp162ratGmeZvfXtA499FB9+umnQeRKkggggAACCCCAQEEF3Gckd8BNCK1ChQpauHBhCKn6luNNxpg7fUuKfFIvQAEr9aZe9mitdc+KW398rpcJepjUzz//rFq1amnjxjD2P+zXr58uvvhiD2eSlBBAAAEEEEAAgcILPPXUU7rooosK30HM7hw6dKjatGkTs6iDDre/pPONMWFs1hb0VCefPAWs5A2D6cFa697Ncq8SHhlM0jFO9JprrtF9990X4wwKHrr7tm327NlyrxHSEEAAAQQQQAABBP5fYPny5apRo0YwK5OOOuooDR8+nNMI4/GXYKSk49m0PR6TFYUoKWBFYRZiFIO1tpKkKZJ2jlHYwYW6bt067bnnnpo3b14QuV9++eV66KGHgsiVJBFAAAEEEEAAgUQFunbtGsxBN+4E7hkzZmjnnfl1JdHnJMPXL5ZU3xgzN8PjMlyMBShgxXjyshW6tbaKpO8kVchWDIy7fQG3GskdIbxqlTvMw//mNut0m3bSEEAAAQQQQAABBP4u8MEHHwTzWal48eKaOHGi6tSpw6MQXYE/JO1jjJkf3RCJLIoCFLCiOCsxiMla207SQEm8sxXB+XLv/rdr107W+v8q+U477aRff/2V0wcj+BwSEgIIIIAAAghEQ8CdRrj77rtr6dKl0QgozVE8/vjjuuSSS9I8Ct0XUsB9w366McZtTUNDICFTT01PAAAgAElEQVQBClgJcXHx5gLWWrcbZD9JPEcRezQ6deqkV155JWJRpSecXr16qUePHunpnF4RQAABBBBAAAFPBG677Tb17NnTk2y2n8aBBx6or776in2wojfb7tv1S40x7ndIGgIJC1B4SJiMG/4UyDuZ8A5JN6ASHYHVq1erbNmy2rRpU3SCSlMkpUqV0vTp01W5cuU0jUC3CCCAAAIIIICAHwJz585VzZo15T4r+t6MMfrtt99UqZLbvpcWIYF7JV3PiYMRmpGYhUIBK2YTFrVwrbUlcjbfe9WdHhG12EKNZ+TIkTryyDAOinQfwiZPnqySJUuGOt3kjQACCCCAAAIIFEhg7dq1ql+/fu6XfyG0wYMHq0OHDiGkGpcch0g6yRizLi4BE2f0BChgRW9OYheRtbaYJHcE6mGxC97DgHv37q1bbrnFw8z+nlL37t3Vp0+fIHIlSQQQQAABBBBAIFkB99np/vvvT7abWNzP58RITdMnkloaYzZEKiqCiZ0ABazYTVk0A7bWVpQ0lZMJsz8/7jQ+d9KM761IkSK5m7ezNNz3mSY/BBBAAAEEEEiVwO+//567mXsIW000a9ZMY8aMSRUd/RRewJ04WNsYs6jwXXAnAv8VoIDFk5AyAWvtPjmvEn4tife5UqaaWEfr169XhQoVtHz58sRujOHVBx98sD7//PMYRk7ICCCAAAIIIIBA9gQOOeSQID5DuS0mFi1apNKlOTQ9e0+b1khqZIyZksUYGNojAQpYHk1mFFKx1v4z54fU25LKRyGe0GJ477331Lp16yDSdicPuhMIaQgggAACCCCAAAIFF3BbTbgtJ0JogwYNUseOHUNINYo5LpZ0ojHm4ygGR0zxFKCAFc95i3TU1trzJD3GSqzMT9M555yjAQMGZH7gLIz46aef6tBDD83CyAyJAAIIIIAAAgjEV+Czzz7TP//pvnP2v7nilSti0TIu4DZqv9QY80zGR2ZArwUoYHk9vdlJzlrrnquukh7KTgRhjupeHzzggANyT+Xzve266665RyMXLVrU91TJDwEEEEAAAQQQSKnAxo0bVaVKFc2fPz+l/Uaxs3r16unbb79V8eLFoxiezzF1y9kb+WFjjPU5SXLLvAAFrMybBzGitdb9K3GHpO7stZaZKXf7XlWrVi33XX/f2w033KA777zT9zTJDwEEEEAAAQQQSIvAtddeG8RJzuXLl9esWbNUrly5tDjS6d8EXMHqPkk3GWPW44NAqgUoYKValP7+J2CtdctjXpZ0CizpF3DfLrkVWNb6/UWHO33QnSjTtGnT9KMyAgIIIIAAAggg4KHA2LFj5Q7E8f00QmOMJk6cqPr163s4i5FM6VVJpxljNkYyOoKKvQAFrNhPYfQTsNYOl3R09CONd4RXX321HnjggXgnUYDoS5UqpZkzZ8q9RkhDAAEEEEAAAQQQSFzAvT5YvXp1rVq1KvGbY3bHNddco3vvvTdmUccy3A+MMa1iGTlBx0aAAlZspiq+gVprXaVhpCS++kjTNLpvzypVqqQFCxakaYTodNuoUSO5bw3dSiwaAggggAACCCCAQOICbsV+kyZNNH78+MRvjtkdlStX1q+//iq3GouWNgG3CW9LY4z/G6uljZCOCyLA3+KCKHFN0gLW2kqSvpC0V9Kd0cHfBNyKJPctWgjt+eef15lnnhlCquSIAAIIIIAAAgikTeDll1/W6aefnrb+o9SxK2C5jetpaRGYLelgY8zctPROpwhsJkABi8chYwJ5RSz3NQ//eqRYffjw4TrmmGNS3Gv0unOvD7rN6jl9MHpzQ0QIIIAAAgggEC8BdxrhjjvuGMRrhB999JGaN28erwmKR7SuaNXIGPN7PMIlyrgLUMCK+wzGLH5rbZOc/bA+yzmhkLNsUzh39913n9z7/b63Aw88MPf1QRoCCCCAAAIIIIBA8gLus1UIrxH269dPF198cfJg9LC5gDtlsLkxxr1lQ0MgIwIUsDLCzCCbC1hr3eZ+76OSOoHjjjtOw4YNS12HEe3p/PPP19NPPx3R6AgLAQQQQAABBBCIl8CFF14YxGers846SwMGDIjX5EQ/2lbGmA+iHyYR+iRAAcun2YxRLtbaTpKelVQ6RmFHMlS3/HuXXXbR4sWLIxlfKoN6/fXX1b59+1R2SV8IIIAAAggggECwAm+88YY6dOjgff41atTQTz/9xEbuqZlpd3TlecaYQanpjl4QKLgABayCW3FligWstZdIejzF3QbXnVv27ZZ/+97cvldLlixR2bJlfU+V/BBAAAEEEEAAgYwIrFixQjvvvLPcF6K+tzlz5qhq1aq+p5mJ/LoYY/plYiDGQGBLAQpYPBNZFbDWXi/prqwGEfPB+/btqyuvvDLmWeQffsuWLTVixIj8L+QKBBBAAAEEEEAAgQILHHnkkRo5cmSBr4/rhYMGDVLHjh3jGn5U4r7JGHNnVIIhjvAEKGCFN+eRythaWyRnQ/c7JHWXVCxSwcUkmE6dOumVV16JSbSFD/Puu+/WddddV/gOuBMBBBBAAAEEEEDgbwL33ntvEJ+xunXrJvfFL61QAhtytn65V1IPY8ymQvXATQikQIACVgoQ6SI5AWttUUkvSTpFEs9kgpwHHXRQECfzuW8GW7RokaAOlyOAAAIIIIAAAghsT2DUqFFyK919b0cffbSGDx/ue5rpyM9Kel1SJ2OM/++apkOQPlMmQLEgZZR0lIyAtbZE3n5Y5yXTT4j37rbbbpo/f773qf/yyy/afffdvc+TBBFAAAEEEEAAgUwK/Prrr0HsDVWnTh1NnTo1k7S+jOUO3nL7Xq3zJSHyiK8ABaz4zp13kVtry0h6xlX3vUsuTQnNnTs3t6hjrftixN9WrVo1zZgxg5Nj/J1iMkMAAQQQQACBLAm4z5HulL6ZM2dmKYLMDFumTBktW7ZMRYq4HUxoBRRw+5S4EwdXFvB6LkMgrQIUsNLKS+eJClhry0lyu0g25nXC/PX69eunLl265H9hzK+47bbbdOutt8Y8C8JHAAEEEEAAAQSiKdCrV68gPmt98cUXatq0aTQnIVpRuW/Hx0tqaYxZHq3QiCZkAQpYIc9+RHPPe53wg5xCVvOIhhiZsEI4NcYYo59//ll77bVXZNwJBAEEEEAAAQQQ8Elg1qxZql69uver+t2BQO5gIFq+Ah9LOprXBvN14oIMC1DAyjA4wxVMwFq7i6SXJR1ZsDvCu2rt2rVy+18tXbrU6+R32WWX3CXtpUuX9jpPkkMAAQQQQAABBLIlsGrVKrktGxYsWJCtEDIybv369TVp0qSMjBXjQUblbdju98MQ4wkKOXQKWCHPfsRzt9ZWleSOCqkX8VCzEp7bcLNmzZpyhSyfW4MGDfT111+rWLFiPqdJbggggAACCCCAQNYENmzYoEaNGmnixIlZiyETA7svROfNm6eyZctmYrg4juF2uXcrr36JY/DE7L8ABSz/5zjWGVprS0n6XlK1WCeShuC/++673A8aGzf6fZptx44dNWjQoDQI0iUCCCCAAAIIIIDAnwKdOnXSK6+4Pbv9bSVKlNC0adNyV5vR/ibgdvHfxxizGhsEoipAASuqM0Nc/xOw1laRNFTS/rD8v8C7776rNm3aeE/y3HPP6eyzz/Y+TxJEAAEEEEAAAQSyKTBgwACdc8452Qwh7WO7Ewi/+uorNW7szouibSYwQdJxxpjfUEEgygIUsKI8O8S2eRFr75yTCd+RVBeW/wr07NlT7nQ+n5v7kPHLL7+ocuXKPqdJbggggAACCCCAQNYF5s6dq6pVq2rTpk1ZjyWdAbhVZqeccko6h4hb3+61wXbGmJ/iFjjxhidAASu8OY9txtba3XK+GRgraY/YJpHCwI855hgNH+62CPO31ahRQ9OnT/c3QTJDAAEEEEAAAQQiJFCrVi399JPfdYwrr7xSDzzwQITUsxrKnJw3XZoYY+ZlNQoGR6CAAhSwCgjFZdEQsNb+I+cbgvHsiSXttNNOWrZsWTQmJk1RdOjQQYMHD05T73SLAAIIIIAAAgggsLnASSedpNdff91rlIMPPliff/651zkWMLlZkhoZYxYV8HouQyDrAhSwsj4FBJCogLV2P0lvSKqe6L2+XO9OIHRLvH1vvXr1Uo8ePXxPk/wQQAABBBBAAIFICPTu3Vu33HJLJGJJVxClSpXS0qVLVbx48XQNEYd+f5bU3hjzbRyCJUYE/hSggMWzEEsBa209SaMkudcKg2ujR49WixYtvM/brb5yq7BoCCCAAAIIIIAAAukXcKuv3Cos35s7ibB27dq+p7mt/Nzrgi2MMVNCBSDv+ApQwIrv3AUfubW2jCS3QVJwRawnnnhCl1xyiffPwJQpU1S3Lvv2ez/RJIgAAggggAACkRD4/vvvVb9+/UjEks4g3n77bbVr1y6dQ0S1b1e8qmmMWRnVAIkLge0JUMDi+Yi1QN5KrKGhvU543XXX6d5774313OUXfMmSJXOXd7v/pSGAAAIIIIAAAgikX2Dt2rW5+6y6//W59enTR927d/c5xa3l5l4bPI6VV6FNu1/5UsDyaz6DzCZvT6y3JO0VCsAZZ5yhl156yet0Dz/8cLlXJWkIIIAAAggggAACmRNo2bKlRo1yO3X42y6++GL169fP3wT/ntlsScez51VIU+5nrhSw/JzX4LLKO51wgqQ9Qki+efPm+uSTT7xOtWfPnt5vIur1BJIcAggggAACCMRS4Pbbb/f+EJ02bdpo6FD3EkcQbY6k/TltMIi59j5JCljeT3E4CVpr3V5YbsmO95sm7bnnnpozx/1b5G/76KOP5Ap1NAQQQAABBBBAAIHMCXz66ac67LDDMjdgFkaqV6+e3H5fAbSpOb8fHWGMcXtf0RCIvQAFrNhPIQlsLmCtrSnpNfctg68ybk+CcuXKaf369b6mmLvv1eTJk1WzpptOGgIIIIAAAggggECmBKZPn567kbvP+2C5z9JLlixRkSJFMsWajXHc2ymnGGN+ysbgjIlAOgQoYKVDlT6zKmCtrSLpM0nVshpImgb/5ptv1KhRozT1Ho1u3eahP/zwg3bddddoBEQUCCCAAAIIIIBAIALz589X7dq1cw/T8bn9+OOP2nvvvX1NcaakQ40xv/maIHmFKUABK8x59z5ra20pSeMl1fMt2SeeeEKXXHKJb2n9JZ9KlSrp559/1g477OB1niSHAAIIIIAAAghETWDNmjWqXr26fv/996iFltJ4XnzxRZ1++ukp7TMinU2R1NgYszoi8RAGAikToICVMko6ipqAtbaqpAGSWkQttmTi6dKli/enprgVZuPHu/ojDQEEEEAAAQQQQCDTAo0bN9bXX3+d6WEzOt7VV1+t++67L6NjZmAwd3zk2caYXzIwFkMgkHEBClgZJ2fATApYaytKGizJ7UQZ++fdWqtmzZrpyy+/zCRjxsfq1q2b+vbtm/FxGRABBBBAAAEEEEBAuuqqq/Tggw96TXHEEUdo1ChX7/GiWUnuiPKTjTELvMiIJBDYikDsf6FnVhHIT8BaWyJvT6wD87s26n++bt067bPPPnKba/rcXnvtNZ100kk+p0huCCCAAAIIIIBAZAXeeustnXjiiZGNLxWB1apVK/fQoOLFi6eiu2z3MS5vz6t12Q6E8RFIpwAFrHTq0ndkBKy15SQ9LaljZIIqRCDLly9X3bp19dtvfu/H6PKrXLlyIYS4BQEEEEAAAQQQQCBZgXnz5sntSepzq1KliqZNm6ayZcvGPc1XJF1gjFke90SIH4H8BChg5SfEn3sjYK0tI+khSefG9XXChQsXyn1b5I799bXtuOOO3p964+vckRcCCCCAAAII+CNQvnx5rz9zuvzcSYQVKlSI66S51wb7S/qXMWZlXJMgbgQSEaCAlYgW18ZeIO91wpcknSCpWNwS+vXXX1WzZk2tXbs2bqEXOF63wmzKFHd4Cg0BBBBAAAEEEEAgWwL16tXT1KlTszV82sctWbJk7rYcu+++e9rHSsMAGyS9LuksYwyvDaYBmC6jKUABK5rzQlRpFLDWFpXUS9KNaRwmLV1PmjRJDRo0SEvfUem0RYsWGjlyZFTCIQ4EEEAAAQQQQCBIgZYtW/q0yflW53DChAnab7/94ji/d0u62RizMY7BEzMChRWggFVYOe6LtYC1toik6yXdEadEBg8erJNPPjlOIScca6dOnTRw4MCE7+MGBBBAAAEEEEAAgdQJnH766Xr55ZdT12EEe+rfv786d+4cwci2G9INku41xmyKW+DEi0CyAhSwkhXk/lgLWGsvkXR/zj8CpeOQSK9evXTrrbfGIdRCx+iObb7/fjclNAQQQAABBBBAAIFsCVxzzTW67777sjV8Rsbt1q2b+vbtm5GxUjDIKklXG2P6paAvukAglgIUsGI5bQSdSgFrbSdJsVjyc9ppp3m/Oumhhx7S5Zdfnsoppi8EEEAAAQQQQACBBAUee+wxXXbZZQneFa/LDz/8cI0ePToOQbvVVqcbYwbFIVhiRCBdAhSw0iVLv7ESsNYeLWloziuFxaMc+EEHHaSxY8dGOcSkY3vnnXfUtm3bpPuhAwQQQAABBBBAAIHCCwwZMkTt2rUrfAcxuLNSpUqaO3du1CNdL6mtMWZ41AMlPgTSLUABK93C9B8bAWvtQZLelFQ5qkH7fpyxc4/xZppRfWyICwEEEEAAAQQQSFgghMODihQponXr1qloUXfGUyTbbzkfj080xvj9DXYk6QkqigIUsKI4K8SUNQFrbSVJX0raM2tBbGPg1atXq3TpWGzVlRTdggULVLFixaT64GYEEEAAAQQQQACB5ASWLl2qnXfeOblOYnD3okWL5L4kjmCbJelgY8zvEYyNkBDIigAFrKywM2iUBay1bgXWB5LqRynOefPmyS1z9rntuOOOWrJkiYzhR5PP80xuCCCAAAIIIBAPgZ122knLli2LR7CFjHL27NnaY489Cnl32m6bLOkoildp86XjmArwW2JMJ46w0ytgrd1V0guS3N5YkWg//fSTatWqFYlY0hXEPvvso8mT3b/XNAQQQAABBBBAAIFsCzRs2FATJ07MdhhpHX/q1KmqU6dOWsdIsHP3RfqZxpj5Cd7H5Qh4L0ABy/spJsFkBKy1r0g6WVLW/664vaEOOOCAZNKJ/L1t2rTR0KFuL30aAggggAACCCCAQLYFTjzxRL311lvZDiOt43/zzTfaf//90zpGATu3OW+AvGqMcSek0xBAYCsCWf+lnFlBIMoC1lq3o+Ndkq7JdpyffvqpDjvssGyHkdbxu3TpIndkMw0BBBBAAAEEEEAg+wKXXnqpHn/88ewHksYIPvvsMx1yyCFpHKHAXfeRdIMxZmOB7+BCBAIToIAV2ISTbuIC1trikrpIcv+olEi8h9TcMXz4cB1zzDGp6SyivfTq1Us9evSIaHSEhQACCCCAAAIIhCVw11136cYbb/Q66ZEjR6pFixbZzHFt3pfl/Ywx67MZCGMjEHUBClhRnyHii4SAtdb9XTlP0r2S/pGNoNzybbeM2+f2zDPP6LzzHDMNAQQQQAABBBBAINsCAwYM0DnnnJPtMNI6vtu+wm1jkaW2WFJ3Sf2NMe4VQhoCCGxHgAIWjwcCCQhYa5tLel/SDgnclpJLBw4cqNNOOy0lfUW1kyFDhui4446LanjEhQACCCCAAAIIBCUwbNgw7z+bvfHGG9n6ktitvHInDX4a1ENFsggkIUABKwk8bg1TIGdj930kfSypQiYFQvgGbMSIEWrZsmUmWRkLAQQQQAABBBBAYBsCo0ePzvbrdWmfm0GDBqljx45pH2eLAf6Q1NwY832mB2Y8BOIsQAErzrNH7FkTsNa61wjflJSxXdWffvppXXjhhVnLORMDf/755zr44IMzMRRjIIAAAggggAACCOQj8NVXX6lp06ZeO73wwgs644wzMpnjJ5I6GGMWZnJQxkLABwEKWD7MIjlkRcBaW0zSG5LaZiKARx55RJdffnkmhsraGBMmTNB+++2XtfEZGAEEEEAAAQQQQOD/BSZOnKiGDRt6TdK/f3917tw5Uzm+LekkY8yGTA3IOAj4JEABy6fZJJeMC1hr3amEvfNODknr36e+ffvqyiuvzHiOmRxw6tSpqlOnTiaHZCwEEEAAAQQQQACBbQj8+OOPql27ttc+Tz31lC644IJ05+g2aL87Z5DbjDHr0j0Y/SPgq0Baf+H2FY28ENhcIO+Ewosl3Z9zSmHpdOn06dNH1157bbq6j0S/M2fO1F577RWJWAgCAQQQQAABBBAIXWDOnDnac889vWZ47LHH1KVLl3TmuEqS+xb6KU4aTCczfYcgQAErhFkmx4wIWGtPkPRMujZ3v+OOO3TzzTdnJJdsDTJ37lxVqlQpW8MzLgIIIIAAAggggMBmAvPnz9duu+3mtcnDDz+srl27pitHt1n7ucaYd9I1AP0iEJIABayQZptc0y5grd1V0lRJ5VM9WK9evXTrrbemuttI9ffHH3/oH/9w++PTEEAAAQQQQAABBLItsGTJEpUvn/KPtdlO6y/ju7ccunfvno6Ylkiqb4z5LR2d0ycCIQpQwApx1sk5rQLW2sqSXpDUMpUDhVDAWrFihcqUKZNKNvpCAAEEEEAAAQQQKKTAypUrVbZs2ULeHY/b0lTAGiHpTGPM7/FQIEoE4iFAASse80SUMROw1roqzMNuyXCqQr/pppt05513pqq7SPazZs0alSxZMpKxERQCCCCAAAIIIBCawIYNG1S8eHGv07799tvlPmensPWXdLkxZmUK+6QrBBCQRAGLxwCBNAnkbe5+gyT33p87rTCpdsMNN+juu93hJf62TZs2yRh+LPk7w2SGAAIIIIAAAnETKFKkiKx1h+j52dxbDj169EhFcu50wZ6S7mKz9lRw0gcCfxfgN0WeCgTSLGCtbZPz/vuryZ5Q6HsBq3Tp0nLL1GkIIIAAAggggAAC0RHYeeedtXTp0ugElOJIUlTAWiGpkzFmWIrDozsEENhMgAIWjwMCGRCw1jaWNDBnb6y9Czuc7wUst3m728SdhgACCCCAAAIIIBAdgcqVK+v33/3dyqlnz5665ZZbkgH/KecQp1ONMeOT6YR7EUAgfwEKWPkbcQUCKRHI2xfLfStzWGFe3/W9gFWtWjX9/PPPKbGmEwQQQAABBBBAAIHUCFSvXl0zZ85MTWcR7MV9xi7kPrPuvcqPJR1vjFkWwdQICQHvBChgeTelJBRlAWttUUkPSPpXonFSwEpUjOsRQAABBBBAAAEEkhWoW7eupk2blmw3kb0/iQLWI5KuMMZsjGxyBIaAZwIUsDybUNKJvoC11h3lcoakpyQVK2jEvhew3IejKVOmFJSD6xBAAAEEEEAAAQQyIHDAAQdowoQJGRgpO0MUooC1QdJFkp43xrj/piGAQIYEKGBlCJphENhSwFrbXJI7ZrdGQXR8L2Dtv//++uabbwpCwTUIIIAAAggggAACGRKggPUX6BmSzjXGuFcHaQggkGEBClgZBmc4BDYXsNZWkPS+JLfJ+3YbBaz8hPhzBBBAAAEEEEAAgVQLUMD6n6hbhtbSGLM41cb0hwACBROggFUwJ65CIG0C1tpyku6Q1HV7m7v7XsCqV6+evv/++7Q50zECCCCAAAIIIIBA4gIUsOQ2a39IUg9jzPLEBbkDAQRSJUABK1WS9INAEgLW2iKSukjqLan81rryvYDFKYRJPEDcigACCCCAAAIIpEmgVq1a+umnn9LUe/a7zWcPLLfaqoekx40xm7IfLREgELYABayw55/sIyZgrT1E0quSqmwZmu8FrD333FOzZs2K2IwQDgIIIIAAAgggELZA9erVNXPmTG8RevXqpR49XI3qb+03SacYY8Z4mzyJIRAzAQpYMZswwvVfIG9frBGS9ts8W98LWOXLl9eiRYv8n2AyRAABBBBAAAEEYiSw6667asGCBTGKOLFQt1HA+lbSUcaYhYn1xtUIIJBOAQpY6dSlbwQKKWCtLZGzH1ZPSddKcq8X6tZbb5X7B9bXVqJECa1du9bX9MgLAQQQQAABBBCIpUDZsmW1cuXKWMZekKC3KGC51wT7SLrFGLOuIPdzDQIIZE6AAlbmrBkJgYQFrLUdJfVz+2K5f1xdEcvntnHjRhUpkluvoyGAAAIIIIAAAghkWcBa6/1ns969e+vmm2920m6/q0uMMa9kmZ3hEUBgGwIUsHg0EIi4gLW2lKRJvXr1quF7AcutwHIrsWgIIIAAAggggAAC2RdYt26dSpYsmf1A0hhBnz591L17959z9qGtb4xZncah6BoBBJIUoICVJCC3I5AJAWvtP0455ZQ7X3vttYszMV62xli2bJnKlSuXreEZFwEEEEAAAQQQQGAzgRUrVnj/2axTp05PDBw48EZjDJux8vQjEHEBClgRnyDCQ2AzAfduXRdJd0ra0UeZhQsXqkKFCj6mRk4IIIAAAggggEDsBNwBOx5/Nlsm6ca87To2xm5yCBiBAAUoYAU46aQce4G6koZKqhH7TLZI4Ndff1WVKlV8S4t8EEAAAQQQQACBWAr89ttv2n333WMZez5Bz5B0nKSpPiZHTgj4KkABy9eZJS/fBXaW9IikM3xKdPr06apRw7u6nE9TRC4IIIAAAgggEJDAjBkzVLNmTd8yfknSZZKW+JYY+SDguwAFLN9nmPx8FnA7al7g0yuFkyZNUv369X2eM3JDAAEEEEAAAQRiIzB58mTtu+++sYk3n0DdK4M3SHo659XBdb4kRR4IhCRAASuk2SZXXwWaSvqPJPdqYazbV199pSZNmsQ6B4JHAAEEEEAAAQR8ERg3bpwvn83cq4LnSfrcl7khDwRCFKCAFeKsk7OPAqUlvZL3Ln9s8xs9erQOP/zw2MZP4AgggAACCCCAgE8C7rNZixYt4p6S2zu2o6RVcU+E+BEIXYACVuhPACSDIH4AAB4cSURBVPn7JFBU0lmSHpZUNo6JvfPOO2rbtm0cQydmBBBAAAEEEEDAO4EhQ4aoXbt2cc3LvTJ4uaQXJXHKYFxnkbgR2EyAAhaPAwL+CTTOOw74wLil9uSTT+rCCy+MW9jEiwACCCCAAAIIeCnw9NNPx/GzmZU0XtIlef/r5dyQFAIhClDACnHWyTkEgRKSnpN0sqRicUn45ptvVu/eveMSLnEigAACCCCAAAJeC/To0UO33357nHLcIOk1SeewUXucpo1YESiYAAWsgjlxFQJxFCgiqY2kFyTtFIcEzjrrLA0YMCAOoRIjAggggAACCCDgvcCZZ56pF190b+DFoi3N205jiCS3CouGAAKeCVDA8mxCSQeBrQjsLenfklpLivTf+WbNmmnMmDFMIgIIIIAAAggggEAEBNxnsy+++CICkWw3BFesel9S15wC1vSoB0t8CCBQeIFI/zJb+LS4EwEEthBwf9d7SrpCUrmo6uyyyy6aN2+ejOFHU1TniLgQQAABBBBAIAwBa6122203LViwIMoJu43aH5J0C6uuojxNxIZAagT4LTE1jvSCQBwE3N/3+pJGSNo1igG7wtXixYu1006xeOMxioTEhAACCCCAAAIIpERg0aJFqlChQkr6SlMn8yUdLWkixas0CdMtAhEToIAVsQkhHAQyIFBeUi9Jl+b8r9snK1Jt3LhxatzYHaRIQwABBBBAAAEEEMiWwPjx43XggZE81HqTpEdyila35rxdsCRbPoyLAAKZF6CAlXlzRkQgKgKnSOojaa+oBOTiePnll3XqqadGKSRiQQABBBBAAAEEghNwn8lOP/30qOU9R9I1kgZFLTDiQQCB9AtQwEq/MSMgEGWBHSV9mnPc8L5R2eC9d+/euvnmm6NsRmwIIIAAAggggID3Ar169dKtt7pFTpFobqP2CZKOkOT2vaIhgECAAhSwApx0UkZgCwH3GmHnvA0wy2Rb5+yzz9Zzzz2X7TAYHwEEEEAAAQQQCFrgzDPP1IsvvhgFg+WS/iXpeUkboxAQMSCAQHYEKGBlx51REYiigFuF1VdSi2zujXXEEUdo1KhRUfQhJgQQQAABBBBAIBiBww8/XB9//HE283V7XX2UV7yalM1AGBsBBKIhQAErGvNAFAhERcCtxrpd0uWSymYjqL322kszZ87MxtCMiQACCCCAAAIIIJAnUK1aNc2aNStbHisk3Z938JArZNEQQAABUcDiIUAAga0J1JY0OG9vrIwKFS1aVKtWrVKJEiUyOi6DIYAAAggggAACCPxXYPXq1Spbtqw2bcpK7egHSe0lfc98IIAAApsLUMDieUAAgW0JuBVYV0u6VlLpTDK98847atu2bSaHZCwEEEAAAQQQQACBPAH3Wez444/PtIdbdXW3pH9Lcv9NQwABBP4iQAGLBwIBBPIT+KekRyU1zO/CVP35hRdeqCeffDJV3dEPAggggAACCCCAQAIC559/vp599tkE7kj6UnfC4EWSxibdEx0ggIC3AhSwvJ1aEkMgpQLF8/YgcKux3D5ZaW1uz4Xp06erSJG0D5XWPOgcAQQQQAABBBCIm8DGjRvlPov98ssvmQjdSrpH0s2cMJgJbsZAIN4CFLDiPX9Ej0AmBdzPi6aSHpHUOJ0Dly9fXj/++KMqVKiQzmHoGwEEEEAAAQQQQGALgYULF6p27dpavHhxum2+zDs4aJwkV8iiIYAAAtsVoIDFA4IAAokKlJN0i6RL07U3VvHixTVx4kTVqVMn0di4HgEEEEAAAQQQQCAJgWnTpqlBgwZav359Er1s99ZVeftc3SFpZboGoV8EEPBPgAKWf3NKRghkSmCvnJVY7+SdVJjynyVu34Vzzz03U7kwDgIIIIAAAggggICk//znP+n6DOZWWU2V1FrSLLARQACBRAVS/ktnogFwPQIIxFqgjKTz8r5FS+nPk1atWun999+PNQ7BI4AAAggggAACcRM48sgjNXLkyFSH7YpXXSUN4ITBVNPSHwLhCKT0F85w2MgUAQS2EHAnFN4r6ZhUyRQtWlRuD4add945VV3SDwIIIIAAAggggMB2BBYtWqRKlSql+vXBDyVdLek78BFAAIFkBChgJaPHvQggsKXAFZJuytnovWIqaIYNG6bWrd0qcxoCCCCAAAIIIIBAugXc6vdjjz02VcMszOnoNkmPpqpD+kEAgbAFKGCFPf9kj0A6BP4h6RVJRybb+U033aTbb7892W64HwEEEEAAAQQQQKAAAjfeeKPuuuuuAlyZ7yXuHcSTJaX9KMN8I+ECBBDwRoACljdTSSIIREqgSM4y8Q6S+uTsBVqtsJEdfPDB+vzzzwt7O/chgAACCCCAAAIIJCBw0EEHaezYsQnc8bdLZ0u6UtKbOadWb0qmI+5FAAEEthSggMUzgQAC6RTYSdL9OSfOnJpTzHIbvifUjDGaMWOGqlUrdA0sofG4GAEEEEAAAQQQCFVg9uzZqlGjhjZu3FgYgpV5K/DddhLLCtMB9yCAAAL5CVDAyk+IP0cAgVQI1JP0nqQ9E+3s2muv1T333JPobVyPAAIIIIAAAgggkIDAddddp3vvdWfyJNxmSmoraXLCd3IDAgggkIAABawEsLgUAQSSEigr6fS8FVnuvwvU6tevrwkTJqhYsWIFup6LEEAAAQQQQAABBBIT2LBhgxo1aqSJEycmcqNbdXW5pFclrUjkRq5FAAEECiNAAaswatyDAALJCNSR1EtSx4J0Urp0af3444+qUqVKQS7nGgQQQAABBBBAAIEEBRYsWJC7ZcOqVasKeqc7sOcWSdMKegPXIYAAAskKUMBKVpD7EUCgsAItcl4pfFbSXpK2+7Poiiuu0IMPPljYcbgPAQQQQAABBBBAYDsCbsuGPn3c2TvbbVaS26T9Akkf5ncxf44AAgikWoACVqpF6Q8BBBIRcK8SupNq3IqsbTb3+uDcuXNVsWLFRPrmWgQQQAABBBBAAIF8BBYvXqxKlSpp3bp1+Vn1kPRvScvzu5A/RwABBNIhQAErHar0iQACiQo0yFuGftK2VmMNHDhQnTp1SrRfrkcAAQQQQAABBBDYjsCbb76p9u3bb+sKdyThWzl/eJukhDbIAh0BBBBItQAFrFSL0h8CCCQjcFreB6TaW3bSvHlzjRo1SkWKFEmmf+5FAAEEEEAAAQQQ2EygTZs2evfdd7dm8mPeF4wDAUMAAQSiIEABKwqzQAwIILC5gDtu8Oa8D0x/+RnlClhHHHEEWggggAACCCCAAAIpEBg3bpyaNGmyZU9u1dVdOf+nW3Xl/puGAAIIREKAAlYkpoEgEEBgCwH3s6le3genU/78s9atW2vYsGFgIYAAAggggAACCKRAoGPHjnr11Vc378mdLugKV1MluU3baQgggEBkBChgRWYqCAQBBLYh4DZlcJuG7r/DDjuYCRMmqE6dOmAhgAACCCCAAAIIJCGwaNEi7b333lq8eLErVH0jqXfeflcUrpJw5VYEEEifAAWs9NnSMwIIpFbgGvdq4b777rujK2IVLVo0tb3TGwIIIIAAAgggEIiAtVYnnXSS3njjjaWS7pR0byCpkyYCCMRYgAJWjCeP0BEIUKBy8eLFr/v0008vP+igg9jNPcAHgJQRQAABBBBAIHmBn3/+eeO+++77+KpVq26XNC/5HukBAQQQSL8ABaz0GzMCAgikVsAMGTKk2XHHHXe9pHap7ZreEEAAAQQQQAAB7wWGLF++/O4dd9xxDPtceT/XJIiAVwIUsLyaTpJBICwBa+2Jeafk1JbEiqywpp9sEUAAAQQQQKDgApsk/SDpOmPM2wW/jSsRQACB6AhQwIrOXBAJAggUQsBaW0LSeZIeklS8EF1wCwIIIIAAAggg4LPAxpzXBLtIes4Ys87nRMkNAQT8FqCA5ff8kh0CwQhYa6tKOt99syipVDCJkygCCCCAAAIIILB1gVWSHpT0uDHmV5AQQACBuAtQwIr7DBI/Agj8RcBaWy/vGGi3P5ZbnUVDAAEEEEAAAQRCElgv6a2chG8zxkwOKXFyRQABvwUoYPk9v2SHQLAC1tpakoZKqsn+WME+BiSOAAIIIIBASALuVcGZkloYY+aElDi5IoBAGAIUsMKYZ7JEIEiBvP2xjshbPr9PkAgkjQACCCCAAAIhCPwo6TJJHxtj1oaQMDkigEB4AhSwwptzMkYgOAFrbemcbyQ7S7pCkluZRUMAAQQQQAABBHwQcIWrf0t6xhizxoeEyAEBBBDYlgAFLJ4NBBAIRsBaW0zSzXkn8ewaTOIkigACCCCAAAI+CVhJCyU9lrNNQi9jzCafkiMXBBBAgAIWzwACCCCQJ2CtLS+pu6RrJbmiFg0BBBBAAAEEEIiDwAZJd0t6IGdl+RJjjCtm0RBAAIEgBFiBFcQ0kyQCCGxNwFq7d843mF0lXSqpOEoIIIAAAggggEBEBdZt9qrgtIjGSFgIIIBAWgUoYKWVl84RQCAOAtbaPSXdJamdpHJxiJkYEUAAAQQQQCAIgeWS3pd0tTFmdhAZkyQCCCCwDQEKWDwaCCCAQJ6Atdbti/WepP0l8fORJwMBBBBAAAEEsiXgXg38SNIpxhi33xUNAQQQCF6AX9CCfwQAQACBLQWstQdIul5SR3QQQAABBBBAAIEMCwzO2drgDmPMNxkel+EQQACBSAtQwIr09BAcAghkU8Ba28wt2Zd0XM6GqTtkMxbGRgABBBBAAAGvBdZK+kDSg5JGsTm713NNcgggUEgBCliFhOM2BBAIR8Ba20jS43mvFpYIJ3MyRQABBBBAAIE0C6yX9K2kC40xE9I8Ft0jgAACsRaggBXr6SN4BBDIlIC11p1SWEvSw5JaZmpcxkEAAQQQQAABbwVGS7pE0gxjjCtk0RBAAAEEtiNAAYvHAwEEEEhAwFpbNGej94MldZV0Us4eFa6wRUMAAQQQQAABBAoisEHSEEmPSBrJq4IFIeMaBBBA4L8CFLB4EhBAAIFCClhr3WmFd+d8AG0uqVQhu+E2BBBAAAEEEPBfYLmkMZJuMsaM9z9dMkQAAQRSL0ABK/Wm9IgAAgEJWGuLSKokqX/OB9NWAaVOqggggAACCCBQMIH3c14TPDtn9fZCY8ymgt3CVQgggAACWwpQwOKZQAABBFIkYK1t4DZhlXR5irqkGwQQQAABBBCIp8DGvANgnjXGfBPPFIgaAQQQiJYABaxozQfRIICABwLW2uqSrs7bI8utzqIhgAACCCCAQBgC8yS9lbNVS09jzG9hpEyWCCCAQGYEKGBlxplREEAgQAFrbWlJvfJWZZVj38EAHwJSRgABBBAIQcBKWpG3MbsrXK0NIWlyRAABBDItQAEr0+KMhwACwQlYa3eR1F7SLZJ2Dw6AhBFAAAEEEPBXYKGkayUNkzSfUwX9nWgyQwCB7AtQwMr+HBABAggEImCtLSPpdEnnSmoWSNqkiQACCCCAgG8CbsXVFzlfSj0l6VVjjFt9RUMAAQQQSLMABaw0A9M9AgggsDUBa20LSfdLqiupFEoIIIAAAgggEHkB92rgZEnXGWM+jHy0BIgAAgh4JkABy7MJJR0EEIiPgLW2WM4JRbtJ+nfehu/xCZ5IEUAAAQQQCEvgVUlXSZprjHEnDNIQQAABBDIsQAErw+AMhwACCGxNwFpbL+db3VMkXSZpV5QQQAABBBBAIOsC7kTBfpJeztkC4Af2t8r6fBAAAggELkABK/AHgPQRQCBaAnknF3aVdHbOB+Y6ktwqLRoCCCCAAAIIZEbAra6aJOl5t8eVMWZZZoZlFAQQQACB/AQoYOUnxJ8jgAACWRKw1jaR9KykfSQVyVIYDIsAAggggEAIApvy9rc6yxjzbQgJkyMCCCAQNwEKWHGbMeJFAIGgBKy1JfI2eu8s6SJJ7iRDGgIIIIAAAgikRmClpCclDXAFLGPM+tR0Sy8IIIAAAqkWoICValH6QwABBNIkYK2tLOkcSR0l7ceqrDRB0y0CCCCAgO8CbrWVW2XlNmb/jzFmru8Jkx8CCCDggwAFLB9mkRwQQCA4AWvt0ZJ65hWySgcHQMIIIIAAAggkLuBWW30v6VpjzOjEb+cOBBBAAIFsClDAyqY+YyOAAAJJCFhr3QbvVSSdJ+kaSRSykvDkVgQQQAABbwWWS3pI0hOS5hpjNnibKYkhgAACHgtQwPJ4ckkNAQTCEbDW7iKpdd7phYdzemE4c0+mCCCAAAJbFXCnCbpVVi9IGmqMWYATAggggEC8BShgxXv+iB4BBBD4m4C1dn/3eoSkw3KOAN8951VDftbznCCAAAIIhCBgcw48+U3SyJxDT/oYYyaGkDQ5IoAAAqEI8EtNKDNNngggEJSAtdb9fHevGLaV9G9JewQFQLIIIIAAAqEJzJJ0laQhktYbY1wxi4YAAggg4JEABSyPJpNUEEAAga0JWGtL5m32frKkC3IKWuWRQgABBBBAwAOBxZKelvSKpP9r795i5ayqAI7/F9AC0oJBLhWwKAqI1ktBQcBA1JjGqNF6iahRjJKY+GB8MMbEBxM18UETE1+MPCiaGIkKiRpBlMSA1IiCIJWLooUKci9BoC3l0uW3kj1aCq3ntGcO833ffydfZs45M3v2+u1JZrLO3muvj4htA4jJEBRQQAEFdiFgAsu3hgIKKDAigcxcBnwYqGTWGRZ+H9HkG6oCCigwDIGtwDrgIuAHEVEF2m0KKKCAAiMQMIE1gkk2RAUUUODZBDLz+cCXgI8Ay4F9lVJAAQUUUGAGBaogeyWqvg98MSIemsExOiQFFFBAgSkLmMCaMrDdK6CAArMukJkHAycAnwU+MOvjdXwKKKCAAqMR2A78GPhG9/l0c0Q8PJrIDVQBBRRQ4BkCJrB8UyiggAIK/FcgM+vUwvcAa4E3AkvkUUABBRRQYBEFngB+C1wM/DQi7lzE1/alFFBAAQVmWMAE1gxPjkNTQAEFnkuBzFwJfB5Y0xXJPQZY+lyOx9dWQAEFFBiswOPdISOVqLoE+HpE1ImCNgUUUEABBZ4mYALLN4QCCiigwG4FMvMA4NjuWPIvAB+yVpZvGAUUUECBBRKo2lYXdp8rXwY2RsRjC9Sv3SiggAIKDFDABNYAJ9WQFFBAgWkJZOYRbWvhu4Fz3GI4LWn7VUABBQYrUHWtKmlVta1+FxH3DTZSA1NAAQUUWFABE1gLymlnCiigwHgEMnMZcC7w3q5OyWqgTjW0KaCAAgoosLPAv4FrW12r70XEoxIpoIACCigwXwETWPMV8/EKKKCAAs8QyMz9gE+0mllVL6t+timggAIKjFfgSeBf3efBV4ALIqJ+timggAIKKLDHAiaw9pjOJyqggAIK7CyQmXVq4UuAs4FPAa9VSQEFFFBgVALXAd8CrgBuj4gq0G5TQAEFFFBgrwVMYO01oR0ooIACCuxKIDNXAWu7I9HfApwGVEF4mwIKKKDAcAS2AtcAlwE/i4j1wwnNSBRQQAEFZknABNYszYZjUUABBQYskJmHdceknwd8HFgBLB9wuIamgAIKDFngEeCe2hoInB8RDww5WGNTQAEFFJgNARNYszEPjkIBBRQYjUDbZviCts3wc91/7E8eTfAGqoACCvRXIIEbgK+27YGbIuKJ/objyBVQQAEF+iZgAqtvM+Z4FVBAgYEJZOZxwFnAGuBtwCEDC9FwFFBAgb4K1OmBl7btgVdGxIa+BuK4FVBAAQX6L2ACq/9zaAQKKKDAYATa6qx3AecAq4GVnmg4mOk1EAUUmH2BOilwY1tp9UPg4oh4avaH7QgVUEABBcYgYAJrDLNsjAoooEAPBTJz3+4kqyOBzwCf7rat7N/DMByyAgoo0AeBSlx9E/gacL9Jqz5MmWNUQAEFxidgAmt8c27ECiigQO8EMnMpcCJwCvD+tt2wElw2BRRQQIH5C9SqqtoaeFE7QfDWiNg2/258hgIKKKCAAosnYAJr8ax9JQUUUECBBRLIzDrBsOpl1VVF4E8ClixQ93ajgAIKDE2giq3/FfgjcHn3z4CfR0SdJGhTQAEFFFCgNwImsHozVQ5UAQUUUGBXApl5BPAx4DxgRbcN5iBgH8UUUECBkQpsBzYD9wDfBc6PiE0jtTBsBRRQQIGBCJjAGshEGoYCCiigALS6WYcDx7Sthue2OlryKKCAAmMQuBe4oIqvt2LsVc+qklk2BRRQQAEFei9gAqv3U2gACiiggAK7E8jMVcAZwJndUfCnAy8D/PzzbaOAAn0XSGADsA64Cvh9RKzve1COXwEFFFBAgV0J+AXe94YCCiigwKgEMvP4rhbMB7vCxe/ottUcBdT2Q+tnjepdYLAK9FKg6ljdB9xVNayAH0VE1bWyKaCAAgooMAoBE1ijmGaDVEABBRTYWSAzq0bWAd3R8YcC7wM+CbxcKQUUUGDGBG4Bvg38BHgQeMxtgTM2Qw5HAQUUUGBRBExgLQqzL6KAAgoo0AeBzKwC8JXEWg28GTgLOLgPY3eMCigwCIGHgSuA3wDXAbdERBVitymggAIKKDB6ARNYo38LCKCAAgoosCuBzFwKnNbVmHkrcGqrn3UssJ9qCiigwF4KPAnc1upY/aGr0/dr4OqIeHwv+/XpCiiggAIKDFLABNYgp9WgFFBAAQWmJZCZz2tbDj8KvAGoJFcltPxMnRa6/SrQf4EquF4Jq0pOXQN8p1vteaHJqv5PrBEooIACCiyegF+2F8/aV1JAAQUUGJhAS2ZVIfijuy0/ZwNvb9sPLQo/sLk2HAX2QOCplqy6rG0JvKOrtXd3RGzZg758igIKKKCAAqMXMIE1+reAAAoooIACCymQmVUz6+TulLBTgFcDr+xOC3sFcOBCvo59KaDATAlsBW4CbgSub/Wrro+Ih2ZqlA5GAQUUUECBHguYwOrx5Dl0BRRQQIF+CGRmfd6eDqxtxeGPAA4BDgLqNESbAgr0Q6C2Aj4CVLH1TV1tvEu6OnmXAldFRP3NpoACCiiggAJTEjCBNSVYu1VAAQUUUODZBFoyq+poVfLqcGAN8M6W4NpfNQUUmDmBql11JfAL4FfAfcBmYItJq5mbKwekgAIKKDBgARNYA55cQ1NAAQUU6I9AZh4AvBh4KXB8q6VV2w9XASa2+jOVjrS/AtuAm9sWwBuAvwH/AG6PiMf6G5YjV0ABBRRQYBgCJrCGMY9GoYACCigwUIHMrOTVa4AzuxUgr29JriOBw4Dlnn440Ik3rGkJ1Da/Wj1Vq6juBf4JXA2s67b4/jkiKollU0ABBRRQQIEZFDCBNYOT4pAUUEABBRTYnUDbhlif4Svb9sPahvgmoLYm2hRQ4OkClbC6HPhluypplW7/822igAIKKKBAvwRMYPVrvhytAgoooIACzyqQmfsChwJVIL5qa9V2xDoFsU5EfFX7m3oKDFWgTvv7E7C+bQG8ra2yeqCKrUfE9qEGblwKKKCAAgqMRcAE1lhm2jgVUEABBUYtkJlHASe2+lonAS8CXgjU71cAVYPLpsCsCmxtW/7uBu6qulStPlXVqbopIur3NgUUUEABBRQYsIAJrAFPrqEpoIACCigwF4HM3Kcltl4H1HUqcGwrHl81uJa2y+8NcwH1MfMVqLpUj7eralBVwfRJbaprum2y1wK3uopqvqw+XgEFFFBAgWEJ+EV0WPNpNAoooIACCiyIQGbuBxzU6mpVba26Xyu46lTEumoV1wlAbV20KTBXgSeAvwM31sop4C+VnAIeAba0a3NEPDnXDn2cAgoooIACCoxDwATWOObZKBVQQAEFFFhwgbZyq05ErKu2IVb9rcn92p5Y9ye3VZ/LNkyBWkG1qW3xq9P97gFqS1/d1kl/dU1+f7/JqWG+CYxKAQUUUECBaQuYwJq2sP0roIACCiigAJlZ2xCPa8Xl6/TEqsFVt3UtAw5sdbgmt1WTq67a3mhbPIEqdl5b+Ha8qv5U/VyrpGpr353AxnZtqNuIqC2ANgUUUEABBRRQYGoCJrCmRmvHCiiggAIKKDAXgbaSqxJVO1+1jbFWdVU9rjpVsQrOV8Lr6HbVz67smgvy/x7zYCuCXiuk7tghIVVJqTq5r1ZLVRKrrqd2uL/dGlTzg/bRCiiggAIKKLCwAiawFtbT3hRQQAEFFFBgEQUys2pw1aqtqtM1WbW18yquKkRfV/29VntVPa/Jbd2vv02ev2M/S9pzavVYJdPqcZOaX/W8SavX+3/fqWqbXa1kmrTN7U7VeqrVS5PbWulUyaP6e9WEmqyEmqyCqt/XSqjJiqhHW7/VR/2ubiePrZ8n96uvrRFRSSmbAgoooIACCijQO4H/ANKkuuduwopMAAAAAElFTkSuQmCC;" vertex="1" parent="3PmMXT0CuhSYNfn3DO8X-36">
          <mxGeometry x="25" y="91" width="70" height="70" as="geometry" />
        </mxCell>
        <mxCell id="3PmMXT0CuhSYNfn3DO8X-37" value="" style="group" vertex="1" connectable="0" parent="1">
          <mxGeometry x="240" y="467" width="120" height="165.5" as="geometry" />
        </mxCell>
        <mxCell id="3PmMXT0CuhSYNfn3DO8X-34" value="" style="edgeStyle=orthogonalEdgeStyle;rounded=0;orthogonalLoop=1;jettySize=auto;html=1;" edge="1" parent="3PmMXT0CuhSYNfn3DO8X-37" source="3PmMXT0CuhSYNfn3DO8X-17" target="3PmMXT0CuhSYNfn3DO8X-31">
          <mxGeometry relative="1" as="geometry" />
        </mxCell>
        <mxCell id="3PmMXT0CuhSYNfn3DO8X-17" value="Watsonx.ai" style="shape=process;whiteSpace=wrap;html=1;backgroundOutline=1;" vertex="1" parent="3PmMXT0CuhSYNfn3DO8X-37">
          <mxGeometry width="120" height="60" as="geometry" />
        </mxCell>
        <mxCell id="3PmMXT0CuhSYNfn3DO8X-31" value="" style="shape=image;verticalLabelPosition=bottom;labelBackgroundColor=default;verticalAlign=top;aspect=fixed;imageAspect=0;image=data:image/svg+xml,PHN2ZyB4bWxucz0iaHR0cDovL3d3dy53My5vcmcvMjAwMC9zdmciIHZpZXdCb3g9IjAgMCAzMiAzMiIgaWQ9IkJ1aWxkX2ljb25faGVyZSI+PHBhdGggZD0iTTI4LjUsOC4yMUwxNi41LDEuMjhjLS4zMS0uMTgtLjY5LS4xOC0xLDBMMy41LDguMjFjLS4zMS4xOC0uNS41MS0uNS44N3YxMy44NmMwLC4zNi4xOS42OS41Ljg3bDEyLDYuOTNjLjE1LjA5LjMzLjEzLjUuMTNzLjM1LS4wNC41LS4xM2wxMi02LjkzYy4zMS0uMTguNS0uNTEuNS0uODd2LTEzLjg2YzAtLjM2LS4xOS0uNjktLjUtLjg3Wk0xNiwzLjNsMTAsNS43Ny0yLjA3LDEuMi01LjQzLTMuMTRjLS4xNS0uMDktLjMzLS4xMy0uNS0uMTNzLS4zNS4wNC0uNS4xM2wtNiwzLjQ2Yy0uMzEuMTgtLjUuNTEtLjUuODd2LjQ5bC01LTIuODgsMTAtNS43N1pNMjMsMTcuOTJsLTUsMi44OS0xLS41N3YtMy42NXMxLjQ4LS44NSwxLjQ4LS44NWgwczQuNTItMi42MSw0LjUyLTIuNjF2NC44Wk0xNiwxNC44NWwtMS44NS0xLjA3aDBsLTEuMTYtLjY3di0xLjA3bDUtMi44OSwzLjkzLDIuMjctMy40NSwxLjk5aDBsLTIuNDgsMS40M1pNMTMsMTcuMTJ2LTEuN2wuNDYuMjdoMGwxLjU0Ljg5djIuNXMtMi0xLjE2LTItMS4xNnYtLjhaTTUsMTAuOGw2LDMuNDZ2My40MWwtNC44NCwyLjg1aDBsLTEuMTYuNjd2LTEwLjM5Wk0xNSwyOC4xMmwtOS01LjIsMS4zNS0uNzhoMHM0LjQ0LTIuNjIsNC40NC0yLjYybDMuMjEsMS44NXY2Ljc0Wk0xNywyOC4xMnYtNS41OWwuNS4yOWMuMTUuMDkuMzMuMTMuNS4xM3MuMzUtLjA0LjUtLjEzbDMuNjYtMi4xMSwzLjYzLDIuMS4yMS4xMi05LDUuMlpNMjcsMjEuMmwtLjMtLjE4aDBsLTIuNTQtMS40Ny4zNC0uMTljLjMxLS4xOC41LS41MS41LS44N3YtNi41M2wyLTEuMTZ2MTAuMzlaIi8+PC9zdmc+;" vertex="1" parent="3PmMXT0CuhSYNfn3DO8X-37">
          <mxGeometry x="20.5" y="86.5" width="79" height="79" as="geometry" />
        </mxCell>
        <mxCell id="3PmMXT0CuhSYNfn3DO8X-44" value="" style="endArrow=classic;startArrow=classic;html=1;rounded=0;exitX=0.5;exitY=0;exitDx=0;exitDy=0;entryX=0.5;entryY=1;entryDx=0;entryDy=0;" edge="1" parent="1" target="3PmMXT0CuhSYNfn3DO8X-16">
          <mxGeometry width="50" height="50" relative="1" as="geometry">
            <mxPoint x="365" y="344" as="sourcePoint" />
            <mxPoint x="360" y="300" as="targetPoint" />
          </mxGeometry>
        </mxCell>
        <mxCell id="3PmMXT0CuhSYNfn3DO8X-48" style="edgeStyle=orthogonalEdgeStyle;rounded=0;orthogonalLoop=1;jettySize=auto;html=1;entryX=0.25;entryY=0;entryDx=0;entryDy=0;" edge="1" parent="1" source="3PmMXT0CuhSYNfn3DO8X-7" target="3PmMXT0CuhSYNfn3DO8X-16">
          <mxGeometry relative="1" as="geometry" />
        </mxCell>
      </root>
    </mxGraphModel>
  </diagram>
</mxfile>
